{
.appVersion = "3133";
.formatVersion = 3;
DisplayStrings = (
B,
"ǄǅKMNŊØǾRẞVWYZǆĸøǿsz0247⁄½¼¾¹²³⁴⟨⟩#///backslash ()«»‹›&§®№₡₲₺₦₹₩¥⁒∕%‰"
);
axes = (
{
name = Weight;
tag = wght;
}
);
classes = (
{
automatic = 1;

glyphs = (
{
glyphname = A;
kernLeft = A;
kernRight = A;
lastChange = "2022-08-12 14:35:41 +0000";
layers = (
{
anchors = (
{
name = bottom;
pos = (135,0);
},
{
name = top;
pos = (138,700);
}
);
attr = {
color = "1";
};
layerId = "33AE93C6-B8B3-427A-A53B-F24970E840CE";
shapes = (
{
attr = {
gradient = {
colors = (
(
(64,255),
0
),
(
(191,255),
1
)
);
end = (0.5074,0.9658);
start = (0.6091,0.0797);
};
};
closed = 1;
nodes = (
(77,0,l),
(77,700,l),
(76,700,l),
(53,677,l),
(53,0,l)
);
},
{
attr = {
gradient = {
colors = (
(
(64,255),
0
),
(
(191,255),
1
)
);
end = (0.08,0.5878);
start = (0.8784,0.5375);
};
};
closed = 1;
nodes = (
(196,353,l),
(196,377,l),
(77,377,l),
(77,353,l)
);
},
{
attr = {
gradient = {
colors = (
(
(64,255),
0
),
(
(191,255),
1
)
);
end = (0.4707,0.0242);
start = (0.5491,0.9419);
};
};
closed = 1;
nodes = (
(220,0,l),
(220,676,l),
(196,676,l),
(196,0,l)
);
},
{
attr = {
gradient = {
colors = (
(
(64,255),
0
),
(
(191,255),
1
)
);
end = (0.8878,0.5878);
start = (0.0693,0.513);
};
};
closed = 1;
nodes = (
(220,676,l),
(220,677,l),
(197,700,l),
(77,700,l),
(77,676,l)
);
}
);
width = 273;
},
{
anchors = (
{
name = bottom;
pos = (462,0);
},
{
name = top;
pos = (486,730);
}
);
attr = {
color = "1";
};
layerId = m003;
shapes = (
{
attr = {
gradient = {
colors = (
(
(64,255),
0
),
(
(191,255),
1
)
);
end = (0.79,0.8959);
start = (0.4055,0.0144);
};
};
closed = 1;
nodes = (
(289,0,l),
(289,730,l),
(288,730,l),
(35,523,l),
(35,0,l)
);
},
{
attr = {
gradient = {
colors = (
(
(64,255),
0
),
(
(191,255),
1
)
);
end = (0.0383,0.0895);
start = (0.8943,0.4519);
};
};
closed = 1;
nodes = (
(638,173,l),
(638,417,l),
(289,417,l),
(289,173,l)
);
},
{
attr = {
gradient = {
colors = (
(
(64,255),
0
),
(
(191,255),
1
)
);
end = (0.4489,0.0368);
start = (0.4192,0.8964);
};
};
closed = 1;
nodes = (
(892,0,l),
(892,486,l),
(638,486,l),
(638,0,l)
);
},
{
attr = {
gradient = {
colors = (
(
(64,255),
0
),
(
(191,255),
1
)
);
end = (0.8814,0.226);
start = (0.0812,0.4764);
};
};
closed = 1;
nodes = (
(892,486,l),
(892,487,l),
(690,730,l),
(289,730,l),
(289,486,l)
);
}
);
width = 927;
}
);
unicode = 65;
},
{
glyphname = Aringacute;
kernLeft = A;
kernRight = A;
lastChange = "2022-08-12 14:35:41 +0000";
layers = (
{
attr = {
color = "1";
};
layerId = "33AE93C6-B8B3-427A-A53B-F24970E840CE";
shapes = (
{
attr = {
gradient = {
colors = (
(
(191,255),
0
),
(
(64,255),
1
)
);
end = (0.098,0.0553);
start = (0.8835,0.9295);
};
identifier = ID0x60000019dc00;
};
closed = 1;
nodes = (
(139,840,l),
(177,899,l),
(177,900,l),
(148,900,l),
(118,840,l)
);
},
{
ref = A;
},
{
attr = {
gradient = {
colors = (
(
(191,255),
0
),
(
(64,255),
1
)
);
end = (0.8878,0.5878);
start = (0.1193,0.7671);
};
identifier = ID0x60000019dce0;
};
closed = 1;
nodes = (
(160,737,l),
(160,758,l),
(94,758,l),
(94,757,l),
(112,737,l)
);
},
{
attr = {
gradient = {
colors = (
(
(64,255),
0
),
(
(191,255),
1
)
);
end = (0.7972,0.8618);
start = (0.4355,0.0498);
};
identifier = ID0x60000019dce0;
};
closed = 1;
nodes = (
(115,758,l),
(115,821,l),
(114,821,l),
(94,803,l),
(94,758,l)
);
},
{
attr = {
gradient = {
colors = (
(
(64,255),
0
),
(
(191,255),
1
)
);
end = (0.1914,0.1245);
start = (0.4192,0.8964);
};
identifier = ID0x60000019dce0;
};
closed = 1;
nodes = (
(161,737,l),
(181,755,l),
(181,800,l),
(160,800,l),
(160,737,l)
);
},
{
attr = {
gradient = {
colors = (
(
(64,255),
0
),
(
(191,255),
1
)
);
end = (0.8685,0.2912);
start = (0.0693,0.513);
};
identifier = ID0x60000019dce0;
};
closed = 1;
nodes = (
(181,800,l),
(181,801,l),
(163,821,l),
(115,821,l),
(115,800,l)
);
}
);
width = 273;
},
{
attr = {
color = "1";
};
layerId = m003;
shapes = (
{
attr = {
gradient = {
colors = (
(
(191,255),
0
),
(
(64,255),
1
)
);
end = (0.0479,0.095);
start = (0.9467,0.9402);
};
identifier = ID0x600000627aa0;
};
closed = 1;
nodes = (
(509,939,l),
(654,1028,l),
(654,1029,l),
(448,1029,l),
(393,939,l)
);
},
{
ref = A;
},
{
attr = {
gradient = {
colors = (
(
(191,255),
0
),
(
(64,255),
1
)
);
end = (0.8878,0.5878);
start = (0.0685,0.9017);
};
identifier = ID0x6000006279c0;
};
closed = 1;
nodes = (
(539,751,l),
(539,818,l),
(304,818,l),
(304,817,l),
(364,751,l)
);
},
{
attr = {
gradient = {
colors = (
(
(64,255),
0
),
(
(191,255),
1
)
);
end = (0.9072,0.8304);
start = (0.3309,0.0667);
};
identifier = ID0x6000006279c0;
};
closed = 1;
nodes = (
(385,818,l),
(385,914,l),
(384,914,l),
(304,852,l),
(304,818,l)
);
},
{
attr = {
gradient = {
colors = (
(
(64,255),
0
),
(
(191,255),
1
)
);
end = (0.1392,0.1551);
start = (0.4192,0.8964);
};
identifier = ID0x6000006279c0;
};
closed = 1;
nodes = (
(540,751,l),
(620,807,l),
(620,845,l),
(539,845,l),
(539,751,l)
);
},
{
attr = {
gradient = {
colors = (
(
(64,255),
0
),
(
(191,255),
1
)
);
end = (0.9153,0.2216);
start = (0.0693,0.513);
};
identifier = ID0x6000006279c0;
};
closed = 1;
nodes = (
(620,845,l),
(620,846,l),
(560,914,l),
(385,914,l),
(385,845,l)
);
}
);
width = 907;
}
);
unicode = 506;
},
{
glyphname = AE;
kernLeft = A;
kernRight = E;
lastChange = "2022-08-12 14:35:41 +0000";
layers = (
{
anchors = (
{
name = top;
pos = (138,700);
}
);
attr = {
color = "1";
};
layerId = "33AE93C6-B8B3-427A-A53B-F24970E840CE";
shapes = (
{
attr = {
gradient = {
colors = (
(
(64,255),
0
),
(
(191,255),
1
)
);
end = (0.5074,0.9658);
start = (0.4884,0.0287);
};
};
closed = 1;
nodes = (
(77,0,l),
(77,700,l),
(76,700,l),
(53,677,l),
(53,0,l)
);
},
{
attr = {
gradient = {
colors = (
(
(64,255),
0
),
(
(191,255),
1
)
);
end = (0.1131,0.4794);
start = (0.8848,0.5435);
};
};
closed = 1;
nodes = (
(196,353,l),
(196,377,l),
(77,377,l),
(77,353,l)
);
},
{
attr = {
gradient = {
colors = (
(
(191,255),
0
),
(
(64,255),
1
)
);
end = (0.1579,0.5878);
start = (0.9155,0.5837);
};
};
closed = 1;
nodes = (
(363,0,l),
(363,24,l),
(196,24,l),
(196,23,l),
(220,0,l)
);
},
{
attr = {
gradient = {
colors = (
(
(64,255),
0
),
(
(191,255),
1
)
);
end = (0.5067,0.0149);
start = (0.5564,0.9658);
};
};
closed = 1;
nodes = (
(220,24,l),
(220,676,l),
(196,676,l),
(196,24,l)
);
},
{
attr = {
gradient = {
colors = (
(
(64,255),
0
),
(
(191,255),
1
)
);
end = (0.8875,0.2428);
start = (0.0693,0.513);
};
};
closed = 1;
nodes = (
(220,676,l),
(220,677,l),
(197,700,l),
(77,700,l),
(77,676,l)
);
},
{
attr = {
gradient = {
colors = (
(
(64,255),
0
),
(
(191,255),
1
)
);
end = (0.8878,0.5878);
start = (0.0693,0.513);
};
};
closed = 1;
nodes = (
(339,353,l),
(339,377,l),
(220,377,l),
(220,353,l)
);
},
{
attr = {
gradient = {
colors = (
(
(64,255),
0
),
(
(191,255),
1
)
);
end = (0.8878,0.5878);
start = (0.0878,0.6802);
};
};
closed = 1;
nodes = (
(340,676,l),
(363,699,l),
(363,700,l),
(197,700,l),
(220,676,l)
);
}
);
width = 383;
},
{
anchors = (
{
name = top;
pos = (486,730);
}
);
attr = {
color = "1";
};
layerId = m003;
shapes = (
{
attr = {
gradient = {
colors = (
(
(64,255),
0
),
(
(191,255),
1
)
);
end = (0.9039,0.9423);
start = (0.6371,0.0178);
};
};
closed = 1;
nodes = (
(289,0,l),
(289,730,l),
(288,730,l),
(35,523,l),
(35,0,l)
);
},
{
attr = {
gradient = {
colors = (
(
(64,255),
0
),
(
(191,255),
1
)
);
end = (0.0383,0.0895);
start = (0.8813,0.0608);
};
};
closed = 1;
nodes = (
(661,173,l),
(598,417,l),
(289,417,l),
(289,173,l)
);
},
{
attr = {
gradient = {
colors = (
(
(191,255),
0
),
(
(64,255),
1
)
);
end = (0.0952,0.8756);
start = (0.9731,0.0568);
};
};
closed = 1;
nodes = (
(1325,0,l),
(1325,244,l),
(598,244,l),
(598,243,l),
(800,0,l)
);
},
{
attr = {
gradient = {
colors = (
(
(64,255),
0
),
(
(191,255),
1
)
);
end = (0.9202,0.0835);
start = (0.0855,0.7853);
};
};
closed = 1;
nodes = (
(852,244,l),
(852,486,l),
(598,486,l),
(598,244,l)
);
},
{
attr = {
gradient = {
colors = (
(
(64,255),
0
),
(
(191,255),
1
)
);
end = (0.713,0.9264);
start = (0.0306,0.307);
};
};
closed = 1;
nodes = (
(852,486,l),
(852,487,l),
(650,730,l),
(289,730,l),
(289,486,l)
);
},
{
attr = {
gradient = {
colors = (
(
(64,255),
0
),
(
(191,255),
1
)
);
end = (0.926,0.8502);
start = (0.0825,0.1006);
};
};
closed = 1;
nodes = (
(1212,263,l),
(1212,467,l),
(852,467,l),
(852,263,l)
);
},
{
attr = {
gradient = {
colors = (
(
(64,255),
0
),
(
(191,255),
1
)
);
end = (0.8585,0.8442);
start = (0.1052,0.5322);
};
};
closed = 1;
nodes = (
(1174,486,l),
(1376,729,l),
(1376,730,l),
(650,730,l),
(852,486,l)
);
}
);
width = 1356;
}
);
metricLeft = A;
metricRight = E;
unicode = 198;
},
{
glyphname = B;
kernLeft = H;
kernRight = B;
lastChange = "2022-08-19 14:28:54 +0000";
layers = (
{
attr = {
color = "1";
};
layerId = "33AE93C6-B8B3-427A-A53B-F24970E840CE";
shapes = (
{
attr = {
gradient = {
colors = (
(
(64,255),
0
),
(
(128,255),
1
)
);
end = (0.7785,0.8588);
start = (0.0992,0.2024);
};
};
closed = 1;
nodes = (
(152,676,l),
(152,700,l),
(77,700,l),
(77,676,l)
);
},
{
attr = {
gradient = {
colors = (
(
(64,255),
0
),
(
(191,255),
1
)
);
end = (0.0372,0.5775);
start = (0.9225,0.2287);
};
};
closed = 1;
nodes = (
(226,0,l),
(226,24,l),
(53,24,l),
(53,0,l)
);
},
{
attr = {
gradient = {
colors = (
(
(64,255),
0
),
(
(191,255),
1
)
);
end = (0.4877,0.9217);
start = (0.6258,0.0095);
};
};
closed = 1;
nodes = (
(77,24,l),
(77,700,l),
(53,700,l),
(53,24,l)
);
},
{
attr = {
gradient = {
colors = (
(
(191,255),
0
),
(
(64,255),
1
)
);
end = (0.5152,0.0336);
start = (0.4447,0.6672);
};
};
closed = 1;
nodes = (
(176,677,l),
(153,700,l),
(152,700,l),
(152,377,l),
(166,377,l),
(176,377,l)
);
},
{
attr = {
gradient = {
colors = (
(
(64,255),
0
),
(
(191,255),
1
)
);
end = (0.2671,0.5486);
start = (0.937,0.3463);
};
};
closed = 1;
nodes = (
(226,353,l),
(226,377,l),
(152,377,l),
(54,377,l),
(77,353,l)
);
},
{
attr = {
gradient = {
colors = (
(
(191,255),
0
),
(
(64,255),
1
)
);
end = (0.5245,0.827);
start = (0.2492,0.0773);
};
};
closed = 1;
nodes = (
(227,0,l),
(250,23,l),
(250,354,l),
(227,377,l),
(226,377,l),
(226,0,l)
);
}
);
width = 283;
},
{
attr = {
color = "1";
};
layerId = m003;
shapes = (
{
attr = {
gradient = {
colors = (
(
(64,255),
0
),
(
(128,255),
1
)
);
end = (0.478,0.9186);
start = (0.4393,0.0388);
};
};
closed = 1;
nodes = (
(584,486,l),
(584,730,l),
(289,730,l),
(289,486,l)
);
},
{
attr = {
gradient = {
colors = (
(
(64,255),
0
),
(
(191,255),
1
)
);
end = (0.033,0.9134);
start = (0.9541,0.1381);
};
};
closed = 1;
nodes = (
(738,0,l),
(738,244,l),
(35,244,l),
(35,0,l)
);
},
{
attr = {
gradient = {
colors = (
(
(64,255),
0
),
(
(191,255),
1
)
);
end = (0.4877,0.9217);
start = (0.8204,0.0543);
};
};
closed = 1;
nodes = (
(289,244,l),
(289,730,l),
(35,730,l),
(35,244,l)
);
},
{
attr = {
gradient = {
colors = (
(
(191,255),
0
),
(
(64,255),
1
)
);
end = (0.1105,0.2981);
start = (0.4063,0.7233);
};
};
closed = 1;
nodes = (
(858,533,l),
(585,730,l),
(584,730,l),
(584,467,l),
(739,467,l),
(858,376,l)
);
},
{
attr = {
gradient = {
colors = (
(
(64,255),
0
),
(
(191,255),
1
)
);
end = (0.2023,0.9106);
start = (0.903,0.2412);
};
};
closed = 1;
nodes = (
(738,263,l),
(738,467,l),
(584,467,l),
(584,466,l),
(737,263,l)
);
},
{
attr = {
gradient = {
colors = (
(
(191,255),
0
),
(
(64,255),
1
)
);
end = (0.8951,0.576);
start = (0.0689,0.4017);
};
};
closed = 1;
nodes = (
(739,0,l),
(992,193,l),
(992,274,l),
(739,467,l),
(738,467,l),
(738,0,l)
);
}
);
width = 992;
}
);
unicode = 66;
},
{
glyphname = C;
kernLeft = O;
lastChange = "2022-08-12 14:35:41 +0000";
layers = (
{
anchors = (
{
name = bottom;
pos = (140,0);
},
{
name = top;
pos = (138,700);
}
);
attr = {
color = "1";
};
layerId = "33AE93C6-B8B3-427A-A53B-F24970E840CE";
shapes = (
{
attr = {
gradient = {
colors = (
(
(191,255),
0
),
(
(64,255),
1
)
);
end = (0.9394,0.7375);
start = (0.0907,0.6919);
};
};
closed = 1;
nodes = (
(197,0,l),
(220,23,l),
(220,24,l),
(53,24,l),
(53,23,l),
(76,0,l)
);
},
{
attr = {
gradient = {
colors = (
(
(64,255),
0
),
(
(191,255),
1
)
);
end = (0.4877,0.9217);
start = (0.3885,0.0091);
};
};
closed = 1;
nodes = (
(77,24,l),
(77,700,l),
(76,700,l),
(53,677,l),
(53,24,l)
);
},
{
attr = {
gradient = {
colors = (
(
(64,255),
0
),
(
(191,255),
1
)
);
end = (0.8878,0.5878);
start = (0.0693,0.513);
};
};
closed = 1;
nodes = (
(220,676,l),
(220,677,l),
(197,700,l),
(77,700,l),
(77,676,l)
);
}
);
width = 235;
},
{
anchors = (
{
name = bottom;
pos = (482,0);
},
{
name = top;
pos = (476,730);
}
);
attr = {
color = "1";
};
layerId = m003;
shapes = (
{
attr = {
gradient = {
colors = (
(
(191,255),
0
),
(
(64,255),
1
)
);
end = (0.8878,0.5878);
start = (0.0935,0.7984);
};
};
closed = 1;
nodes = (
(660,0,l),
(862,243,l),
(862,244,l),
(25,244,l),
(25,243,l),
(227,0,l)
);
},
{
attr = {
gradient = {
colors = (
(
(64,255),
0
),
(
(191,255),
1
)
);
end = (0.8939,0.8988);
start = (0.3814,0.045);
};
};
closed = 1;
nodes = (
(279,244,l),
(279,730,l),
(278,730,l),
(25,523,l),
(25,244,l)
);
},
{
attr = {
gradient = {
colors = (
(
(64,255),
0
),
(
(191,255),
1
)
);
end = (0.8774,0.2729);
start = (0.0693,0.513);
};
};
closed = 1;
nodes = (
(862,486,l),
(862,487,l),
(660,730,l),
(279,730,l),
(279,486,l)
);
}
);
width = 862;
}
);
unicode = 67;
},
{
glyphname = D;
kernRight = O;
lastChange = "2022-08-12 14:35:41 +0000";
layers = (
{
anchors = (
{
name = stroke;
pos = (65,365);
},
{
name = top;
pos = (138,700);
}
);
attr = {
color = "1";
};
layerId = "33AE93C6-B8B3-427A-A53B-F24970E840CE";
shapes = (
{
attr = {
gradient = {
colors = (
(
(64,255),
0
),
(
(191,255),
1
)
);
end = (0.8613,0.3327);
start = (0.0949,0.4208);
};
};
closed = 1;
nodes = (
(222,676,l),
(222,677,l),
(199,700,l),
(77,700,l),
(77,676,l)
);
},
{
attr = {
gradient = {
colors = (
(
(191,255),
0
),
(
(64,255),
1
)
);
end = (0.8878,0.5878);
start = (0.0693,0.513);
};
};
closed = 1;
nodes = (
(198,0,l),
(198,24,l),
(53,24,l),
(53,0,l)
);
},
{
attr = {
gradient = {
colors = (
(
(64,255),
0
),
(
(191,255),
1
)
);
end = (0.4877,0.9217);
start = (0.3995,0.0139);
};
};
closed = 1;
nodes = (
(77,24,l),
(77,700,l),
(53,700,l),
(53,24,l)
);
},
{
attr = {
gradient = {
colors = (
(
(64,255),
0
),
(
(191,255),
1
)
);
end = (0.4056,0.1204);
start = (0.4192,0.8964);
};
};
closed = 1;
nodes = (
(199,0,l),
(222,23,l),
(222,676,l),
(198,676,l),
(198,0,l)
);
}
);
width = 275;
},
{
anchors = (
{
name = stroke;
pos = (166,361);
},
{
name = top;
pos = (476,730);
}
);
attr = {
color = "1";
};
layerId = m003;
shapes = (
{
attr = {
gradient = {
colors = (
(
(64,255),
0
),
(
(191,255),
1
)
);
end = (0.8183,0.4624);
start = (0.0693,0.513);
};
};
closed = 1;
nodes = (
(922,486,l),
(922,487,l),
(720,730,l),
(289,730,l),
(289,486,l)
);
},
{
attr = {
gradient = {
colors = (
(
(191,255),
0
),
(
(64,255),
1
)
);
end = (0.8878,0.5878);
start = (0.0693,0.513);
};
};
closed = 1;
nodes = (
(668,-4,l),
(668,240,l),
(35,240,l),
(35,-4,l)
);
},
{
attr = {
gradient = {
colors = (
(
(64,255),
0
),
(
(191,255),
1
)
);
end = (0.4877,0.9217);
start = (0.4098,0.0603);
};
};
closed = 1;
nodes = (
(289,240,l),
(289,730,l),
(35,730,l),
(35,240,l)
);
},
{
attr = {
gradient = {
colors = (
(
(64,255),
0
),
(
(191,255),
1
)
);
end = (0.2039,0.1594);
start = (0.4192,0.8964);
};
};
closed = 1;
nodes = (
(669,-4,l),
(922,193,l),
(922,486,l),
(668,486,l),
(668,-4,l)
);
}
);
width = 947;
}
);
unicode = 68;
},
{
glyphname = E;
kernLeft = U;
lastChange = "2022-08-12 14:35:41 +0000";
layers = (
{
anchors = (
{
name = bottom;
pos = (135,0);
},
{
name = top;
pos = (138,700);
}
);
attr = {
color = "1";
};
layerId = "33AE93C6-B8B3-427A-A53B-F24970E840CE";
shapes = (
{
attr = {
gradient = {
colors = (
(
(64,255),
0
),
(
(191,255),
1
)
);
end = (0.0726,0.8409);
start = (0.9727,0.513);
};
};
closed = 1;
nodes = (
(220,0,l),
(220,24,l),
(53,24,l),
(53,23,l),
(77,0,l)
);
},
{
attr = {
gradient = {
colors = (
(
(64,255),
0
),
(
(191,255),
1
)
);
end = (0.5603,0.9888);
start = (0.4654,0.007);
};
};
closed = 1;
nodes = (
(77,24,l),
(77,700,l),
(53,700,l),
(53,24,l)
);
},
{
attr = {
gradient = {
colors = (
(
(64,255),
0
),
(
(191,255),
1
)
);
end = (0.9395,0.824);
start = (0.0304,0.1025);
};
};
closed = 1;
nodes = (
(196,353,l),
(196,377,l),
(77,377,l),
(77,353,l)
);
},
{
attr = {
gradient = {
colors = (
(
(64,255),
0
),
(
(191,255),
1
)
);
end = (0.9219,0.702);
start = (0.0502,0.2276);
};
};
closed = 1;
nodes = (
(197,676,l),
(220,699,l),
(220,700,l),
(77,700,l),
(77,676,l)
);
}
);
width = 240;
},
{
anchors = (
{
name = bottom;
pos = (442,0);
},
{
name = top;
pos = (456,730);
}
);
attr = {
color = "1";
};
layerId = m003;
shapes = (
{
attr = {
gradient = {
colors = (
(
(64,255),
0
),
(
(191,255),
1
)
);
end = (0.082,0.9228);
start = (0.9659,0.1);
};
};
closed = 1;
nodes = (
(801,0,l),
(801,244,l),
(35,244,l),
(35,243,l),
(237,0,l)
);
},
{
attr = {
gradient = {
colors = (
(
(64,255),
0
),
(
(191,255),
1
)
);
end = (0.4877,0.9217);
start = (0.5389,0.033);
};
};
closed = 1;
nodes = (
(289,244,l),
(289,730,l),
(35,730,l),
(35,244,l)
);
},
{
attr = {
gradient = {
colors = (
(
(64,255),
0
),
(
(191,255),
1
)
);
end = (0.8437,0.8454);
start = (0.0849,0.1153);
};
};
closed = 1;
nodes = (
(698,263,l),
(698,467,l),
(289,467,l),
(289,263,l)
);
},
{
attr = {
gradient = {
colors = (
(
(64,255),
0
),
(
(191,255),
1
)
);
end = (0.713,0.9264);
start = (0.0306,0.307);
};
};
closed = 1;
nodes = (
(650,486,l),
(852,729,l),
(852,730,l),
(289,730,l),
(289,486,l)
);
}
);
width = 832;
}
);
unicode = 69;
},
{
glyphname = Schwa;
kernRight = O;
lastChange = "2022-08-12 14:35:41 +0000";
layers = (
{
attr = {
color = "1";
};
layerId = "33AE93C6-B8B3-427A-A53B-F24970E840CE";
shapes = (
{
attr = {
gradient = {
colors = (
(
(64,255),
0
),
(
(191,255),
1
)
);
end = (0.9022,0.4068);
start = (0.0925,0.2157);
};
};
closed = 1;
nodes = (
(200,676,l),
(200,677,l),
(176,700,l),
(56,700,l),
(33,677,l),
(33,676,l)
);
},
{
attr = {
gradient = {
colors = (
(
(64,255),
0
),
(
(191,255),
1
)
);
end = (0.0917,0.866);
start = (0.8996,0.6391);
};
};
closed = 1;
nodes = (
(176,0,l),
(176,24,l),
(33,24,l),
(33,23,l),
(56,0,l)
);
},
{
attr = {
gradient = {
colors = (
(
(64,255),
0
),
(
(191,255),
1
)
);
end = (0.4736,0.8942);
start = (0.4745,0.0713);
};
};
closed = 1;
nodes = (
(57,24,l),
(57,347,l),
(56,347,l),
(33,324,l),
(33,24,l)
);
},
{
attr = {
gradient = {
colors = (
(
(64,255),
0
),
(
(191,255),
1
)
);
end = (0.8878,0.5878);
start = (0.0693,0.513);
};
};
closed = 1;
nodes = (
(176,323,l),
(176,347,l),
(57,347,l),
(57,323,l)
);
},
{
attr = {
gradient = {
colors = (
(
(64,255),
0
),
(
(191,255),
1
)
);
end = (0.4596,0.0641);
start = (0.5433,0.9659);
};
};
closed = 1;
nodes = (
(177,0,l),
(200,24,l),
(200,676,l),
(176,676,l),
(176,0,l)
);
}
);
width = 253;
},
{
attr = {
color = "1";
};
layerId = m003;
shapes = (
{
attr = {
gradient = {
colors = (
(
(64,255),
0
),
(
(191,255),
1
)
);
end = (0.7478,0.8617);
start = (0.0583,0.0502);
};
};
closed = 1;
nodes = (
(791,486,l),
(791,487,l),
(589,730,l),
(227,730,l),
(25,487,l),
(25,486,l)
);
},
{
attr = {
gradient = {
colors = (
(
(64,255),
0
),
(
(191,255),
1
)
);
end = (0.3541,0.2122);
start = (0.9654,0.9119);
};
};
closed = 1;
nodes = (
(537,0,l),
(537,244,l),
(25,244,l),
(25,243,l),
(227,0,l)
);
},
{
attr = {
gradient = {
colors = (
(
(64,255),
0
),
(
(191,255),
1
)
);
end = (0.9291,0.8367);
start = (0.1107,0.0655);
};
};
closed = 1;
nodes = (
(279,244,l),
(279,467,l),
(278,467,l),
(25,265,l),
(25,244,l)
);
},
{
attr = {
gradient = {
colors = (
(
(64,255),
0
),
(
(191,255),
1
)
);
end = (0.9313,0.1669);
start = (0.0923,0.8678);
};
};
closed = 1;
nodes = (
(537,263,l),
(537,467,l),
(279,467,l),
(279,263,l)
);
},
{
attr = {
gradient = {
colors = (
(
(64,255),
0
),
(
(191,255),
1
)
);
end = (0.6652,0.3427);
start = (0.1474,0.954);
};
};
closed = 1;
nodes = (
(538,0,l),
(791,202,l),
(791,486,l),
(537,486,l),
(537,0,l)
);
}
);
width = 816;
}
);
unicode = 399;
},
{
glyphname = F;
kernLeft = H;
lastChange = "2022-08-12 14:35:41 +0000";
layers = (
{
attr = {
color = "1";
};
layerId = "33AE93C6-B8B3-427A-A53B-F24970E840CE";
shapes = (
{
attr = {
gradient = {
colors = (
(
(64,255),
0
),
(
(191,255),
1
)
);
end = (0.8878,0.5878);
start = (0.0693,0.513);
};
};
closed = 1;
nodes = (
(197,676,l),
(220,699,l),
(220,700,l),
(77,700,l),
(77,676,l)
);
},
{
attr = {
gradient = {
colors = (
(
(64,255),
0
),
(
(191,255),
1
)
);
end = (0.2075,0.9607);
start = (0.6091,0.0797);
};
};
closed = 1;
nodes = (
(77,0,l),
(77,353,l),
(53,376,l),
(53,0,l)
);
},
{
attr = {
gradient = {
colors = (
(
(64,255),
0
),
(
(191,255),
1
)
);
end = (0.1309,0.7659);
start = (0.904,0.5091);
};
};
closed = 1;
nodes = (
(196,353,l),
(196,377,l),
(53,377,l),
(53,376,l),
(77,353,l)
);
},
{
attr = {
gradient = {
colors = (
(
(64,255),
0
),
(
(191,255),
1
)
);
end = (0.5074,0.9658);
start = (0.6091,0.0797);
};
};
closed = 1;
nodes = (
(77,377,l),
(77,700,l),
(53,700,l),
(53,377,l)
);
}
);
width = 220;
},
{
attr = {
color = "1";
};
layerId = m003;
shapes = (
{
attr = {
gradient = {
colors = (
(
(64,255),
0
),
(
(191,255),
1
)
);
end = (0.713,0.9264);
start = (0.0306,0.307);
};
};
closed = 1;
nodes = (
(630,486,l),
(832,729,l),
(832,730,l),
(289,730,l),
(289,486,l)
);
},
{
attr = {
gradient = {
colors = (
(
(64,255),
0
),
(
(191,255),
1
)
);
end = (0.0533,0.9289);
start = (0.896,0.1068);
};
};
closed = 1;
nodes = (
(289,0,l),
(289,212,l),
(35,415,l),
(35,0,l)
);
},
{
attr = {
gradient = {
colors = (
(
(64,255),
0
),
(
(191,255),
1
)
);
end = (0.2375,0.8411);
start = (0.9403,0.2295);
};
};
closed = 1;
nodes = (
(678,212,l),
(678,416,l),
(35,416,l),
(35,415,l),
(289,212,l)
);
},
{
attr = {
gradient = {
colors = (
(
(64,255),
0
),
(
(191,255),
1
)
);
end = (0.4877,0.9217);
start = (0.3698,0.0603);
};
};
closed = 1;
nodes = (
(289,416,l),
(289,730,l),
(35,730,l),
(35,416,l)
);
}
);
width = 827;
}
);
unicode = 70;
},
{
glyphname = G;
kernLeft = O;
lastChange = "2022-08-12 14:35:41 +0000";
layers = (
{
anchors = (
{
name = bottom;
pos = (146,0);
},
{
name = top;
pos = (138,700);
}
);
attr = {
color = "1";
};
layerId = "33AE93C6-B8B3-427A-A53B-F24970E840CE";
shapes = (
{
attr = {
gradient = {
colors = (
(
(64,255),
0
),
(
(191,255),
1
)
);
end = (0.8562,0.2904);
start = (0.0693,0.513);
};
};
closed = 1;
nodes = (
(220,676,l),
(220,677,l),
(197,700,l),
(77,700,l),
(77,676,l)
);
},
{
attr = {
gradient = {
colors = (
(
(191,255),
0
),
(
(64,255),
1
)
);
end = (0.8878,0.5878);
start = (0.1247,0.7286);
};
};
closed = 1;
nodes = (
(196,0,l),
(196,24,l),
(53,24,l),
(53,23,l),
(76,0,l)
);
},
{
attr = {
gradient = {
colors = (
(
(64,255),
0
),
(
(191,255),
1
)
);
end = (0.4877,0.9217);
start = (0.4333,0.0197);
};
};
closed = 1;
nodes = (
(77,24,l),
(77,700,l),
(76,700,l),
(53,677,l),
(53,24,l)
);
},
{
attr = {
gradient = {
colors = (
(
(191,255),
0
),
(
(64,255),
1
)
);
end = (0.9111,0.3057);
start = (0.0868,0.6251);
};
};
closed = 1;
nodes = (
(196,353,l),
(196,377,l),
(123,377,l),
(123,353,l)
);
},
{
attr = {
gradient = {
colors = (
(
(64,255),
0.01851
),
(
(191,255),
1
)
);
end = (0.4794,0.2384);
start = (0.2737,0.9568);
};
};
closed = 1;
nodes = (
(197,0,l),
(220,24,l),
(220,353,l),
(197,377,l),
(196,377,l),
(196,0,l)
);
}
);
width = 263;
},
{
anchors = (
{
name = bottom;
pos = (535,0);
},
{
name = top;
pos = (523,730);
}
);
attr = {
color = "1";
};
layerId = m003;
shapes = (
{
attr = {
gradient = {
colors = (
(
(64,255),
0
),
(
(191,255),
1
)
);
end = (0.9021,0.1753);
start = (0.0362,0.2212);
};
};
closed = 1;
nodes = (
(982,486,l),
(982,487,l),
(780,730,l),
(279,730,l),
(279,486,l)
);
},
{
attr = {
gradient = {
colors = (
(
(191,255),
0
),
(
(64,255),
1
)
);
end = (0.8878,0.5878);
start = (0.0987,0.8239);
};
};
closed = 1;
nodes = (
(728,0,l),
(728,244,l),
(25,244,l),
(25,243,l),
(227,0,l)
);
},
{
attr = {
gradient = {
colors = (
(
(64,255),
0
),
(
(191,255),
1
)
);
end = (0.9238,0.9109);
start = (0.4151,0.0326);
};
};
closed = 1;
nodes = (
(279,244,l),
(279,730,l),
(278,730,l),
(25,523,l),
(25,244,l)
);
},
{
attr = {
gradient = {
colors = (
(
(191,255),
0
),
(
(64,255),
1
)
);
end = (0.9081,0.4266);
start = (0.0373,0.848);
};
};
closed = 1;
nodes = (
(728,263,l),
(728,467,l),
(299,466,l),
(299,263,l)
);
},
{
attr = {
gradient = {
colors = (
(
(64,255),
0
),
(
(191,255),
1
)
);
end = (0.087,0.1686);
start = (0.8888,0.549);
};
};
closed = 1;
nodes = (
(729,0,l),
(982,197,l),
(982,254,l),
(729,467,l),
(728,467,l),
(728,0,l)
);
}
);
width = 1007;
}
);
unicode = 71;
},
{
glyphname = H;
lastChange = "2022-08-12 14:35:41 +0000";
layers = (
{
anchors = (
{
name = top;
pos = (146,700);
}
);
attr = {
color = "1";
};
layerId = "33AE93C6-B8B3-427A-A53B-F24970E840CE";
shapes = (
{
attr = {
gradient = {
colors = (
(
(64,255),
0
),
(
(191,255),
1
)
);
end = (0.4897,0.017);
start = (0.6619,0.9472);
};
};
closed = 1;
nodes = (
(240,0,l),
(240,700,l),
(216,700,l),
(216,0,l)
);
},
{
attr = {
gradient = {
colors = (
(
(64,255),
0
),
(
(191,255),
1
)
);
end = (0.3778,0.9756);
start = (0.5036,0.0521);
};
};
closed = 1;
nodes = (
(77,0,l),
(77,700,l),
(53,700,l),
(53,0,l)
);
},
{
attr = {
gradient = {
colors = (
(
(191,255),
0
),
(
(64,255),
1
)
);
end = (0.9392,0.4464);
start = (0.1037,0.4143);
};
};
closed = 1;
nodes = (
(216,353,l),
(216,377,l),
(77,377,l),
(77,353,l)
);
}
);
width = 293;
},
{
anchors = (
{
name = top;
pos = (466,730);
}
);
attr = {
color = "1";
};
layerId = m003;
shapes = (
{
attr = {
gradient = {
colors = (
(
(64,255),
0
),
(
(191,255),
1
)
);
end = (0.4056,0.1204);
start = (0.4192,0.8964);
};
};
closed = 1;
nodes = (
(892,0,l),
(892,730,l),
(638,730,l),
(638,0,l)
);
},
{
attr = {
gradient = {
colors = (
(
(64,255),
0
),
(
(191,255),
1
)
);
end = (0.4877,0.9217);
start = (0.41,0.0317);
};
};
closed = 1;
nodes = (
(289,0,l),
(289,730,l),
(35,730,l),
(35,0,l)
);
},
{
attr = {
gradient = {
colors = (
(
(191,255),
0
),
(
(64,255),
1
)
);
end = (0.9564,0.0975);
start = (0.0635,0.8418);
};
};
closed = 1;
nodes = (
(638,243,l),
(638,487,l),
(289,487,l),
(289,243,l)
);
}
);
width = 927;
}
);
unicode = 72;
},
{
glyphname = Hbar;
lastChange = "2022-08-12 14:35:41 +0000";
layers = (
{
attr = {
color = "1";
};
layerId = "33AE93C6-B8B3-427A-A53B-F24970E840CE";
shapes = (
{
attr = {
gradient = {
colors = (
(
(128,255),
0
),
(
(64,255),
0.22474
),
(
(191,255),
1
)
);
end = (0.9313,0.7093);
start = (0.0288,0.5148);
};
identifier = ID0x60000049aa00;
};
closed = 1;
nodes = (
(283,483,l),
(283,507,l),
(10,507,l),
(10,483,l)
);
},
{
ref = H;
}
);
width = 293;
},
{
attr = {
color = "1";
};
layerId = m003;
shapes = (
{
attr = {
gradient = {
colors = (
(
(128,255),
0
),
(
(64,255),
0.23247
),
(
(191,255),
1
)
);
end = (0.7409,0.4211);
start = (0.0119,0.4201);
};
identifier = ID0x600000498620;
};
closed = 1;
nodes = (
(997,519,l),
(997,693,l),
(20,693,l),
(20,519,l)
);
},
{
pos = (55,0);
ref = H;
}
);
width = 1017;
}
);
unicode = 294;
},
{
glyphname = I;
lastChange = "2022-08-12 14:35:41 +0000";
layers = (
{
anchors = (
{
name = bottom;
pos = (112,0);
},
{
name = top;
pos = (115,700);
}
);
attr = {
color = "1";
};
layerId = "33AE93C6-B8B3-427A-A53B-F24970E840CE";
shapes = (
{
attr = {
gradient = {
colors = (
(
(64,255),
0.01
),
(
(191,255),
1
)
);
end = (0.5356,0.9736);
start = (0.4095,0.0317);
};
};
closed = 1;
nodes = (
(102,0,l),
(125,24,l),
(125,700,l),
(124,700,l),
(101,676,l),
(101,0,l)
);
},
{
attr = {
gradient = {
colors = (
(
(64,255),
0
),
(
(191,255),
1
)
);
end = (0.0936,0.4983);
start = (0.9139,0.567);
};
};
closed = 1;
nodes = (
(101,0,l),
(101,24,l),
(21,24,l),
(21,0,l)
);
},
{
attr = {
gradient = {
colors = (
(
(64,255),
0
),
(
(191,255),
1
)
);
end = (0.9322,0.6034);
start = (0.1137,0.2133);
};
};
closed = 1;
nodes = (
(206,0,l),
(206,24,l),
(125,24,l),
(102,0,l)
);
},
{
attr = {
gradient = {
colors = (
(
(64,255),
0
),
(
(191,255),
1
)
);
end = (0.8476,0.6978);
start = (0.089,0.1962);
};
};
closed = 1;
nodes = (
(101,676,l),
(124,700,l),
(20,700,l),
(20,676,l)
);
},
{
attr = {
gradient = {
colors = (
(
(64,255),
0
),
(
(191,255),
1
)
);
end = (0.8283,0.4913);
start = (0.0822,0.3298);
};
};
closed = 1;
nodes = (
(205,676,l),
(205,700,l),
(125,700,l),
(125,676,l)
);
}
);
width = 226;
},
{
anchors = (
{
name = bottom;
pos = (340,0);
},
{
name = top;
pos = (351,730);
}
);
attr = {
color = "1";
};
layerId = m003;
shapes = (
{
attr = {
gradient = {
colors = (
(
(64,255),
0
),
(
(191,255),
1
)
);
end = (0.8981,0.9816);
start = (0.1139,0.0308);
};
};
closed = 1;
nodes = (
(298,0,l),
(500,244,l),
(500,730,l),
(448,730,l),
(246,486,l),
(246,0,l)
);
},
{
attr = {
gradient = {
colors = (
(
(64,255),
0
),
(
(191,255),
1
)
);
end = (0.064,0.9092);
start = (0.9468,0.0961);
};
};
closed = 1;
nodes = (
(246,0,l),
(246,244,l),
(25,244,l),
(25,0,l)
);
},
{
attr = {
gradient = {
colors = (
(
(64,255),
0
),
(
(191,255),
1
)
);
end = (0.9274,0.8435);
start = (0.0931,0.0721);
};
};
closed = 1;
nodes = (
(672,0,l),
(672,244,l),
(500,244,l),
(298,0,l)
);
},
{
attr = {
gradient = {
colors = (
(
(64,255),
0
),
(
(191,255),
1
)
);
end = (0.873,0.8624);
start = (0.0295,0.395);
};
};
closed = 1;
nodes = (
(246,486,l),
(448,730,l),
(25,730,l),
(25,486,l)
);
},
{
attr = {
gradient = {
colors = (
(
(64,255),
0
),
(
(191,255),
1
)
);
end = (0.872,0.9158);
start = (0.1029,0.1117);
};
};
closed = 1;
nodes = (
(671,486,l),
(671,730,l),
(500,730,l),
(500,486,l)
);
}
);
width = 697;
}
);
metricRight = "=|";
unicode = 73;
},
{
glyphname = IJ;
lastChange = "2022-08-17 11:08:24 +0000";
layers = (
{
attr = {
color = 1;
};
layerId = "33AE93C6-B8B3-427A-A53B-F24970E840CE";
shapes = (
{
attr = {
gradient = {
colors = (
(
(64,255),
0.01
),
(
(191,255),
1
)
);
end = (0.5356,0.9736);
start = (0.4095,0.0317);
};
identifier = ID0x7f9d1e2efc60;
};
closed = 1;
nodes = (
(72,0,l),
(95,24,l),
(95,700,l),
(94,700,l),
(71,676,l),
(71,0,l)
);
},
{
attr = {
gradient = {
colors = (
(
(64,255),
0
),
(
(191,255),
1
)
);
end = (0.0936,0.4983);
start = (0.9139,0.567);
};
identifier = ID0x7f9d1e2efc60;
};
closed = 1;
nodes = (
(71,0,l),
(71,24,l),
(21,24,l),
(21,0,l)
);
},
{
attr = {
gradient = {
colors = (
(
(64,255),
0
),
(
(191,255),
1
)
);
end = (0.9322,0.6034);
start = (0.1137,0.2133);
};
identifier = ID0x7f9d1e2efc60;
};
closed = 1;
nodes = (
(146,0,l),
(146,24,l),
(95,24,l),
(72,0,l)
);
},
{
attr = {
gradient = {
colors = (
(
(64,255),
0
),
(
(191,255),
1
)
);
end = (0.8476,0.6978);
start = (0.089,0.1962);
};
identifier = ID0x7f9d1e2efc60;
};
closed = 1;
nodes = (
(71,676,l),
(94,700,l),
(20,700,l),
(20,676,l)
);
},
{
attr = {
gradient = {
colors = (
(
(64,255),
0
),
(
(191,255),
1
)
);
end = (0.8283,0.4913);
start = (0.0822,0.3298);
};
identifier = ID0x7f9d1e2efc60;
};
closed = 1;
nodes = (
(146,676,l),
(146,700,l),
(95,700,l),
(95,676,l)
);
},
{
attr = {
gradient = {
colors = (
(
(64,255),
0.01
),
(
(191,255),
1
)
);
end = (0.667,0.9813);
start = (0.4817,0.0124);
};
identifier = ID0x7f9d1ddf5090;
};
closed = 1;
nodes = (
(270,24,l),
(270,700,l),
(269,700,l),
(246,676,l),
(246,24,l)
);
},
{
attr = {
gradient = {
colors = (
(
(64,255),
0
),
(
(191,255),
1
)
);
end = (0.9178,0.8177);
start = (0.0375,0.4117);
};
identifier = ID0x7f9d1ddf5090;
};
closed = 1;
nodes = (
(246,0,l),
(270,23,l),
(270,24,l),
(175,24,l),
(175,0,l)
);
},
{
attr = {
gradient = {
colors = (
(
(64,255),
0.01332
),
(
(191,255),
1
)
);
end = (0.8506,0.5671);
start = (0.0634,0.53);
};
identifier = ID0x7f9d1ddf5090;
};
closed = 1;
nodes = (
(246,676,l),
(269,700,l),
(175,700,l),
(175,676,l)
);
},
{
attr = {
gradient = {
colors = (
(
(64,255),
0
),
(
(191,255),
1
)
);
end = (0.8283,0.4913);
start = (0.0822,0.3298);
};
identifier = ID0x7f9d1e2efc60;
};
closed = 1;
nodes = (
(331,676,l),
(331,700,l),
(270,700,l),
(270,676,l)
);
}
);
width = 351;
},
{
attr = {
color = 1;
};
layerId = m003;
shapes = (
{
attr = {
gradient = {
colors = (
(
(64,255),
0
),
(
(191,255),
1
)
);
end = (0.8981,0.9816);
start = (0.1139,0.0308);
};
identifier = ID0x7f9d1d4aa3d0;
};
closed = 1;
nodes = (
(298,0,l),
(500,244,l),
(500,730,l),
(448,730,l),
(246,486,l),
(246,0,l)
);
},
{
attr = {
gradient = {
colors = (
(
(64,255),
0
),
(
(191,255),
1
)
);
end = (0.064,0.9092);
start = (0.9468,0.0961);
};
identifier = ID0x7f9d1d4aa3d0;
};
closed = 1;
nodes = (
(246,0,l),
(246,244,l),
(25,244,l),
(25,0,l)
);
},
{
attr = {
gradient = {
colors = (
(
(64,255),
0
),
(
(191,255),
1
)
);
end = (0.9274,0.8435);
start = (0.0931,0.0721);
};
identifier = ID0x7f9d1d4aa3d0;
};
closed = 1;
nodes = (
(672,0,l),
(672,244,l),
(500,244,l),
(298,0,l)
);
},
{
attr = {
gradient = {
colors = (
(
(64,255),
0
),
(
(191,255),
1
)
);
end = (0.873,0.8624);
start = (0.0295,0.395);
};
identifier = ID0x7f9d1d4aa3d0;
};
closed = 1;
nodes = (
(246,486,l),
(448,730,l),
(25,730,l),
(25,486,l)
);
},
{
attr = {
gradient = {
colors = (
(
(64,255),
0
),
(
(191,255),
1
)
);
end = (0.872,0.9158);
start = (0.1029,0.1117);
};
identifier = ID0x7f9d1d4aa3d0;
};
closed = 1;
nodes = (
(671,486,l),
(671,730,l),
(500,730,l),
(500,486,l)
);
},
{
attr = {
gradient = {
colors = (
(
(64,255),
0
),
(
(191,255),
1
)
);
end = (0.8955,0.9279);
start = (0.4882,0.0483);
};
identifier = ID0x7f9d1df91ba0;
};
closed = 1;
nodes = (
(1197,240,l),
(1197,730,l),
(1145,730,l),
(943,486,l),
(943,240,l)
);
},
{
attr = {
gradient = {
colors = (
(
(64,255),
0
),
(
(191,255),
1
)
);
end = (0.8296,0.8888);
start = (0.1245,0.1818);
};
identifier = ID0x7f9d1df91ba0;
};
closed = 1;
nodes = (
(995,-4,l),
(1197,239,l),
(1197,240,l),
(744,240,l),
(744,-4,l)
);
},
{
attr = {
gradient = {
colors = (
(
(64,255),
0
),
(
(191,255),
1
)
);
end = (0.8285,0.8924);
start = (0.089,0.1962);
};
identifier = ID0x7f9d1df91ba0;
};
closed = 1;
nodes = (
(943,486,l),
(1145,730,l),
(722,730,l),
(722,486,l)
);
},
{
attr = {
gradient = {
colors = (
(
(64,255),
0
),
(
(191,255),
1
)
);
end = (0.7658,0.909);
start = (0.21,0.0899);
};
identifier = ID0x7f9d1df91ba0;
};
closed = 1;
nodes = (
(1368,486,l),
(1368,730,l),
(1197,730,l),
(1197,486,l)
);
}
);
width = 1394;
}
);
metricLeft = I;
metricRight = J;
unicode = 306;
},
{
glyphname = J;
lastChange = "2022-08-12 14:35:41 +0000";
layers = (
{
anchors = (
{
name = top;
pos = (148,700);
}
);
attr = {
color = "1";
};
layerId = "33AE93C6-B8B3-427A-A53B-F24970E840CE";
shapes = (
{
attr = {
gradient = {
colors = (
(
(64,255),
0.01
),
(
(191,255),
1
)
);
end = (0.667,0.9813);
start = (0.4817,0.0124);
};
};
closed = 1;
nodes = (
(164,24,l),
(164,700,l),
(163,700,l),
(140,676,l),
(140,24,l)
);
},
{
attr = {
gradient = {
colors = (
(
(64,255),
0
),
(
(191,255),
1
)
);
end = (0.9178,0.8177);
start = (0.0375,0.4117);
};
};
closed = 1;
nodes = (
(140,0,l),
(164,23,l),
(164,24,l),
(20,24,l),
(20,0,l)
);
},
{
attr = {
gradient = {
colors = (
(
(64,255),
0.01332
),
(
(191,255),
1
)
);
end = (0.8506,0.5671);
start = (0.0634,0.53);
};
};
closed = 1;
nodes = (
(140,676,l),
(163,700,l),
(39,700,l),
(39,676,l)
);
},
{
attr = {
gradient = {
colors = (
(
(64,255),
0
),
(
(191,255),
1
)
);
end = (0.9233,0.428);
start = (0.0999,0.4684);
};
};
closed = 1;
nodes = (
(234,676,l),
(234,700,l),
(164,700,l),
(164,676,l)
);
}
);
width = 254;
},
{
anchors = (
{
name = top;
pos = (366,730);
}
);
attr = {
color = "1";
};
layerId = m003;
shapes = (
{
attr = {
gradient = {
colors = (
(
(64,255),
0
),
(
(191,255),
1
)
);
end = (0.8955,0.9279);
start = (0.4882,0.0483);
};
};
closed = 1;
nodes = (
(500,240,l),
(500,730,l),
(448,730,l),
(246,486,l),
(246,240,l)
);
},
{
attr = {
gradient = {
colors = (
(
(64,255),
0
),
(
(191,255),
1
)
);
end = (0.8296,0.8888);
start = (0.1245,0.1818);
};
};
closed = 1;
nodes = (
(298,-4,l),
(500,239,l),
(500,240,l),
(47,240,l),
(47,-4,l)
);
},
{
attr = {
gradient = {
colors = (
(
(64,255),
0
),
(
(191,255),
1
)
);
end = (0.8285,0.8924);
start = (0.089,0.1962);
};
};
closed = 1;
nodes = (
(246,486,l),
(448,730,l),
(25,730,l),
(25,486,l)
);
},
{
attr = {
gradient = {
colors = (
(
(64,255),
0
),
(
(191,255),
1
)
);
end = (0.7658,0.909);
start = (0.21,0.0899);
};
};
closed = 1;
nodes = (
(671,486,l),
(671,730,l),
(500,730,l),
(500,486,l)
);
}
);
width = 697;
}
);
unicode = 74;
},
{
glyphname = K;
kernLeft = H;
lastChange = "2022-08-12 14:35:41 +0000";
layers = (
{
anchors = (
{
name = bottom;
pos = (152,0);
}
);
attr = {
color = "1";
};
layerId = "33AE93C6-B8B3-427A-A53B-F24970E840CE";
shapes = (
{
attr = {
gradient = {
colors = (
(
(191,255),
0
),
(
(64,255),
1
)
);
end = (0.1697,0.8725);
start = (0.8535,0.0385);
};
};
closed = 1;
nodes = (
(273,0,l),
(273,1,l),
(183,373,l),
(163,353,l),
(247,0,l)
);
},
{
attr = {
gradient = {
colors = (
(
(64,255),
0
),
(
(191,255),
1
)
);
end = (0.3983,0.968);
start = (0.4359,0.0251);
};
};
closed = 1;
nodes = (
(77,0,l),
(77,700,l),
(53,700,l),
(53,0,l)
);
},
{
attr = {
gradient = {
colors = (
(
(64,255),
0
),
(
(191,255),
0.5
),
(
(64,255),
1
)
);
end = (0.0587,0.1922);
start = (0.973,0.54);
};
};
closed = 1;
nodes = (
(196,353,l),
(196,377,l),
(77,377,l),
(77,353,l)
);
},
{
attr = {
gradient = {
colors = (
(
(64,255),
0
),
(
(191,255),
1
)
);
end = (0.3795,0.0792);
start = (0.4852,0.9879);
};
};
closed = 1;
nodes = (
(197,353,l),
(220,376,l),
(220,700,l),
(196,700,l),
(196,353,l)
);
}
);
width = 296;
},
{
anchors = (
{
name = bottom;
pos = (435,0);
}
);
attr = {
color = "1";
};
layerId = m003;
shapes = (
{
attr = {
gradient = {
colors = (
(
(191,255),
0
),
(
(64,255),
1
)
);
end = (0.322,0.6301);
start = (0.7324,0.0443);
};
};
closed = 1;
nodes = (
(951,0,l),
(951,1,l),
(678,363,l),
(464,240,l),
(640,0,l)
);
},
{
attr = {
gradient = {
colors = (
(
(64,255),
0
),
(
(191,255),
1
)
);
end = (0.4877,0.9217);
start = (0.4181,0.0297);
};
};
closed = 1;
nodes = (
(289,0,l),
(289,730,l),
(35,730,l),
(35,0,l)
);
},
{
attr = {
gradient = {
colors = (
(
(64,255),
0
),
(
(191,255),
0.5
),
(
(64,255),
1
)
);
end = (0.0587,0.1922);
start = (0.9587,0.9427);
};
};
closed = 1;
nodes = (
(588,223,l),
(588,467,l),
(289,467,l),
(289,223,l)
);
},
{
attr = {
gradient = {
colors = (
(
(64,255),
0
),
(
(191,255),
1
)
);
end = (0.2746,0.29);
start = (0.4852,0.9879);
};
};
closed = 1;
nodes = (
(589,223,l),
(842,420,l),
(842,730,l),
(588,730,l),
(588,223,l)
);
}
);
width = 951;
}
);
unicode = 75;
},
{
glyphname = L;
kernLeft = U;
lastChange = "2022-08-12 14:35:41 +0000";
layers = (
{
anchors = (
{
name = bottom;
pos = (152,0);
},
{
name = top;
pos = (73,700);
}
);
attr = {
color = "1";
};
layerId = "33AE93C6-B8B3-427A-A53B-F24970E840CE";
shapes = (
{
attr = {
gradient = {
colors = (
(
(191,255),
0
),
(
(64,255),
1
)
);
end = (0.8878,0.5878);
start = (0.094,0.7367);
};
};
closed = 1;
nodes = (
(256,0,l),
(256,24,l),
(53,24,l),
(53,23,l),
(76,0,l)
);
},
{
attr = {
gradient = {
colors = (
(
(64,255),
0
),
(
(191,255),
1
)
);
end = (0.4877,0.9217);
start = (0.4416,0.0083);
};
};
closed = 1;
nodes = (
(77,24,l),
(77,700,l),
(53,700,l),
(53,24,l)
);
}
);
width = 256;
},
{
anchors = (
{
name = bottom;
pos = (445,0);
},
{
name = top;
pos = (173,730);
}
);
attr = {
color = "1";
};
layerId = m003;
shapes = (
{
attr = {
gradient = {
colors = (
(
(191,255),
0
),
(
(64,255),
1
)
);
end = (0.8878,0.5878);
start = (0.0929,0.8646);
};
};
closed = 1;
nodes = (
(768,1,l),
(768,245,l),
(35,245,l),
(35,244,l),
(237,1,l)
);
},
{
attr = {
gradient = {
colors = (
(
(64,255),
0
),
(
(191,255),
1
)
);
end = (0.4877,0.8996);
start = (0.3886,0.0761);
};
};
closed = 1;
nodes = (
(289,245,l),
(289,730,l),
(35,730,l),
(35,245,l)
);
}
);
width = 793;
}
);
unicode = 76;
},
{
glyphname = Lslash;
kernRight = L;
lastChange = "2022-08-12 14:35:41 +0000";
layers = (
{
attr = {
color = "1";
};
layerId = "33AE93C6-B8B3-427A-A53B-F24970E840CE";
shapes = (
{
attr = {
gradient = {
colors = (
(
(128,255),
0.03599
),
(
(64,255),
0.5044
),
(
(191,255),
1
)
);
end = (0.8839,0.9048);
start = (0.1039,0.0921);
};
identifier = ID0x60000049aa00;
};
closed = 1;
nodes = (
(166,423,l),
(166,424,l),
(150,441,l),
(43,312,l),
(43,311,l),
(59,294,l)
);
},
{
pos = (30,0);
ref = L;
}
);
width = 309;
},
{
attr = {
color = "1";
};
layerId = m003;
shapes = (
{
attr = {
gradient = {
colors = (
(
(128,255),
0
),
(
(64,255),
0.51565
),
(
(191,255),
1
)
);
end = (0.9498,0.912);
start = (0.0904,0.1467);
};
identifier = ID0x600000498620;
};
closed = 1;
nodes = (
(592,558,l),
(592,559,l),
(516,699,l),
(0,413,l),
(0,412,l),
(75,273,l)
);
},
{
pos = (105,0);
ref = L;
}
);
width = 888;
}
);
unicode = 321;
},
{
glyphname = M;
kernLeft = H;
kernRight = H;
lastChange = "2022-08-22 21:38:55 +0000";
layers = (
{
attr = {
color = "1";
};
layerId = "33AE93C6-B8B3-427A-A53B-F24970E840CE";
shapes = (
{
attr = {
gradient = {
colors = (
(
(64,255),
0
),
(
(191,255),
1
)
);
end = (0.1535,0.0956);
start = (0.7908,0.8237);
};
identifier = ID0x6000032b3f00;
};
closed = 1;
nodes = (
(221,-3,l),
(365,690,l),
(342,703,l),
(197,-3,l)
);
},
{
attr = {
gradient = {
colors = (
(
(64,255),
0
),
(
(191,255),
1
)
);
end = (0.4552,0.0101);
start = (0.4939,0.8363);
};
identifier = ID0x6000032b3f00;
};
closed = 1;
nodes = (
(77,0,l),
(77,655,l),
(53,699,l),
(53,0,l)
);
},
{
attr = {
gradient = {
colors = (
(
(64,255),
0
),
(
(191,255),
1
)
);
end = (0.1143,0.9602);
start = (0.8356,0.0842);
};
identifier = ID0x6000032b3f00;
};
closed = 1;
nodes = (
(221,-3,l),
(221,-2,l),
(77,703,l),
(76,703,l),
(53,699,l),
(197,-3,l)
);
},
{
attr = {
gradient = {
colors = (
(
(64,255),
0
),
(
(191,255),
1
)
);
end = (0.5275,0.9097);
start = (0.5198,0.0655);
};
identifier = ID0x6000032b3f00;
};
closed = 1;
nodes = (
(366,0,l),
(366,689,l),
(343,703,l),
(342,703,l),
(342,0,l)
);
}
);
width = 419;
},
{
attr = {
color = "1";
};
layerId = m003;
shapes = (
{
attr = {
gradient = {
colors = (
(
(64,255),
0
),
(
(191,255),
1
)
);
end = (0.3574,0.0672);
start = (0.6661,0.7801);
};
};
closed = 1;
nodes = (
(732,-6,l),
(1016,465,l),
(916,736,l),
(572,160,l)
);
},
{
attr = {
gradient = {
colors = (
(
(64,255),
0
),
(
(191,255),
1
)
);
end = (0.4857,0.026);
start = (0.3069,0.7383);
};
};
closed = 1;
nodes = (
(289,0,l),
(289,326,l),
(35,736,l),
(35,0,l)
);
},
{
attr = {
gradient = {
colors = (
(
(64,255),
0
),
(
(191,255),
1
)
);
end = (0.21,0.9718);
start = (0.7554,0.0226);
};
};
closed = 1;
nodes = (
(732,-6,l),
(732,-5,l),
(259,736,l),
(258,736,l),
(35,736,l),
(473,-6,l)
);
},
{
attr = {
gradient = {
colors = (
(
(64,255),
0
),
(
(191,255),
1
)
);
end = (0.4877,0.9217);
start = (0.4592,0.0534);
};
};
closed = 1;
nodes = (
(1170,0,l),
(1180,736,l),
(917,736,l),
(916,736,l),
(916,0,l)
);
}
);
width = 1215;
}
);
metricRight = "=|";
unicode = 77;
},
{
glyphname = N;
kernLeft = A;
kernRight = U;
lastChange = "2022-08-22 21:27:57 +0000";
layers = (
{
anchors = (
{
name = bottom;
pos = (165,0);
},
{
name = top;
pos = (168,700);
}
);
attr = {
color = "1";
};
layerId = "33AE93C6-B8B3-427A-A53B-F24970E840CE";
shapes = (
{
attr = {
gradient = {
colors = (
(
(64,255),
0
),
(
(191,255),
1
)
);
end = (0.5893,0.952);
start = (0.4027,0.1766);
};
};
closed = 1;
nodes = (
(260,700,l),
(236,700,l),
(236,46,l),
(260,11,l)
);
},
{
attr = {
gradient = {
colors = (
(
(64,255),
0
),
(
(191,255),
1
)
);
end = (0.5277,0.0483);
start = (0.4049,0.8356);
};
};
closed = 1;
nodes = (
(77,0,l),
(77,655,l),
(53,699,l),
(53,0,l)
);
},
{
attr = {
gradient = {
colors = (
(
(191,255),
0
),
(
(128,255),
0.50053
),
(
(191,255),
1
)
);
end = (0.0877,0.9608);
start = (0.9223,0.0402);
};
};
closed = 1;
nodes = (
(238,0,l),
(260,10,l),
(260,11,l),
(75,703,l),
(74,703,l),
(53,700,l),
(53,699,l),
(237,0,l)
);
}
);
width = 313;
},
{
anchors = (
{
name = bottom;
pos = (445,0);
},
{
name = top;
pos = (456,730);
}
);
attr = {
color = "1";
};
layerId = m003;
shapes = (
{
attr = {
gradient = {
colors = (
(
(64,255),
0
),
(
(191,255),
1
)
);
end = (0.8068,0.953);
start = (0.7184,0.2314);
};
};
closed = 1;
nodes = (
(862,730,l),
(608,730,l),
(608,397,l),
(862,172,l)
);
},
{
attr = {
gradient = {
colors = (
(
(64,255),
0
),
(
(191,255),
1
)
);
end = (0.3965,0.0184);
start = (0.404,0.7819);
};
};
closed = 1;
nodes = (
(289,0,l),
(289,345,l),
(35,571,l),
(35,0,l)
);
},
{
attr = {
gradient = {
colors = (
(
(191,255),
0
),
(
(128,255),
0.28166
),
(
(191,255),
1
)
);
end = (0.3193,0.8672);
start = (0.7846,0.0391);
};
};
closed = 1;
nodes = (
(683,-6,l),
(862,171,l),
(862,172,l),
(228,736,l),
(227,736,l),
(35,572,l),
(35,571,l),
(682,-6,l)
);
}
);
width = 897;
}
);
unicode = 78;
},
{
glyphname = Eng;
kernLeft = A;
kernRight = j;
lastChange = "2022-08-22 21:28:24 +0000";
layers = (
{
attr = {
color = "1";
};
layerId = "33AE93C6-B8B3-427A-A53B-F24970E840CE";
shapes = (
{
attr = {
gradient = {
colors = (
(
(64,255),
0
),
(
(191,255),
1
)
);
end = (0.2296,0.0026);
start = (0.3797,0.8177);
};
};
closed = 1;
nodes = (
(77,0,l),
(77,655,l),
(53,699,l),
(53,0,l)
);
},
{
attr = {
gradient = {
colors = (
(
(128,255),
0
),
(
(191,255),
1
)
);
end = (0.1743,0.8476);
start = (0.8115,0.1426);
};
};
closed = 1;
nodes = (
(237,0,l),
(259,1,l),
(259,2,l),
(75,703,l),
(74,703,l),
(53,700,l),
(53,699,l),
(236,0,l)
);
},
{
attr = {
gradient = {
colors = (
(
(64,255),
0
),
(
(191,255),
1
)
);
end = (0.4898,0.9532);
start = (0.4881,0.0072);
};
};
closed = 1;
nodes = (
(260,-176,l),
(260,700,l),
(236,700,l),
(236,-176,l)
);
},
{
attr = {
gradient = {
colors = (
(
(64,255),
0
),
(
(191,255),
1
)
);
end = (0.6641,0.8052);
start = (0.0668,0.3194);
};
};
closed = 1;
nodes = (
(236,-200,l),
(260,-177,l),
(260,-176,l),
(196,-176,l),
(196,-200,l)
);
}
);
width = 313;
},
{
attr = {
color = "1";
};
layerId = m003;
shapes = (
{
attr = {
gradient = {
colors = (
(
(64,255),
0
),
(
(191,255),
1
)
);
end = (0.2402,0.0285);
start = (0.8329,0.6117);
};
};
closed = 1;
nodes = (
(279,0,l),
(279,345,l),
(25,571,l),
(25,0,l)
);
},
{
attr = {
gradient = {
colors = (
(
(128,255),
0
),
(
(191,255),
1
)
);
end = (0.2213,0.9006);
start = (0.5818,0.3044);
};
};
closed = 1;
nodes = (
(673,-6,l),
(852,171,l),
(852,172,l),
(218,736,l),
(217,736,l),
(25,572,l),
(25,571,l),
(672,-6,l)
);
},
{
attr = {
gradient = {
colors = (
(
(64,255),
0
),
(
(191,255),
1
)
);
end = (0.8068,0.953);
start = (0.7362,0.1318);
};
};
closed = 1;
nodes = (
(852,-24,l),
(852,730,l),
(598,730,l),
(598,-24,l)
);
},
{
attr = {
gradient = {
colors = (
(
(64,255),
0
),
(
(191,255),
1
)
);
end = (0.9293,0.9316);
start = (0.1245,0.1818);
};
};
closed = 1;
nodes = (
(650,-268,l),
(852,-25,l),
(852,-24,l),
(469,-24,l),
(469,-268,l)
);
}
);
width = 877;
}
);
unicode = 330;
},
{
glyphname = O;
kernLeft = O;
kernRight = O;
lastChange = "2022-08-12 14:35:41 +0000";
layers = (
{
anchors = (
{
name = bottom;
pos = (142,0);
},
{
name = horn;
pos = (197,700);
},
{
name = top;
pos = (138,700);
}
);
attr = {
color = "1";
};
layerId = "33AE93C6-B8B3-427A-A53B-F24970E840CE";
shapes = (
{
attr = {
gradient = {
colors = (
(
(64,255),
0
),
(
(191,255),
1
)
);
end = (0.8257,0.4756);
start = (0.0693,0.513);
};
};
closed = 1;
nodes = (
(220,676,l),
(220,677,l),
(197,700,l),
(77,700,l),
(77,676,l)
);
},
{
attr = {
gradient = {
colors = (
(
(191,255),
0
),
(
(64,255),
1
)
);
end = (0.8878,0.5878);
start = (0.1177,0.5944);
};
};
closed = 1;
nodes = (
(196,0,l),
(196,24,l),
(53,24,l),
(53,23,l),
(76,0,l)
);
},
{
attr = {
gradient = {
colors = (
(
(64,255),
0
),
(
(191,255),
1
)
);
end = (0.4877,0.9217);
start = (0.4943,0.0237);
};
};
closed = 1;
nodes = (
(77,24,l),
(77,700,l),
(76,700,l),
(53,677,l),
(53,24,l)
);
},
{
attr = {
gradient = {
colors = (
(
(64,255),
0
),
(
(191,255),
1
)
);
end = (0.4166,0.0934);
start = (0.4192,0.8964);
};
};
closed = 1;
nodes = (
(197,0,l),
(220,23,l),
(220,676,l),
(196,676,l),
(196,0,l)
);
}
);
width = 273;
},
{
anchors = (
{
name = bottom;
pos = (452,0);
},
{
name = horn;
pos = (680,730);
},
{
name = top;
pos = (476,730);
}
);
attr = {
color = "1";
};
layerId = m003;
shapes = (
{
attr = {
gradient = {
colors = (
(
(64,255),
0
),
(
(191,255),
1
)
);
end = (0.8449,0.2743);
start = (0.0693,0.513);
};
};
closed = 1;
nodes = (
(882,486,l),
(882,487,l),
(680,730,l),
(279,730,l),
(279,486,l)
);
},
{
attr = {
gradient = {
colors = (
(
(191,255),
0
),
(
(64,255),
1
)
);
end = (0.8878,0.5878);
start = (0.1319,0.7967);
};
};
closed = 1;
nodes = (
(628,0,l),
(628,244,l),
(25,244,l),
(25,243,l),
(227,0,l)
);
},
{
attr = {
gradient = {
colors = (
(
(64,255),
0
),
(
(191,255),
1
)
);
end = (0.8353,0.8099);
start = (0.4124,0.0805);
};
};
closed = 1;
nodes = (
(279,244,l),
(279,730,l),
(278,730,l),
(25,523,l),
(25,244,l)
);
},
{
attr = {
gradient = {
colors = (
(
(64,255),
0
),
(
(191,255),
1
)
);
end = (0.1769,0.2019);
start = (0.4192,0.8964);
};
};
closed = 1;
nodes = (
(629,0,l),
(882,197,l),
(882,486,l),
(628,486,l),
(628,0,l)
);
}
);
width = 907;
}
);
unicode = 79;
},
{
glyphname = Oslash;
kernLeft = O;
kernRight = O;
lastChange = "2022-08-12 14:35:41 +0000";
layers = (
{
anchors = (
{
name = top;
pos = (138,700);
}
);
attr = {
color = "1";
};
layerId = "33AE93C6-B8B3-427A-A53B-F24970E840CE";
shapes = (
{
attr = {
gradient = {
colors = (
(
(128,255),
0
),
(
(191,255),
0.23101
),
(
(128,255),
1
)
);
end = (0.9324,0.978);
start = (0.0453,0.0148);
};
};
closed = 1;
nodes = (
(43,0,l),
(253,699,l),
(253,700,l),
(230,700,l),
(20,1,l),
(20,0,l)
);
},
{
attr = {
gradient = {
colors = (
(
(191,255),
0
),
(
(64,255),
1
)
);
end = (0.8878,0.5878);
start = (0.1494,0.6673);
};
};
closed = 1;
nodes = (
(196,0,l),
(196,24,l),
(53,24,l),
(53,23,l),
(76,0,l)
);
},
{
attr = {
gradient = {
colors = (
(
(64,255),
0
),
(
(191,255),
1
)
);
end = (0.3686,0.9567);
start = (0.5317,0.0142);
};
};
closed = 1;
nodes = (
(77,24,l),
(77,700,l),
(76,700,l),
(53,677,l),
(53,24,l)
);
},
{
attr = {
gradient = {
colors = (
(
(64,255),
0
),
(
(191,255),
1
)
);
end = (0.6063,0.0597);
start = (0.3197,0.9733);
};
};
closed = 1;
nodes = (
(197,0,l),
(220,23,l),
(220,676,l),
(196,676,l),
(196,0,l)
);
},
{
attr = {
gradient = {
colors = (
(
(64,255),
0
),
(
(191,255),
1
)
);
end = (0.8627,0.4084);
start = (0.0693,0.513);
};
};
closed = 1;
nodes = (
(220,676,l),
(220,677,l),
(197,700,l),
(77,700,l),
(77,676,l)
);
}
);
width = 273;
},
{
anchors = (
{
name = top;
pos = (478,730);
}
);
attr = {
color = "1";
};
layerId = m003;
shapes = (
{
attr = {
gradient = {
colors = (
(
(128,255),
0
),
(
(191,255),
0.3076
),
(
(128,255),
1
)
);
end = (0.92,0.7151);
start = (0.0742,0.0315);
};
};
closed = 1;
nodes = (
(155,0,l),
(867,729,l),
(867,730,l),
(754,730,l),
(42,2,l),
(42,0,l)
);
},
{
attr = {
gradient = {
colors = (
(
(191,255),
0
),
(
(64,255),
1
)
);
end = (0.8878,0.5878);
start = (0.1153,0.846);
};
};
closed = 1;
nodes = (
(628,0,l),
(628,244,l),
(25,244,l),
(25,243,l),
(227,0,l)
);
},
{
attr = {
gradient = {
colors = (
(
(64,255),
0
),
(
(191,255),
1
)
);
end = (0.8842,0.8852);
start = (0.3297,0.0673);
};
};
closed = 1;
nodes = (
(279,244,l),
(279,730,l),
(278,730,l),
(25,523,l),
(25,244,l)
);
},
{
attr = {
gradient = {
colors = (
(
(64,255),
0
),
(
(191,255),
1
)
);
end = (0.1331,0.159);
start = (0.4192,0.8964);
};
};
closed = 1;
nodes = (
(629,0,l),
(882,197,l),
(882,486,l),
(628,486,l),
(628,0,l)
);
},
{
attr = {
gradient = {
colors = (
(
(64,255),
0
),
(
(191,255),
1
)
);
end = (0.8733,0.8518);
start = (0.0693,0.513);
};
};
closed = 1;
nodes = (
(882,486,l),
(882,487,l),
(680,730,l),
(279,730,l),
(279,486,l)
);
}
);
width = 907;
}
);
unicode = 216;
},
{
glyphname = Otildemacron;
kernLeft = O;
kernRight = O;
lastChange = "2022-08-12 14:35:41 +0000";
layers = (
{
attr = {
color = "1";
};
layerId = "33AE93C6-B8B3-427A-A53B-F24970E840CE";
shapes = (
{
ref = O;
},
{
attr = {
gradient = {
colors = (
(
(64,255),
0
),
(
(191,255),
1
)
);
end = (0.2296,0.0609);
start = (0.2638,0.7997);
};
identifier = ID0x600000c465a0;
};
closed = 1;
nodes = (
(94,749,l),
(94,801,l),
(70,800,l),
(70,749,l)
);
},
{
attr = {
gradient = {
colors = (
(
(64,255),
0
),
(
(191,255),
1
)
);
end = (0.8068,0.953);
start = (0.8358,0.1821);
};
identifier = ID0x600000c465a0;
};
closed = 1;
nodes = (
(189,758,l),
(189,810,l),
(165,810,l),
(165,758,l)
);
},
{
attr = {
gradient = {
colors = (
(
(191,255),
0
),
(
(64,255),
0.54765
),
(
(191,255),
1
)
);
end = (0.2125,0.9217);
start = (0.8187,0.0914);
};
identifier = ID0x600000c465a0;
};
closed = 1;
nodes = (
(167,748,l),
(189,757,l),
(189,758,l),
(93,810,l),
(92,810,l),
(70,801,l),
(70,800,l),
(166,748,l)
);
},
{
attr = {
gradient = {
colors = (
(
(191,255),
0
),
(
(64,255),
1
)
);
end = (0.935,0.5346);
start = (0.0779,0.428);
};
identifier = ID0x600000c46680;
};
closed = 1;
nodes = (
(209,848,l),
(209,872,l),
(59,872,l),
(59,848,l)
);
}
);
width = 273;
},
{
attr = {
color = "1";
};
layerId = m003;
shapes = (
{
ref = O;
},
{
attr = {
gradient = {
colors = (
(
(64,255),
0
),
(
(191,255),
1
)
);
end = (0.9046,0.1295);
start = (0.0635,0.6246);
};
identifier = ID0x6000041910a0;
};
closed = 1;
nodes = (
(379,758,l),
(379,835,l),
(259,824,l),
(259,758,l)
);
},
{
attr = {
gradient = {
colors = (
(
(64,255),
0
),
(
(191,255),
1
)
);
end = (0.8916,0.8904);
start = (0.0709,0.7225);
};
identifier = ID0x6000041910a0;
};
closed = 1;
nodes = (
(688,796,l),
(688,870,l),
(568,870,l),
(568,777,l)
);
},
{
attr = {
gradient = {
colors = (
(
(191,255),
0
),
(
(64,255),
0.52095
),
(
(191,255),
1
)
);
end = (0.2442,0.9343);
start = (0.7928,0.0918);
};
identifier = ID0x6000041910a0;
};
closed = 1;
nodes = (
(596,751,l),
(688,796,l),
(688,817,l),
(370,874,l),
(369,874,l),
(259,825,l),
(259,814,l),
(595,751,l)
);
},
{
attr = {
gradient = {
colors = (
(
(191,255),
0
),
(
(64,255),
1
)
);
end = (0.9395,0.6479);
start = (0.0509,0.175);
};
identifier = ID0x60000065c0e0;
};
closed = 1;
nodes = (
(688,898,l),
(688,980,l),
(259,980,l),
(259,898,l)
);
}
);
width = 907;
}
);
unicode = 556;
},
{
glyphname = OE;
kernLeft = O;
kernRight = E;
lastChange = "2022-08-12 14:35:41 +0000";
layers = (
{
attr = {
color = "1";
};
layerId = "33AE93C6-B8B3-427A-A53B-F24970E840CE";
shapes = (
{
attr = {
gradient = {
colors = (
(
(191,255),
0
),
(
(64,255),
1
)
);
end = (0.8823,0.4707);
start = (0.0924,0.6684);
};
};
closed = 1;
nodes = (
(196,0,l),
(220,24,l),
(53,24,l),
(53,23,l),
(76,0,l)
);
},
{
attr = {
gradient = {
colors = (
(
(64,255),
0
),
(
(191,255),
1
)
);
end = (0.4877,0.9217);
start = (0.4738,0.0091);
};
};
closed = 1;
nodes = (
(77,24,l),
(77,700,l),
(76,700,l),
(53,677,l),
(53,24,l)
);
},
{
attr = {
gradient = {
colors = (
(
(191,255),
0
),
(
(64,255),
1
)
);
end = (0.1468,0.6894);
start = (0.9479,0.4944);
};
};
closed = 1;
nodes = (
(363,0,l),
(363,24,l),
(196,24,l),
(196,23,l),
(220,0,l)
);
},
{
attr = {
gradient = {
colors = (
(
(64,255),
0
),
(
(191,255),
1
)
);
end = (0.676,0.0071);
start = (0.4452,0.92);
};
};
closed = 1;
nodes = (
(220,24,l),
(220,676,l),
(196,676,l),
(196,24,l)
);
},
{
attr = {
gradient = {
colors = (
(
(64,255),
0
),
(
(191,255),
1
)
);
end = (0.9073,0.2951);
start = (0.0693,0.513);
};
};
closed = 1;
nodes = (
(220,676,l),
(220,677,l),
(197,700,l),
(77,700,l),
(77,676,l)
);
},
{
attr = {
gradient = {
colors = (
(
(64,255),
0
),
(
(191,255),
1
)
);
end = (0.8878,0.5878);
start = (0.0693,0.513);
};
};
closed = 1;
nodes = (
(339,353,l),
(339,377,l),
(220,377,l),
(220,353,l)
);
},
{
attr = {
gradient = {
colors = (
(
(64,255),
0
),
(
(191,255),
1
)
);
end = (0.8878,0.5878);
start = (0.0758,0.8039);
};
};
closed = 1;
nodes = (
(340,676,l),
(363,699,l),
(363,700,l),
(197,700,l),
(220,676,l)
);
}
);
width = 423;
},
{
attr = {
color = "1";
};
layerId = m003;
shapes = (
{
attr = {
gradient = {
colors = (
(
(191,255),
0
),
(
(64,255),
1
)
);
end = (0.7926,0.448);
start = (0.1079,0.811);
};
};
closed = 1;
nodes = (
(628,0,l),
(882,244,l),
(25,244,l),
(25,243,l),
(227,0,l)
);
},
{
attr = {
gradient = {
colors = (
(
(64,255),
0
),
(
(191,255),
1
)
);
end = (0.9057,0.8851);
start = (0.6114,0.0459);
};
};
closed = 1;
nodes = (
(279,244,l),
(279,730,l),
(278,730,l),
(25,523,l),
(25,244,l)
);
},
{
attr = {
gradient = {
colors = (
(
(191,255),
0
),
(
(64,255),
1
)
);
end = (0.2048,0.4113);
start = (0.9731,0.0568);
};
};
closed = 1;
nodes = (
(1355,0,l),
(1355,244,l),
(628,244,l),
(628,243,l),
(830,0,l)
);
},
{
attr = {
gradient = {
colors = (
(
(64,255),
0
),
(
(191,255),
1
)
);
end = (0.8963,0.1031);
start = (0.0882,0.8605);
};
};
closed = 1;
nodes = (
(882,244,l),
(882,486,l),
(628,486,l),
(628,244,l)
);
},
{
attr = {
gradient = {
colors = (
(
(64,255),
0
),
(
(191,255),
1
)
);
end = (0.8431,0.1338);
start = (0.0693,0.513);
};
};
closed = 1;
nodes = (
(882,486,l),
(882,487,l),
(680,730,l),
(279,730,l),
(279,486,l)
);
},
{
attr = {
gradient = {
colors = (
(
(64,255),
0
),
(
(191,255),
1
)
);
end = (0.8437,0.8454);
start = (0.1413,0.085);
};
};
closed = 1;
nodes = (
(1252,263,l),
(1252,467,l),
(882,467,l),
(882,263,l)
);
},
{
attr = {
gradient = {
colors = (
(
(64,255),
0
),
(
(191,255),
1
)
);
end = (0.7292,0.9344);
start = (0.0811,0.8643);
};
};
closed = 1;
nodes = (
(1204,486,l),
(1406,729,l),
(1406,730,l),
(680,730,l),
(882,486,l)
);
}
);
width = 1431;
}
);
unicode = 338;
},
{
color = 3;
glyphname = P;
kernLeft = H;
lastChange = "2022-08-12 14:35:41 +0000";
layers = (
{
attr = {
color = "1";
};
layerId = "33AE93C6-B8B3-427A-A53B-F24970E840CE";
shapes = (
{
attr = {
gradient = {
colors = (
(
(64,255),
0
),
(
(191,255),
1
)
);
end = (0.4497,0.9458);
start = (0.5187,0.016);
};
};
closed = 1;
nodes = (
(77,0,l),
(77,700,l),
(76,700,l),
(53,677,l),
(53,0,l)
);
},
{
attr = {
gradient = {
colors = (
(
(64,255),
0
),
(
(191,255),
1
)
);
end = (0.0541,0.7044);
start = (0.9432,0.3036);
};
};
closed = 1;
nodes = (
(197,353,l),
(197,377,l),
(77,377,l),
(77,353,l)
);
},
{
attr = {
gradient = {
colors = (
(
(64,255),
0
),
(
(191,255),
1
)
);
end = (0.4056,0.1204);
start = (0.4192,0.8964);
};
};
closed = 1;
nodes = (
(198,353,l),
(221,376,l),
(221,676,l),
(197,676,l),
(197,353,l)
);
},
{
attr = {
gradient = {
colors = (
(
(64,255),
0
),
(
(191,255),
1
)
);
end = (0.8444,0.4221);
start = (0.0693,0.513);
};
};
closed = 1;
nodes = (
(221,676,l),
(221,677,l),
(198,700,l),
(77,700,l),
(77,676,l)
);
}
);
width = 244;
},
{
attr = {
color = "1";
};
layerId = m003;
shapes = (
{
attr = {
gradient = {
colors = (
(
(64,255),
0
),
(
(191,255),
1
)
);
end = (0.4877,0.9217);
start = (0.4228,0.0383);
};
};
closed = 1;
nodes = (
(289,0,l),
(289,730,l),
(288,730,l),
(35,730,l),
(35,0,l)
);
},
{
attr = {
gradient = {
colors = (
(
(64,255),
0
),
(
(191,255),
1
)
);
end = (0.0611,0.2054);
start = (0.8561,0.8448);
};
};
closed = 1;
nodes = (
(638,173,l),
(638,417,l),
(289,417,l),
(289,173,l)
);
},
{
attr = {
gradient = {
colors = (
(
(64,255),
0
),
(
(191,255),
1
)
);
end = (0.2746,0.29);
start = (0.4192,0.8964);
};
};
closed = 1;
nodes = (
(639,173,l),
(892,370,l),
(892,486,l),
(638,486,l),
(638,173,l)
);
},
{
attr = {
gradient = {
colors = (
(
(64,255),
0
),
(
(191,255),
1
)
);
end = (0.8229,0.2994);
start = (0.0693,0.513);
};
};
closed = 1;
nodes = (
(892,486,l),
(892,487,l),
(690,730,l),
(289,730,l),
(289,486,l)
);
}
);
width = 902;
}
);
unicode = 80;
},
{
glyphname = Thorn;
kernLeft = H;
lastChange = "2022-08-12 14:35:41 +0000";
layers = (
{
attr = {
color = "1";
};
layerId = "33AE93C6-B8B3-427A-A53B-F24970E840CE";
shapes = (
{
attr = {
gradient = {
colors = (
(
(64,255),
0
),
(
(191,255),
1
)
);
end = (0.257,0.9316);
start = (0.5328,0.0193);
};
};
closed = 1;
nodes = (
(77,0,l),
(77,700,l),
(53,700,l),
(53,0,l)
);
},
{
attr = {
gradient = {
colors = (
(
(191,255),
0
),
(
(64,255),
1
)
);
end = (0.8878,0.5878);
start = (0.0693,0.513);
};
};
closed = 1;
nodes = (
(197,193,l),
(197,217,l),
(77,217,l),
(77,193,l)
);
},
{
attr = {
gradient = {
colors = (
(
(64,255),
0
),
(
(191,255),
1
)
);
end = (0.4056,0.1204);
start = (0.4192,0.8964);
};
};
closed = 1;
nodes = (
(198,193,l),
(221,216,l),
(221,516,l),
(197,516,l),
(197,193,l)
);
},
{
attr = {
gradient = {
colors = (
(
(64,255),
0
),
(
(191,255),
1
)
);
end = (0.8514,0.4774);
start = (0.0693,0.513);
};
};
closed = 1;
nodes = (
(221,516,l),
(221,517,l),
(198,540,l),
(77,540,l),
(77,516,l)
);
}
);
width = 244;
},
{
attr = {
color = "1";
};
layerId = m003;
shapes = (
{
attr = {
gradient = {
colors = (
(
(64,255),
0
),
(
(191,255),
1
)
);
end = (0.4877,0.9217);
start = (0.4277,0.032);
};
};
closed = 1;
nodes = (
(279,0,l),
(279,730,l),
(25,730,l),
(25,0,l)
);
},
{
attr = {
gradient = {
colors = (
(
(191,255),
0
),
(
(64,255),
1
)
);
end = (0.9304,0.1689);
start = (0.0791,0.6527);
};
};
closed = 1;
nodes = (
(628,93,l),
(628,337,l),
(279,337,l),
(279,93,l)
);
},
{
attr = {
gradient = {
colors = (
(
(64,255),
0
),
(
(191,255),
1
)
);
end = (0.2746,0.29);
start = (0.4192,0.8964);
};
};
closed = 1;
nodes = (
(629,93,l),
(882,290,l),
(882,406,l),
(628,406,l),
(628,93,l)
);
},
{
attr = {
gradient = {
colors = (
(
(64,255),
0
),
(
(191,255),
1
)
);
end = (0.8436,0.258);
start = (0.0693,0.513);
};
};
closed = 1;
nodes = (
(882,406,l),
(882,407,l),
(680,650,l),
(279,650,l),
(279,406,l)
);
}
);
width = 897;
}
);
unicode = 222;
},
{
glyphname = Q;
kernLeft = O;
kernRight = A;
lastChange = "2022-08-12 14:35:41 +0000";
layers = (
{
attr = {
color = "1";
};
layerId = "33AE93C6-B8B3-427A-A53B-F24970E840CE";
shapes = (
{
attr = {
gradient = {
colors = (
(
(64,255),
0
),
(
(191,255),
1
)
);
end = (0.4056,0.1204);
start = (0.4192,0.8964);
};
};
closed = 1;
nodes = (
(220,24,l),
(220,676,l),
(196,676,l),
(196,24,l),
(215,24,l),
(217,20,l)
);
},
{
attr = {
gradient = {
colors = (
(
(191,255),
0
),
(
(64,255),
1
)
);
end = (0.8878,0.5878);
start = (0.0693,0.513);
};
};
closed = 1;
nodes = (
(309,0,l),
(309,1,l),
(286,24,l),
(53,24,l),
(53,23,l),
(76,0,l)
);
},
{
attr = {
gradient = {
colors = (
(
(64,255),
0
),
(
(191,255),
1
)
);
end = (0.4877,0.9217);
start = (0.4501,0.0127);
};
};
closed = 1;
nodes = (
(77,24,l),
(77,700,l),
(76,700,l),
(53,677,l),
(53,24,l)
);
},
{
attr = {
gradient = {
colors = (
(
(64,255),
0
),
(
(191,255),
1
)
);
end = (0.8527,0.3839);
start = (0.0693,0.513);
};
};
closed = 1;
nodes = (
(220,676,l),
(220,677,l),
(197,700,l),
(77,700,l),
(77,676,l)
);
}
);
width = 294;
},
{
attr = {
color = "1";
};
layerId = m003;
shapes = (
{
attr = {
gradient = {
colors = (
(
(64,255),
0
),
(
(191,255),
1
)
);
end = (0.4056,0.1204);
start = (0.4192,0.8964);
};
};
closed = 1;
nodes = (
(882,193,l),
(882,486,l),
(628,486,l),
(628,240,l),
(739,240,l),
(820,144,l)
);
},
{
attr = {
gradient = {
colors = (
(
(191,255),
0
),
(
(64,255),
1
)
);
end = (0.8568,0.7522);
start = (0.0709,0.8681);
};
};
closed = 1;
nodes = (
(941,0,l),
(941,1,l),
(739,240,l),
(25,240,l),
(25,239,l),
(227,0,l)
);
},
{
attr = {
gradient = {
colors = (
(
(64,255),
0
),
(
(191,255),
1
)
);
end = (0.8522,0.8904);
start = (0.4006,0.0639);
};
};
closed = 1;
nodes = (
(279,240,l),
(279,730,l),
(278,730,l),
(25,523,l),
(25,240,l)
);
},
{
attr = {
gradient = {
colors = (
(
(64,255),
0
),
(
(191,255),
1
)
);
end = (0.8394,0.2332);
start = (0.0693,0.513);
};
};
closed = 1;
nodes = (
(882,486,l),
(882,487,l),
(680,730,l),
(279,730,l),
(279,486,l)
);
}
);
width = 941;
}
);
unicode = 81;
},
{
glyphname = R;
kernLeft = H;
lastChange = "2022-08-17 11:05:00 +0000";
layers = (
{
anchors = (
{
name = bottom;
pos = (142,0);
},
{
name = top;
pos = (138,700);
}
);
attr = {
color = "1";
};
layerId = "33AE93C6-B8B3-427A-A53B-F24970E840CE";
shapes = (
{
attr = {
gradient = {
colors = (
(
(64,255),
0
),
(
(191,255),
1
)
);
end = (0.257,0.9801);
start = (0.4133,0.0389);
};
};
closed = 1;
nodes = (
(77,0,l),
(77,700,l),
(53,700,l),
(53,0,l)
);
},
{
attr = {
gradient = {
colors = (
(
(64,255),
0
),
(
(191,255),
1
)
);
end = (0.8401,0.057);
start = (0.3004,0.7133);
};
};
closed = 1;
nodes = (
(253,0,l),
(253,1,l),
(163,373,l),
(143,353,l),
(227,0,l)
);
},
{
attr = {
gradient = {
colors = (
(
(64,255),
0
),
(
(191,255),
1
)
);
end = (0.1261,0.4219);
start = (0.884,0.6151);
};
};
closed = 1;
nodes = (
(196,353,l),
(196,377,l),
(77,377,l),
(77,353,l)
);
},
{
attr = {
gradient = {
colors = (
(
(64,255),
0
),
(
(191,255),
1
)
);
end = (0.4056,0.1204);
start = (0.4192,0.8964);
};
};
closed = 1;
nodes = (
(197,353,l),
(220,376,l),
(220,676,l),
(196,676,l),
(196,353,l)
);
},
{
attr = {
gradient = {
colors = (
(
(64,255),
0
),
(
(191,255),
1
)
);
end = (0.8504,0.4003);
start = (0.0693,0.513);
};
};
closed = 1;
nodes = (
(220,676,l),
(220,677,l),
(197,700,l),
(77,700,l),
(77,676,l)
);
}
);
width = 276;
},
{
anchors = (
{
name = bottom;
pos = (424,0);
},
{
name = top;
pos = (416,730);
}
);
attr = {
color = "1";
};
layerId = m003;
shapes = (
{
attr = {
gradient = {
colors = (
(
(64,255),
0
),
(
(191,255),
1
)
);
end = (0.4877,0.9217);
start = (0.4397,0.0175);
};
};
closed = 1;
nodes = (
(289,0,l),
(289,730,l),
(35,730,l),
(35,0,l)
);
},
{
attr = {
gradient = {
colors = (
(
(64,255),
0
),
(
(191,255),
1
)
);
end = (0.9171,0.0452);
start = (0.2413,0.4899);
};
};
closed = 1;
nodes = (
(901,0,l),
(901,1,l),
(699,329,l),
(499,173,l),
(590,0,l)
);
},
{
attr = {
gradient = {
colors = (
(
(64,255),
0
),
(
(191,255),
1
)
);
end = (0.0248,0.0503);
start = (0.9621,0.8892);
};
};
closed = 1;
nodes = (
(628,173,l),
(628,417,l),
(289,417,l),
(289,173,l)
);
},
{
attr = {
gradient = {
colors = (
(
(64,255),
0
),
(
(191,255),
1
)
);
end = (0.0807,0.0819);
start = (0.4192,0.8964);
};
};
closed = 1;
nodes = (
(629,173,l),
(882,370,l),
(882,486,l),
(628,486,l),
(628,173,l)
);
},
{
attr = {
gradient = {
colors = (
(
(64,255),
0
),
(
(191,255),
1
)
);
end = (0.851,0.3028);
start = (0.0693,0.513);
};
};
closed = 1;
nodes = (
(882,486,l),
(882,487,l),
(680,730,l),
(289,730,l),
(289,486,l)
);
}
);
width = 926;
}
);
unicode = 82;
},
{
glyphname = S;
lastChange = "2022-08-12 14:35:41 +0000";
layers = (
{
anchors = (
{
name = bottom;
pos = (122,0);
},
{
name = top;
pos = (128,700);
}
);
attr = {
color = "1";
};
layerId = "33AE93C6-B8B3-427A-A53B-F24970E840CE";
shapes = (
{
attr = {
gradient = {
colors = (
(
(64,255),
0
),
(
(191,255),
1
)
);
end = (0.8513,0.3334);
start = (0.1059,0.2968);
};
};
closed = 1;
nodes = (
(190,676,l),
(190,677,l),
(167,700,l),
(67,700,l),
(67,676,l)
);
},
{
attr = {
gradient = {
colors = (
(
(64,255),
0
),
(
(191,255),
1
)
);
end = (0.1534,0.6675);
start = (0.9028,0.522);
};
};
closed = 1;
nodes = (
(166,0,l),
(166,24,l),
(43,24,l),
(43,23,l),
(66,0,l)
);
},
{
attr = {
gradient = {
colors = (
(
(64,255),
0
),
(
(191,255),
1
)
);
end = (0.0618,0.8587);
start = (0.9721,0.2906);
};
};
closed = 1;
nodes = (
(166,353,l),
(166,377,l),
(43,377,l),
(43,376,l),
(66,353,l)
);
},
{
attr = {
gradient = {
colors = (
(
(64,255),
0
),
(
(191,255),
1
)
);
end = (0.5946,0.9299);
start = (0.5615,0.0647);
};
};
closed = 1;
nodes = (
(67,377,l),
(67,700,l),
(66,700,l),
(43,677,l),
(43,377,l)
);
},
{
attr = {
gradient = {
colors = (
(
(191,255),
0.01851
),
(
(64,255),
1
)
);
end = (0.5462,0.086);
start = (0.4604,0.7382);
};
};
closed = 1;
nodes = (
(167,0,l),
(190,24,l),
(190,353,l),
(167,377,l),
(166,377,l),
(166,0,l)
);
}
);
userData = {
com.GeorgSeifert.ImageExportSettings = {
path = "..";
presets = (
{
filename = "{{{glyph.name}}}";
format = PDF;
name = default;
size = 1000;
}
);
};
};
width = 233;
},
{
anchors = (
{
name = bottom;
pos = (447,0);
},
{
name = top;
pos = (451,730);
}
);
attr = {
color = "1";
};
layerId = m003;
shapes = (
{
attr = {
gradient = {
colors = (
(
(64,255),
0
),
(
(191,255),
1
)
);
end = (0.8523,0.1646);
start = (0.0271,0.1385);
};
};
closed = 1;
nodes = (
(867,486,l),
(867,487,l),
(665,730,l),
(274,730,l),
(274,486,l)
);
},
{
attr = {
gradient = {
colors = (
(
(64,255),
0
),
(
(191,255),
1
)
);
end = (0.2461,0.4944);
start = (0.9701,0.8898);
};
};
closed = 1;
nodes = (
(613,0,l),
(613,244,l),
(20,244,l),
(20,243,l),
(222,0,l)
);
},
{
attr = {
gradient = {
colors = (
(
(64,255),
0
),
(
(191,255),
1
)
);
end = (0.1907,0.7652);
start = (0.9587,0.1852);
};
};
closed = 1;
nodes = (
(613,262,l),
(613,466,l),
(20,466,l),
(20,465,l),
(222,262,l)
);
},
{
attr = {
gradient = {
colors = (
(
(64,255),
0
),
(
(191,255),
1
)
);
end = (0.9005,0.8235);
start = (0.6011,0.1091);
};
};
closed = 1;
nodes = (
(274,466,l),
(274,730,l),
(273,730,l),
(20,523,l),
(20,466,l)
);
},
{
attr = {
gradient = {
colors = (
(
(191,255),
0
),
(
(64,255),
1
)
);
end = (0.1317,0.114);
start = (0.0829,0.7043);
};
};
closed = 1;
nodes = (
(614,0,l),
(867,193,l),
(867,269,l),
(614,466,l),
(613,466,l),
(613,0,l)
);
}
);
width = 887;
}
);
unicode = 83;
},
{
glyphname = Germandbls;
kernLeft = H;
kernRight = B;
lastChange = "2022-08-22 21:28:59 +0000";
layers = (
{
attr = {
color = "1";
};
layerId = "33AE93C6-B8B3-427A-A53B-F24970E840CE";
shapes = (
{
attr = {
gradient = {
colors = (
(
(64,255),
0
),
(
(191,255),
1
)
);
end = (0.4877,0.9217);
start = (0.4275,0.0226);
};
};
closed = 1;
nodes = (
(77,0,l),
(77,700,l),
(53,700,l),
(53,0,l)
);
},
{
attr = {
gradient = {
colors = (
(
(64,255),
0
),
(
(191,255),
1
)
);
end = (0.2094,0.2095);
start = (0.9407,0.6421);
};
};
closed = 1;
nodes = (
(226,0,l),
(226,24,l),
(178,24,l),
(154,1,l),
(154,0,l)
);
},
{
attr = {
gradient = {
colors = (
(
(64,255),
0
),
(
(128,255),
1
)
);
end = (0.5965,0.9164);
start = (0.0377,0.1004);
};
};
closed = 1;
nodes = (
(182,676,l),
(182,700,l),
(77,700,l),
(77,676,l)
);
},
{
attr = {
gradient = {
colors = (
(
(64,255),
0
),
(
(191,255),
1
)
);
end = (0.7595,0.9512);
start = (0.2146,0.0409);
};
};
closed = 1;
nodes = (
(203,677,l),
(203,678,l),
(183,700,l),
(182,700,l),
(132,387,l),
(156,387,l)
);
},
{
attr = {
gradient = {
colors = (
(
(64,255),
0
),
(
(191,255),
1
)
);
end = (0.1482,0.6872);
start = (0.937,0.3463);
};
};
closed = 1;
nodes = (
(226,363,l),
(226,387,l),
(132,387,l),
(132,386,l),
(155,363,l)
);
},
{
attr = {
gradient = {
colors = (
(
(191,255),
0
),
(
(64,255),
1
)
);
end = (0.5245,0.827);
start = (0.8235,0.1183);
};
};
closed = 1;
nodes = (
(227,0,l),
(250,23,l),
(250,364,l),
(227,387,l),
(226,387,l),
(226,0,l)
);
}
);
width = 303;
},
{
attr = {
color = "1";
};
layerId = m003;
shapes = (
{
attr = {
gradient = {
colors = (
(
(64,255),
0
),
(
(191,255),
1
)
);
end = (0.4877,0.9217);
start = (0.407,0.057);
};
};
closed = 1;
nodes = (
(279,0,l),
(279,730,l),
(25,730,l),
(25,0,l)
);
},
{
attr = {
gradient = {
colors = (
(
(64,255),
0
),
(
(191,255),
1
)
);
end = (0.1024,0.0638);
start = (0.9689,0.9483);
};
};
closed = 1;
nodes = (
(728,0,l),
(728,244,l),
(635,244,l),
(495,1,l),
(495,0,l)
);
},
{
attr = {
gradient = {
colors = (
(
(64,255),
0
),
(
(128,255),
1
)
);
end = (0.2726,0.909);
start = (0.2073,0.0604);
};
};
closed = 1;
nodes = (
(584,486,l),
(584,730,l),
(279,730,l),
(279,486,l)
);
},
{
attr = {
gradient = {
colors = (
(
(64,255),
0
),
(
(191,255),
1
)
);
end = (0.4941,0.8991);
start = (0.8455,0.2709);
};
};
closed = 1;
nodes = (
(816,530,l),
(816,531,l),
(585,730,l),
(584,730,l),
(384,467,l),
(698,376,l)
);
},
{
attr = {
gradient = {
colors = (
(
(64,255),
0
),
(
(191,255),
1
)
);
end = (0.1957,0.7836);
start = (0.9468,0.2161);
};
};
closed = 1;
nodes = (
(728,263,l),
(728,467,l),
(384,467,l),
(384,466,l),
(437,263,l)
);
},
{
attr = {
gradient = {
colors = (
(
(191,255),
0
),
(
(64,255),
1
)
);
end = (0.086,0.9267);
start = (0.0647,0.0498);
};
};
closed = 1;
nodes = (
(729,0,l),
(982,193,l),
(982,274,l),
(729,467,l),
(728,467,l),
(728,0,l)
);
}
);
width = 1007;
}
);
unicode = 7838;
},
{
glyphname = T;
kernLeft = T;
kernRight = T;
lastChange = "2022-08-12 14:35:41 +0000";
layers = (
{
anchors = (
{
name = bottom;
pos = (157,0);
},
{
name = stroke;
pos = (156,365);
},
{
name = top;
pos = (158,700);
}
);
attr = {
color = "1";
};
layerId = "33AE93C6-B8B3-427A-A53B-F24970E840CE";
shapes = (
{
attr = {
gradient = {
colors = (
(
(64,255),
0.01
),
(
(191,255),
1
)
);
end = (0.7357,0.9824);
start = (0.4866,0.1832);
};
};
closed = 1;
nodes = (
(168,0,l),
(168,700,l),
(167,700,l),
(144,676,l),
(144,0,l)
);
},
{
attr = {
gradient = {
colors = (
(
(64,255),
0
),
(
(191,255),
1
)
);
end = (0.7894,0.5364);
start = (0.089,0.1962);
};
};
closed = 1;
nodes = (
(144,676,l),
(167,700,l),
(23,700,l),
(23,676,l)
);
},
{
attr = {
gradient = {
colors = (
(
(64,255),
0
),
(
(191,255),
1
)
);
end = (0.8354,0.5652);
start = (0.1292,0.5064);
};
};
closed = 1;
nodes = (
(288,676,l),
(288,700,l),
(168,700,l),
(168,676,l)
);
}
);
width = 311;
},
{
anchors = (
{
name = bottom;
pos = (433,0);
},
{
name = stroke;
pos = (433,365);
},
{
name = top;
pos = (436,730);
}
);
attr = {
color = "1";
};
layerId = m003;
shapes = (
{
attr = {
gradient = {
colors = (
(
(64,255),
0
),
(
(191,255),
1
)
);
end = (0.8597,0.948);
start = (0.2195,0.0331);
};
};
closed = 1;
nodes = (
(560,0,l),
(560,730,l),
(508,730,l),
(306,486,l),
(305,0,l)
);
},
{
attr = {
gradient = {
colors = (
(
(64,255),
0
),
(
(191,255),
1
)
);
end = (0.876,0.8388);
start = (0.0295,0.395);
};
};
closed = 1;
nodes = (
(306,486,l),
(508,730,l),
(25,730,l),
(25,486,l)
);
},
{
attr = {
gradient = {
colors = (
(
(64,255),
0
),
(
(191,255),
1
)
);
end = (0.9557,0.2762);
start = (0.0688,0.8458);
};
};
closed = 1;
nodes = (
(861,486,l),
(861,730,l),
(560,730,l),
(560,486,l)
);
}
);
width = 886;
}
);
metricRight = "=|";
unicode = 84;
},
{
glyphname = U;
kernRight = U;
lastChange = "2022-08-12 14:35:41 +0000";
layers = (
{
anchors = (
{
name = bottom;
pos = (132,0);
},
{
name = horn;
pos = (196,700);
},
{
name = top;
pos = (143,701);
}
);
attr = {
color = "1";
};
layerId = "33AE93C6-B8B3-427A-A53B-F24970E840CE";
shapes = (
{
attr = {
gradient = {
colors = (
(
(191,255),
0
),
(
(64,255),
1
)
);
end = (0.5074,0.9658);
start = (0.6091,0.0797);
};
};
closed = 1;
nodes = (
(197,0,l),
(220,23,l),
(220,700,l),
(196,700,l),
(196,0,l)
);
},
{
attr = {
gradient = {
colors = (
(
(191,255),
0
),
(
(64,255),
1
)
);
end = (0.8878,0.5878);
start = (0.1423,0.5906);
};
};
closed = 1;
nodes = (
(196,0,l),
(196,24,l),
(53,24,l),
(53,23,l),
(76,0,l)
);
},
{
attr = {
gradient = {
colors = (
(
(191,255),
0
),
(
(64,255),
1
)
);
end = (1.2582,0.0143);
start = (0.5855,0.9221);
};
};
closed = 1;
nodes = (
(77,24,l),
(77,700,l),
(53,700,l),
(53,24,l)
);
}
);
width = 273;
},
{
anchors = (
{
name = bottom;
pos = (442,0);
},
{
name = horn;
pos = (811,730);
},
{
name = top;
pos = (476,730);
}
);
attr = {
color = "1";
};
layerId = m003;
shapes = (
{
attr = {
gradient = {
colors = (
(
(191,255),
0
),
(
(64,255),
1
)
);
end = (0.4877,0.9217);
start = (0.1974,0.1158);
};
};
closed = 1;
nodes = (
(629,0,l),
(882,207,l),
(882,730,l),
(628,730,l),
(628,0,l)
);
},
{
attr = {
gradient = {
colors = (
(
(191,255),
0
),
(
(64,255),
1
)
);
end = (0.8878,0.5878);
start = (0.1398,0.7771);
};
};
closed = 1;
nodes = (
(628,0,l),
(628,244,l),
(35,244,l),
(35,243,l),
(237,0,l)
);
},
{
attr = {
gradient = {
colors = (
(
(191,255),
0
),
(
(64,255),
1
)
);
end = (0.3691,0.1797);
start = (0.4192,0.8964);
};
};
closed = 1;
nodes = (
(289,244,l),
(289,730,l),
(35,730,l),
(35,244,l)
);
}
);
width = 907;
}
);
unicode = 85;
},
{
glyphname = V;
kernLeft = V;
kernRight = V;
lastChange = "2022-08-22 21:29:27 +0000";
layers = (
{
attr = {
color = "1";
};
layerId = "33AE93C6-B8B3-427A-A53B-F24970E840CE";
shapes = (
{
attr = {
gradient = {
colors = (
(
(64,255),
0
),
(
(191,255),
1
)
);
end = (0.0969,0.9733);
start = (0.7792,0.1308);
};
};
closed = 1;
nodes = (
(108,0,l),
(130,2,l),
(47,700,l),
(23,700,l),
(23,699,l),
(107,0,l)
);
},
{
attr = {
gradient = {
colors = (
(
(191,255),
0
),
(
(64,255),
1
)
);
end = (0.9007,0.953);
start = (0.212,0.0821);
};
};
closed = 1;
nodes = (
(131,0,l),
(207,699,l),
(207,700,l),
(183,700,l),
(108,0,l)
);
}
);
width = 230;
},
{
attr = {
color = "1";
};
layerId = m003;
shapes = (
{
attr = {
gradient = {
colors = (
(
(64,255),
0
),
(
(191,255),
1
)
);
end = (0.1814,0.9441);
start = (0.6415,0.146);
};
};
closed = 1;
nodes = (
(329,0,l),
(527,192,l),
(284,730,l),
(0,730,l),
(0,729,l),
(328,0,l)
);
},
{
attr = {
gradient = {
colors = (
(
(191,255),
0
),
(
(64,255),
1
)
);
end = (0.8623,0.9513);
start = (0.1758,0.0538);
};
};
closed = 1;
nodes = (
(613,0,l),
(971,729,l),
(971,730,l),
(687,730,l),
(329,0,l)
);
}
);
width = 971;
}
);
metricRight = "=|";
unicode = 86;
},
{
glyphname = W;
kernLeft = V;
kernRight = V;
lastChange = "2022-08-22 21:29:39 +0000";
layers = (
{
anchors = (
{
name = top;
pos = (251,700);
}
);
attr = {
color = "1";
};
layerId = "33AE93C6-B8B3-427A-A53B-F24970E840CE";
shapes = (
{
attr = {
gradient = {
colors = (
(
(64,255),
0
),
(
(191,255),
1
)
);
end = (0.159,0.9526);
start = (0.8483,0.1046);
};
};
closed = 1;
nodes = (
(363,0,l),
(385,2,l),
(262,700,l),
(238,700,l),
(362,0,l)
);
},
{
attr = {
gradient = {
colors = (
(
(64,255),
0
),
(
(191,255),
1
)
);
end = (0.084,0.9806);
start = (0.8438,0.0959);
};
};
closed = 1;
nodes = (
(123,0,l),
(145,2,l),
(42,700,l),
(18,700,l),
(18,699,l),
(122,0,l)
);
},
{
attr = {
gradient = {
colors = (
(
(191,255),
0
),
(
(64,255),
1
)
);
end = (0.8026,0.9134);
start = (0.104,0.0037);
};
};
closed = 1;
nodes = (
(146,0,l),
(262,700,l),
(238,700,l),
(123,0,l)
);
},
{
attr = {
gradient = {
colors = (
(
(191,255),
0
),
(
(64,255),
1
)
);
end = (0.9007,0.953);
start = (0.1367,0.007);
};
};
closed = 1;
nodes = (
(386,0,l),
(482,699,l),
(482,700,l),
(458,700,l),
(363,0,l)
);
}
);
width = 500;
},
{
anchors = (
{
name = top;
pos = (673,730);
}
);
attr = {
color = "1";
};
layerId = m003;
shapes = (
{
attr = {
gradient = {
colors = (
(
(64,255),
0
),
(
(191,255),
1
)
);
end = (0.6036,0.8924);
start = (0.5665,0.1237);
};
};
closed = 1;
nodes = (
(776,0,l),
(974,192,l),
(801,730,l),
(527,730,l),
(775,0,l)
);
},
{
attr = {
gradient = {
colors = (
(
(64,255),
0
),
(
(191,255),
1
)
);
end = (0.1625,0.9663);
start = (0.5723,0.138);
};
};
closed = 1;
nodes = (
(249,0,l),
(447,192,l),
(284,730,l),
(0,730,l),
(0,729,l),
(238,0,l)
);
},
{
attr = {
gradient = {
colors = (
(
(191,255),
0
),
(
(64,255),
1
)
);
end = (0.507,0.8515);
start = (0.4365,0.0703);
};
};
closed = 1;
nodes = (
(523,0,l),
(801,730,l),
(527,730,l),
(249,0,l)
);
},
{
attr = {
gradient = {
colors = (
(
(191,255),
0
),
(
(64,255),
1
)
);
end = (0.8693,0.9392);
start = (0.4408,0.0512);
};
};
closed = 1;
nodes = (
(1060,0,l),
(1328,729,l),
(1328,730,l),
(1044,730,l),
(776,0,l)
);
}
);
width = 1328;
}
);
metricRight = "=|";
unicode = 87;
},
{
glyphname = X;
lastChange = "2022-08-12 14:35:41 +0000";
layers = (
{
attr = {
color = "1";
};
layerId = "33AE93C6-B8B3-427A-A53B-F24970E840CE";
shapes = (
{
attr = {
gradient = {
colors = (
(
(64,255),
0
),
(
(191,255),
1
)
);
end = (0.1177,0.9516);
start = (0.7717,0.1277);
};
};
closed = 1;
nodes = (
(113,350,l),
(135,356,l),
(52,700,l),
(28,700,l),
(28,699,l),
(112,350,l)
);
},
{
attr = {
gradient = {
colors = (
(
(191,255),
0
),
(
(64,255),
1
)
);
end = (0.2112,0.8753);
start = (0.8687,0.0402);
};
};
closed = 1;
nodes = (
(219,0,l),
(219,1,l),
(136,350,l),
(135,350,l),
(113,344,l),
(195,0,l)
);
},
{
attr = {
gradient = {
colors = (
(
(64,255),
0
),
(
(191,255),
1
)
);
end = (1.0293,0.9995);
start = (0.1429,0.0486);
};
};
closed = 1;
nodes = (
(59,0,l),
(135,350,l),
(112,350,l),
(35,1,l),
(35,0,l)
);
},
{
attr = {
gradient = {
colors = (
(
(191,255),
0
),
(
(64,255),
1
)
);
end = (0.9007,0.953);
start = (-0.0063,0.0106);
};
};
closed = 1;
nodes = (
(136,350,l),
(212,699,l),
(212,700,l),
(188,700,l),
(113,350,l)
);
}
);
width = 247;
},
{
attr = {
color = "1";
};
layerId = m003;
shapes = (
{
attr = {
gradient = {
colors = (
(
(64,255),
0
),
(
(191,255),
1
)
);
end = (0.298,0.7665);
start = (0.6822,0.1939);
};
};
closed = 1;
nodes = (
(279,365,l),
(457,557,l),
(334,730,l),
(30,730,l),
(30,729,l),
(278,365,l)
);
},
{
attr = {
gradient = {
colors = (
(
(191,255),
0
),
(
(64,255),
1
)
);
end = (0.1166,0.52);
start = (0.8241,0.2591);
};
};
closed = 1;
nodes = (
(859,0,l),
(859,1,l),
(611,365,l),
(610,365,l),
(432,173,l),
(555,0,l)
);
},
{
attr = {
gradient = {
colors = (
(
(64,255),
0
),
(
(191,255),
1
)
);
end = (0.8623,0.9513);
start = (0.1029,0.1158);
};
};
closed = 1;
nodes = (
(312,0,l),
(610,365,l),
(278,365,l),
(0,1,l),
(0,0,l)
);
},
{
attr = {
gradient = {
colors = (
(
(191,255),
0
),
(
(64,255),
1
)
);
end = (0.8623,0.9513);
start = (0.1029,0.1158);
};
};
closed = 1;
nodes = (
(611,365,l),
(889,729,l),
(889,730,l),
(577,730,l),
(279,365,l)
);
}
);
width = 889;
}
);
metricRight = "=|";
unicode = 88;
},
{
glyphname = Y;
kernLeft = Y;
kernRight = Y;
lastChange = "2022-08-12 14:35:41 +0000";
layers = (
{
anchors = (
{
name = bottom;
pos = (129,0);
},
{
name = top;
pos = (127,700);
}
);
attr = {
color = "1";
};
layerId = "33AE93C6-B8B3-427A-A53B-F24970E840CE";
shapes = (
{
attr = {
gradient = {
colors = (
(
(64,255),
0
),
(
(191,255),
1
)
);
end = (0.077,0.9857);
start = (0.8247,0.1156);
};
};
closed = 1;
nodes = (
(118,350,l),
(140,356,l),
(47,700,l),
(23,700,l),
(23,699,l),
(117,350,l)
);
},
{
attr = {
gradient = {
colors = (
(
(64,255),
0
),
(
(191,255),
1
)
);
end = (0.4056,0.1204);
start = (0.4192,0.8964);
};
};
closed = 1;
nodes = (
(141,0,l),
(141,350,l),
(117,350,l),
(117,0,l)
);
},
{
attr = {
gradient = {
colors = (
(
(191,255),
0
),
(
(64,255),
1
)
);
end = (0.9007,0.953);
start = (0.2032,0.0824);
};
};
closed = 1;
nodes = (
(141,350,l),
(227,699,l),
(227,700,l),
(203,700,l),
(118,350,l)
);
}
);
width = 250;
},
{
anchors = (
{
name = bottom;
pos = (417,0);
},
{
name = top;
pos = (443,730);
}
);
attr = {
color = "1";
};
layerId = m003;
shapes = (
{
attr = {
gradient = {
colors = (
(
(64,255),
0
),
(
(191,255),
1
)
);
end = (0.0864,0.9681);
start = (0.7958,0.2591);
};
};
closed = 1;
nodes = (
(289,285,l),
(436,467,l),
(273,730,l),
(0,730,l),
(0,729,l),
(288,285,l)
);
},
{
attr = {
gradient = {
colors = (
(
(64,255),
0
),
(
(191,255),
1
)
);
end = (0.0671,0.0253);
start = (0.091,0.9584);
};
};
closed = 1;
nodes = (
(552,0,l),
(552,285,l),
(288,285,l),
(288,0,l)
);
},
{
attr = {
gradient = {
colors = (
(
(191,255),
0
),
(
(64,255),
1
)
);
end = (0.8623,0.9513);
start = (0.1029,0.1158);
};
};
closed = 1;
nodes = (
(552,285,l),
(840,729,l),
(840,730,l),
(566,730,l),
(289,285,l)
);
}
);
width = 840;
}
);
metricRight = "=|";
unicode = 89;
},
{
glyphname = Z;
lastChange = "2022-08-22 21:30:19 +0000";
layers = (
{
anchors = (
{
name = top;
pos = (118,700);
}
);
attr = {
color = "1";
};
layerId = "33AE93C6-B8B3-427A-A53B-F24970E840CE";
shapes = (
{
attr = {
gradient = {
colors = (
(
(191,255),
0
),
(
(64,255),
1
)
);
end = (0.8878,0.5878);
start = (0.0693,0.513);
};
};
closed = 1;
nodes = (
(163,676,l),
(166,700,l),
(33,700,l),
(33,676,l)
);
},
{
attr = {
gradient = {
colors = (
(
(64,255),
0
),
(
(191,255),
1
)
);
end = (0.9008,0.9446);
start = (0.0902,0.0193);
};
};
closed = 1;
nodes = (
(185,677,l),
(166,700,l),
(33,25,l),
(33,24,l),
(56,24,l)
);
},
{
attr = {
gradient = {
colors = (
(
(191,255),
0
),
(
(64,255),
1
)
);
end = (0.9306,0.3915);
start = (0.1725,0.6802);
};
};
closed = 1;
nodes = (
(189,0,l),
(189,24,l),
(33,24,l),
(56,0,l)
);
}
);
width = 222;
},
{
anchors = (
{
name = top;
pos = (386,730);
}
);
attr = {
color = "1";
};
layerId = m003;
shapes = (
{
attr = {
gradient = {
colors = (
(
(191,255),
0
),
(
(64,255),
1
)
);
end = (0.8495,0.7893);
start = (0.0361,0.7074);
};
};
closed = 1;
nodes = (
(618,486,l),
(644,730,l),
(35,730,l),
(35,486,l)
);
},
{
attr = {
gradient = {
colors = (
(
(64,255),
0
),
(
(191,255),
1
)
);
end = (0.8718,0.8447);
start = (0.0877,0.235);
};
};
closed = 1;
nodes = (
(784,535,l),
(644,730,l),
(41,245,l),
(41,244,l),
(244,119,l)
);
},
{
attr = {
gradient = {
colors = (
(
(191,255),
0
),
(
(64,255),
1
)
);
end = (0.9726,0.891);
start = (0.0297,0.1676);
};
};
closed = 1;
nodes = (
(790,0,l),
(790,244,l),
(41,244,l),
(41,0,l)
);
}
);
width = 825;
}
);
metricRight = "=|";
unicode = 90;
},
{
glyphname = a;
kernLeft = o;
kernRight = a;
lastChange = "2022-08-12 14:35:41 +0000";
layers = (
{
anchors = (
{
name = bottom;
pos = (102,0);
},
{
name = top;
pos = (102,500);
}
);
attr = {
color = "1";
};
layerId = "33AE93C6-B8B3-427A-A53B-F24970E840CE";
shapes = (
{
attr = {
gradient = {
colors = (
(
(64,255),
0
),
(
(191,255),
1
)
);
end = (0.7077,0.4566);
start = (0.0693,0.513);
};
};
closed = 1;
nodes = (
(147,476,l),
(147,477,l),
(124,500,l),
(74,500,l),
(74,476,l)
);
},
{
attr = {
gradient = {
colors = (
(
(191,255),
0
),
(
(64,255),
1
)
);
end = (0.8878,0.5878);
start = (0.2021,0.704);
};
};
closed = 1;
nodes = (
(123,0,l),
(123,24,l),
(50,24,l),
(50,23,l),
(73,0,l)
);
},
{
attr = {
gradient = {
colors = (
(
(64,255),
0
),
(
(191,255),
1
)
);
end = (0.4877,0.9217);
start = (0.4041,0.0169);
};
};
closed = 1;
nodes = (
(74,24,l),
(74,500,l),
(73,500,l),
(50,477,l),
(50,24,l)
);
},
{
attr = {
gradient = {
colors = (
(
(64,255),
0
),
(
(191,255),
1
)
);
end = (0.4056,0.1204);
start = (0.4192,0.8964);
};
};
closed = 1;
nodes = (
(147,0,l),
(147,476,l),
(123,476,l),
(123,0,l)
);
}
);
width = 197;
},
{
anchors = (
{
name = bottom;
pos = (431,0);
},
{
name = top;
pos = (492,530);
}
);
attr = {
color = "1";
};
layerId = m003;
shapes = (
{
attr = {
gradient = {
colors = (
(
(64,255),
0
),
(
(191,255),
1
)
);
end = (0.8878,0.5243);
start = (0.0693,0.513);
};
};
closed = 1;
nodes = (
(862,286,l),
(862,287,l),
(755,530,l),
(279,530,l),
(279,286,l)
);
},
{
attr = {
gradient = {
colors = (
(
(191,255),
0
),
(
(64,255),
1
)
);
end = (0.8878,0.5878);
start = (0.0969,0.6893);
};
};
closed = 1;
nodes = (
(608,0,l),
(608,244,l),
(25,244,l),
(25,243,l),
(132,0,l)
);
},
{
attr = {
gradient = {
colors = (
(
(64,255),
0
),
(
(191,255),
1
)
);
end = (0.8821,0.9039);
start = (0.8403,0.0539);
};
};
closed = 1;
nodes = (
(279,244,l),
(279,530,l),
(278,530,l),
(25,423,l),
(25,244,l)
);
},
{
attr = {
gradient = {
colors = (
(
(64,255),
0
),
(
(191,255),
1
)
);
end = (0.4056,0.1204);
start = (0.4192,0.8964);
};
};
closed = 1;
nodes = (
(862,0,l),
(862,286,l),
(608,286,l),
(608,0,l)
);
}
);
width = 907;
}
);
unicode = 97;
},
{
glyphname = aringacute;
kernLeft = o;
kernRight = n;
lastChange = "2022-08-12 14:35:41 +0000";
layers = (
{
attr = {
color = "1";
};
layerId = "33AE93C6-B8B3-427A-A53B-F24970E840CE";
shapes = (
{
attr = {
gradient = {
colors = (
(
(64,255),
0
),
(
(191,255),
1
)
);
end = (0.8135,0.2967);
start = (0.0693,0.513);
};
identifier = ID0x600000627720;
};
closed = 1;
nodes = (
(143,622,l),
(143,623,l),
(125,641,l),
(85,641,l),
(85,622,l)
);
},
{
ref = a;
},
{
attr = {
gradient = {
colors = (
(
(191,255),
0
),
(
(64,255),
1
)
);
end = (0.8878,0.5878);
start = (0.153,0.6792);
};
identifier = ID0x600000627720;
};
closed = 1;
nodes = (
(124,537,l),
(124,556,l),
(66,556,l),
(66,555,l),
(84,537,l)
);
},
{
attr = {
gradient = {
colors = (
(
(64,255),
0
),
(
(191,255),
1
)
);
end = (0.6586,0.8502);
start = (0.4369,0.0443);
};
identifier = ID0x600000627720;
};
closed = 1;
nodes = (
(85,556,l),
(85,641,l),
(84,641,l),
(66,623,l),
(66,556,l)
);
},
{
attr = {
gradient = {
colors = (
(
(64,255),
0
),
(
(191,255),
1
)
);
end = (0.4056,0.1204);
start = (0.4192,0.8964);
};
identifier = ID0x600000627720;
};
closed = 1;
nodes = (
(125,537,l),
(143,555,l),
(143,622,l),
(124,622,l),
(124,537,l)
);
},
{
attr = {
gradient = {
colors = (
(
(191,255),
0
),
(
(64,255),
1
)
);
end = (0.764,0.9694);
start = (0.2425,0.0326);
};
identifier = ID0x600000627800;
};
closed = 1;
nodes = (
(111,670,l),
(149,771,l),
(149,772,l),
(118,772,l),
(92,670,l)
);
}
);
width = 199;
},
{
attr = {
color = "1";
};
layerId = m003;
shapes = (
{
attr = {
gradient = {
colors = (
(
(64,255),
0
),
(
(191,255),
1
)
);
end = (0.8367,0.2893);
start = (0.0693,0.513);
};
identifier = ID0x6000006279c0;
};
closed = 1;
nodes = (
(610,676,l),
(610,677,l),
(550,760,l),
(380,760,l),
(380,676,l)
);
},
{
ref = a;
},
{
attr = {
gradient = {
colors = (
(
(191,255),
0
),
(
(64,255),
1
)
);
end = (0.8878,0.5878);
start = (0.1,0.7213);
};
identifier = ID0x6000006279c0;
};
closed = 1;
nodes = (
(514,572,l),
(514,654,l),
(284,654,l),
(284,653,l),
(344,572,l)
);
},
{
attr = {
gradient = {
colors = (
(
(64,255),
0
),
(
(191,255),
1
)
);
end = (0.7534,0.7816);
start = (0.3724,0.0815);
};
identifier = ID0x6000006279c0;
};
closed = 1;
nodes = (
(380,654,l),
(380,760,l),
(379,760,l),
(284,698,l),
(284,654,l)
);
},
{
attr = {
gradient = {
colors = (
(
(64,255),
0
),
(
(191,255),
1
)
);
end = (0.1614,0.1523);
start = (0.4192,0.8964);
};
identifier = ID0x6000006279c0;
};
closed = 1;
nodes = (
(515,572,l),
(610,628,l),
(610,676,l),
(514,676,l),
(514,572,l)
);
},
{
attr = {
gradient = {
colors = (
(
(191,255),
0
),
(
(64,255),
1
)
);
end = (0.7912,0.9381);
start = (0.3543,0.0329);
};
identifier = ID0x600000627aa0;
};
closed = 1;
nodes = (
(499,790,l),
(584,899,l),
(584,900,l),
(428,900,l),
(413,790,l)
);
}
);
width = 907;
}
);
metricLeft = a;
metricRight = a;
unicode = 507;
},
{
glyphname = ae;
kernLeft = o;
kernRight = e;
lastChange = "2022-08-12 14:35:41 +0000";
layers = (
{
anchors = (
{
name = top;
pos = (130,500);
}
);
attr = {
color = "1";
};
layerId = "33AE93C6-B8B3-427A-A53B-F24970E840CE";
shapes = (
{
attr = {
gradient = {
colors = (
(
(191,255),
0
),
(
(64,255),
1
)
);
end = (0.8774,0.2068);
start = (0.1482,0.6981);
};
};
closed = 1;
nodes = (
(147,0,l),
(123,24,l),
(50,24,l),
(50,23,l),
(73,0,l)
);
},
{
attr = {
gradient = {
colors = (
(
(64,255),
0
),
(
(191,255),
1
)
);
end = (0.795,0.3792);
start = (0.0693,0.513);
};
};
closed = 1;
nodes = (
(221,476,l),
(221,477,l),
(198,500,l),
(147,500,l),
(147,476,l)
);
},
{
attr = {
gradient = {
colors = (
(
(64,255),
0
),
(
(191,255),
1
)
);
end = (0.4877,0.9217);
start = (0.4556,0.0137);
};
};
closed = 1;
nodes = (
(74,24,l),
(74,500,l),
(73,500,l),
(50,477,l),
(50,24,l)
);
},
{
attr = {
gradient = {
colors = (
(
(64,255),
0
),
(
(191,255),
1
)
);
end = (0.4056,0.1204);
start = (0.4192,0.8964);
};
};
closed = 1;
nodes = (
(147,476,l),
(123,476,l),
(123,24,l),
(147,0,l)
);
},
{
attr = {
gradient = {
colors = (
(
(64,255),
0
),
(
(191,255),
1
)
);
end = (0.796,0.3325);
start = (0.0693,0.513);
};
};
closed = 1;
nodes = (
(147,476,l),
(147,477,l),
(124,500,l),
(74,500,l),
(74,476,l)
);
},
{
attr = {
gradient = {
colors = (
(
(191,255),
0
),
(
(64,255),
1
)
);
end = (0.8282,0.7293);
start = (0.0693,0.513);
};
};
closed = 1;
nodes = (
(198,0,l),
(221,23,l),
(221,24,l),
(147,24,l),
(147,0,l)
);
},
{
attr = {
gradient = {
colors = (
(
(64,255),
0
),
(
(191,255),
1
)
);
end = (0.8878,0.5878);
start = (0.0693,0.513);
};
};
closed = 1;
nodes = (
(197,202,l),
(197,226,l),
(147,226,l),
(147,202,l)
);
},
{
attr = {
gradient = {
colors = (
(
(64,255),
0
),
(
(191,255),
1
)
);
end = (0.4056,0.1204);
start = (0.4192,0.8964);
};
};
closed = 1;
nodes = (
(198,202,l),
(221,225,l),
(221,476,l),
(197,476,l),
(197,202,l)
);
}
);
width = 271;
},
{
anchors = (
{
name = top;
pos = (442,530);
}
);
attr = {
color = "1";
};
layerId = m003;
shapes = (
{
attr = {
gradient = {
colors = (
(
(191,255),
0
),
(
(64,255),
1
)
);
end = (0.8878,0.5878);
start = (0.0719,0.5223);
};
};
closed = 1;
nodes = (
(862,0,l),
(608,244,l),
(25,244,l),
(25,243,l),
(132,0,l)
);
},
{
attr = {
gradient = {
colors = (
(
(64,255),
0
),
(
(191,255),
1
)
);
end = (0.8878,0.5878);
start = (0.2765,0.1307);
};
};
closed = 1;
nodes = (
(1455,330,l),
(1455,331,l),
(1348,530,l),
(862,530,l),
(608,330,l)
);
},
{
attr = {
gradient = {
colors = (
(
(64,255),
0
),
(
(191,255),
1
)
);
end = (0.8558,0.8767);
start = (0.4173,0.0434);
};
};
closed = 1;
nodes = (
(279,244,l),
(279,530,l),
(278,530,l),
(25,423,l),
(25,244,l)
);
},
{
attr = {
gradient = {
colors = (
(
(64,255),
0
),
(
(191,255),
1
)
);
end = (0.8519,0.0513);
start = (0.0682,0.949);
};
};
closed = 1;
nodes = (
(862,286,l),
(608,286,l),
(608,239,l),
(862,0,l)
);
},
{
attr = {
gradient = {
colors = (
(
(64,255),
0
),
(
(191,255),
1
)
);
end = (0.8724,0.0916);
start = (0.0693,0.513);
};
};
closed = 1;
nodes = (
(862,286,l),
(862,287,l),
(755,530,l),
(279,530,l),
(279,286,l)
);
},
{
attr = {
gradient = {
colors = (
(
(191,255),
0
),
(
(64,255),
1
)
);
end = (0.0259,0.909);
start = (0.7914,0.1042);
};
};
closed = 1;
nodes = (
(1348,0,l),
(1455,199,l),
(1455,200,l),
(862,200,l),
(862,0,l)
);
},
{
attr = {
gradient = {
colors = (
(
(64,255),
0
),
(
(191,255),
1
)
);
end = (0.1222,0.0774);
start = (0.9519,0.8584);
};
};
closed = 1;
nodes = (
(1201,221,l),
(1201,311,l),
(851,311,l),
(862,220,l)
);
},
{
attr = {
gradient = {
colors = (
(
(64,255),
0
),
(
(191,255),
1
)
);
end = (0.1208,0.1706);
start = (0.0658,0.8703);
};
};
closed = 1;
nodes = (
(1202,221,l),
(1455,298,l),
(1455,330,l),
(1201,330,l),
(1201,221,l)
);
}
);
width = 1485;
}
);
metricLeft = a;
metricRight = e;
unicode = 230;
},
{
glyphname = b;
kernLeft = l;
kernRight = o;
lastChange = "2022-08-12 14:35:41 +0000";
layers = (
{
attr = {
color = "1";
};
layerId = "33AE93C6-B8B3-427A-A53B-F24970E840CE";
shapes = (
{
attr = {
gradient = {
colors = (
(
(64,255),
0
),
(
(191,255),
0.52889
),
(
(64,255),
1
)
);
end = (0.3445,0.9778);
start = (0.4948,0.0254);
};
};
closed = 1;
nodes = (
(75,24,l),
(75,730,l),
(51,730,l),
(51,24,l)
);
},
{
attr = {
gradient = {
colors = (
(
(191,255),
0
),
(
(64,255),
1
)
);
end = (0.9276,0.5878);
start = (0.1291,0.8173);
};
};
closed = 1;
nodes = (
(124,0,l),
(124,24,l),
(51,24,l),
(51,23,l),
(74,0,l)
);
},
{
attr = {
gradient = {
colors = (
(
(64,255),
0
),
(
(191,255),
1
)
);
end = (0.4056,0.1204);
start = (0.4192,0.8964);
};
};
closed = 1;
nodes = (
(125,0,l),
(148,23,l),
(148,476,l),
(124,476,l),
(124,0,l)
);
},
{
attr = {
gradient = {
colors = (
(
(64,255),
0
),
(
(191,255),
1
)
);
end = (0.8834,0.1572);
start = (0.0693,0.513);
};
};
closed = 1;
nodes = (
(148,476,l),
(148,477,l),
(125,500,l),
(75,500,l),
(75,476,l)
);
}
);
width = 198;
},
{
attr = {
color = "1";
};
layerId = m003;
shapes = (
{
attr = {
gradient = {
colors = (
(
(64,255),
0
),
(
(191,255),
0.55524
),
(
(64,255),
1
)
);
end = (0.0838,0.9573);
start = (0.8676,0.0257);
};
};
closed = 1;
nodes = (
(289,244,l),
(288,794,l),
(35,794,l),
(35,244,l)
);
},
{
attr = {
gradient = {
colors = (
(
(191,255),
0
),
(
(64,255),
1
)
);
end = (0.8878,0.5878);
start = (0.0923,0.7465);
};
};
closed = 1;
nodes = (
(599,0,l),
(599,244,l),
(35,244,l),
(35,243,l),
(137,0,l)
);
},
{
attr = {
gradient = {
colors = (
(
(64,255),
0
),
(
(191,255),
1
)
);
end = (0.1311,0.1053);
start = (0.4192,0.8964);
};
};
closed = 1;
nodes = (
(600,0,l),
(853,107,l),
(853,286,l),
(599,286,l),
(599,0,l)
);
},
{
attr = {
gradient = {
colors = (
(
(64,255),
0
),
(
(191,255),
1
)
);
end = (0.8927,0.4057);
start = (0.0693,0.513);
};
};
closed = 1;
nodes = (
(853,286,l),
(853,287,l),
(751,530,l),
(289,530,l),
(289,286,l)
);
}
);
width = 898;
}
);
unicode = 98;
},
{
glyphname = c;
kernLeft = o;
lastChange = "2022-08-12 14:35:41 +0000";
layers = (
{
anchors = (
{
name = bottom;
pos = (102,0);
},
{
name = top;
pos = (100,500);
}
);
attr = {
color = "1";
};
layerId = "33AE93C6-B8B3-427A-A53B-F24970E840CE";
shapes = (
{
attr = {
gradient = {
colors = (
(
(191,255),
0
),
(
(64,255),
1
)
);
end = (0.8569,0.7233);
start = (0.1658,0.6427);
};
};
closed = 1;
nodes = (
(113,0,l),
(136,23,l),
(136,24,l),
(50,24,l),
(50,23,l),
(73,0,l)
);
},
{
attr = {
gradient = {
colors = (
(
(64,255),
0
),
(
(191,255),
1
)
);
end = (0.4877,0.9217);
start = (0.6137,0.0092);
};
};
closed = 1;
nodes = (
(74,24,l),
(74,500,l),
(73,500,l),
(50,477,l),
(50,24,l)
);
},
{
attr = {
gradient = {
colors = (
(
(64,255),
0
),
(
(191,255),
1
)
);
end = (0.8329,0.1997);
start = (0.0693,0.513);
};
};
closed = 1;
nodes = (
(147,476,l),
(147,477,l),
(124,500,l),
(74,500,l),
(74,476,l)
);
}
);
width = 167;
},
{
anchors = (
{
name = bottom;
pos = (395,0);
},
{
name = top;
pos = (412,530);
}
);
attr = {
color = "1";
};
layerId = m003;
shapes = (
{
attr = {
gradient = {
colors = (
(
(191,255),
0
),
(
(64,255),
1
)
);
end = (0.8878,0.5878);
start = (0.0855,0.6996);
};
};
closed = 1;
nodes = (
(665,0,l),
(772,243,l),
(772,244,l),
(25,244,l),
(25,243,l),
(132,0,l)
);
},
{
attr = {
gradient = {
colors = (
(
(64,255),
0
),
(
(191,255),
1
)
);
end = (0.834,0.8526);
start = (0.3045,0.04);
};
};
closed = 1;
nodes = (
(279,244,l),
(279,530,l),
(278,530,l),
(25,423,l),
(25,244,l)
);
},
{
attr = {
gradient = {
colors = (
(
(64,255),
0
),
(
(191,255),
1
)
);
end = (0.8788,0.1953);
start = (0.0693,0.513);
};
};
closed = 1;
nodes = (
(772,286,l),
(772,287,l),
(665,530,l),
(279,530,l),
(279,286,l)
);
}
);
width = 782;
}
);
unicode = 99;
},
{
glyphname = d;
kernLeft = o;
kernRight = d;
lastChange = "2022-08-12 14:35:41 +0000";
layers = (
{
anchors = (
{
name = stroke;
pos = (103,578);
},
{
name = top;
pos = (147,730);
}
);
attr = {
color = "1";
};
layerId = "33AE93C6-B8B3-427A-A53B-F24970E840CE";
shapes = (
{
attr = {
gradient = {
colors = (
(
(64,255),
0
),
(
(191,255),
1
)
);
end = (0.5862,0.0951);
start = (0.4192,0.8964);
};
};
closed = 1;
nodes = (
(147,477,l),
(147,730,l),
(123,730,l),
(123,500,l),
(146,477,l)
);
},
{
attr = {
gradient = {
colors = (
(
(64,255),
0
),
(
(191,255),
1
)
);
end = (0.8901,0.1592);
start = (0.0693,0.513);
};
};
closed = 1;
nodes = (
(147,476,l),
(147,477,l),
(124,500,l),
(74,500,l),
(74,476,l)
);
},
{
attr = {
gradient = {
colors = (
(
(191,255),
0
),
(
(64,255),
1
)
);
end = (0.8878,0.5878);
start = (0.1549,0.8081);
};
};
closed = 1;
nodes = (
(123,0,l),
(123,24,l),
(50,24,l),
(50,23,l),
(73,0,l)
);
},
{
attr = {
gradient = {
colors = (
(
(64,255),
0
),
(
(191,255),
1
)
);
end = (0.4877,0.9217);
start = (0.6408,0.0129);
};
};
closed = 1;
nodes = (
(74,24,l),
(74,500,l),
(73,500,l),
(50,477,l),
(50,24,l)
);
},
{
attr = {
gradient = {
colors = (
(
(64,255),
0
),
(
(191,255),
1
)
);
end = (0.4056,0.1204);
start = (0.4192,0.8964);
};
};
closed = 1;
nodes = (
(124,0,l),
(147,23,l),
(147,476,l),
(123,476,l),
(123,0,l)
);
}
);
width = 197;
},
{
anchors = (
{
name = stroke;
pos = (534,656);
},
{
name = top;
pos = (743,794);
}
);
attr = {
color = "1";
};
layerId = m003;
shapes = (
{
attr = {
gradient = {
colors = (
(
(64,255),
0
),
(
(191,255),
1
)
);
end = (0.9024,0.1184);
start = (0.4192,0.8964);
};
};
closed = 1;
nodes = (
(863,289,l),
(863,794,l),
(609,794,l),
(609,530,l),
(862,289,l)
);
},
{
attr = {
gradient = {
colors = (
(
(64,255),
0
),
(
(191,255),
1
)
);
end = (0.7876,0.3436);
start = (0.0374,0.2569);
};
};
closed = 1;
nodes = (
(863,286,l),
(863,287,l),
(701,530,l),
(299,530,l),
(299,286,l)
);
},
{
attr = {
gradient = {
colors = (
(
(191,255),
0
),
(
(64,255),
1
)
);
end = (0.95,0.6375);
start = (0.0771,0.812);
};
};
closed = 1;
nodes = (
(609,0,l),
(609,244,l),
(45,244,l),
(45,243,l),
(147,0,l)
);
},
{
attr = {
gradient = {
colors = (
(
(64,255),
0
),
(
(191,255),
1
)
);
end = (0.6378,0.8208);
start = (0.6782,0.0492);
};
};
closed = 1;
nodes = (
(299,244,l),
(299,530,l),
(298,530,l),
(45,423,l),
(45,244,l)
);
},
{
attr = {
gradient = {
colors = (
(
(64,255),
0
),
(
(191,255),
1
)
);
end = (0.1375,0.1111);
start = (0.0884,0.9372);
};
};
closed = 1;
nodes = (
(610,0,l),
(863,107,l),
(863,286,l),
(609,286,l),
(609,0,l)
);
}
);
width = 898;
}
);
unicode = 100;
},
{
glyphname = eth;
kernLeft = o;
lastChange = "2022-08-12 14:35:41 +0000";
layers = (
{
anchors = (
{
name = top;
pos = (103,500);
}
);
attr = {
color = "1";
};
layerId = "33AE93C6-B8B3-427A-A53B-F24970E840CE";
shapes = (
{
attr = {
gradient = {
colors = (
(
(191,255),
0
),
(
(64,255),
0.28154
),
(
(64,255),
0.63607
),
(
(191,255),
1
)
);
end = (0.9313,0.7093);
start = (0.0827,0.3249);
};
identifier = ID0x60000049aa00;
};
closed = 1;
nodes = (
(172,623,l),
(172,624,l),
(166,646,l),
(59,617,l),
(59,616,l),
(65,594,l)
);
},
{
attr = {
gradient = {
colors = (
(
(64,255),
0
),
(
(191,255),
1
)
);
end = (0.0891,0.9826);
start = (0.8367,0.0994);
};
identifier = ID0x60000049aa00;
};
closed = 1;
nodes = (
(150,477,l),
(100,730,l),
(76,730,l),
(76,729,l),
(126,500,l),
(149,477,l)
);
},
{
attr = {
gradient = {
colors = (
(
(191,255),
0
),
(
(64,255),
1
)
);
end = (0.8878,0.5878);
start = (0.1611,0.7461);
};
identifier = ID0x60000049aa00;
};
closed = 1;
nodes = (
(126,0,l),
(126,24,l),
(53,24,l),
(53,23,l),
(76,0,l)
);
},
{
attr = {
gradient = {
colors = (
(
(64,255),
0
),
(
(191,255),
1
)
);
end = (0.4877,0.9217);
start = (0.4509,0.0177);
};
identifier = ID0x60000049aa00;
};
closed = 1;
nodes = (
(77,24,l),
(77,500,l),
(76,500,l),
(53,477,l),
(53,24,l)
);
},
{
attr = {
gradient = {
colors = (
(
(64,255),
0
),
(
(191,255),
1
)
);
end = (0.4056,0.1204);
start = (0.4192,0.8964);
};
identifier = ID0x60000049aa00;
};
closed = 1;
nodes = (
(127,0,l),
(150,23,l),
(150,476,l),
(126,476,l),
(126,0,l)
);
},
{
attr = {
gradient = {
colors = (
(
(64,255),
0
),
(
(191,255),
1
)
);
end = (0.7309,0.4062);
start = (0.0693,0.513);
};
identifier = ID0x60000049aa00;
};
closed = 1;
nodes = (
(150,476,l),
(150,477,l),
(127,500,l),
(77,500,l),
(77,476,l)
);
}
);
width = 203;
},
{
anchors = (
{
name = top;
pos = (462,530);
}
);
attr = {
color = "1";
};
layerId = m003;
shapes = (
{
attr = {
gradient = {
colors = (
(
(191,255),
0
),
(
(64,255),
0.21195
),
(
(64,255),
0.69947
),
(
(191,255),
1
)
);
end = (0.926,0.9277);
start = (0.0733,0.0904);
};
identifier = ID0x600000498620;
};
closed = 1;
nodes = (
(800,659,l),
(800,660,l),
(764,799,l),
(198,683,l),
(198,682,l),
(234,543,l)
);
},
{
attr = {
gradient = {
colors = (
(
(64,255),
0
),
(
(191,255),
1
)
);
end = (0.0445,0.9815);
start = (0.6047,0.5063);
};
identifier = ID0x600000498620;
};
closed = 1;
nodes = (
(863,289,l),
(573,794,l),
(299,794,l),
(299,793,l),
(479,530,l),
(862,289,l)
);
},
{
attr = {
gradient = {
colors = (
(
(191,255),
0
),
(
(64,255),
1
)
);
end = (0.9516,0.4999);
start = (0.0915,0.8153);
};
identifier = ID0x600000498620;
};
closed = 1;
nodes = (
(609,0,l),
(609,244,l),
(45,244,l),
(45,243,l),
(147,0,l)
);
},
{
attr = {
gradient = {
colors = (
(
(64,255),
0
),
(
(191,255),
1
)
);
end = (0.822,0.8759);
start = (0.6183,0.0285);
};
identifier = ID0x600000498620;
};
closed = 1;
nodes = (
(299,244,l),
(299,530,l),
(298,530,l),
(45,423,l),
(45,244,l)
);
},
{
attr = {
gradient = {
colors = (
(
(64,255),
0
),
(
(191,255),
1
)
);
end = (0.2767,0.1582);
start = (0.1696,0.928);
};
identifier = ID0x600000498620;
};
closed = 1;
nodes = (
(610,0,l),
(863,107,l),
(863,286,l),
(609,286,l),
(609,0,l)
);
},
{
attr = {
gradient = {
colors = (
(
(64,255),
0
),
(
(191,255),
1
)
);
end = (0.6729,0.9127);
start = (0.0183,0.1613);
};
identifier = ID0x600000498620;
};
closed = 1;
nodes = (
(863,286,l),
(863,287,l),
(711,530,l),
(299,530,l),
(299,286,l)
);
}
);
width = 898;
}
);
unicode = 240;
},
{
glyphname = dcroat;
kernLeft = o;
lastChange = "2022-08-12 14:35:41 +0000";
layers = (
{
attr = {
color = "1";
};
layerId = "33AE93C6-B8B3-427A-A53B-F24970E840CE";
shapes = (
{
attr = {
gradient = {
colors = (
(
(191,255),
0
),
(
(64,255),
0.5246
),
(
(64,255),
0.78843
),
(
(191,255),
1
)
);
end = (0.9558,0.4999);
start = (0.0105,0.4062);
};
identifier = ID0x600005479180;
};
closed = 1;
nodes = (
(174,576,l),
(174,600,l),
(23,600,l),
(23,576,l)
);
},
{
ref = d;
}
);
width = 197;
},
{
attr = {
color = "1";
};
layerId = m003;
shapes = (
{
attr = {
gradient = {
colors = (
(
(191,255),
0
),
(
(64,255),
0.55503
),
(
(64,255),
0.84608
),
(
(191,255),
1
)
);
end = (0.9558,0.4999);
start = (0.0105,0.4062);
};
identifier = ID0x60000049aa00;
};
closed = 1;
nodes = (
(841,562,l),
(841,700,l),
(142,700,l),
(142,562,l)
);
},
{
ref = d;
}
);
width = 898;
}
);
unicode = 273;
},
{
glyphname = e;
kernLeft = o;
lastChange = "2022-08-12 14:35:41 +0000";
layers = (
{
anchors = (
{
name = bottom;
pos = (101,0);
},
{
name = top;
pos = (100,500);
}
);
attr = {
color = "1";
};
layerId = "33AE93C6-B8B3-427A-A53B-F24970E840CE";
shapes = (
{
attr = {
gradient = {
colors = (
(
(191,255),
0
),
(
(64,255),
1
)
);
end = (0.8107,0.54);
start = (0.1711,0.5271);
};
};
closed = 1;
nodes = (
(124,0,l),
(147,23,l),
(147,24,l),
(50,24,l),
(50,23,l),
(73,0,l)
);
},
{
attr = {
gradient = {
colors = (
(
(64,255),
0
),
(
(191,255),
1
)
);
end = (0.4877,0.9217);
start = (0.4757,0.0116);
};
};
closed = 1;
nodes = (
(74,24,l),
(74,500,l),
(73,500,l),
(50,477,l),
(50,24,l)
);
},
{
attr = {
gradient = {
colors = (
(
(64,255),
0
),
(
(191,255),
1
)
);
end = (0.0467,0.7842);
start = (0.8968,0.317);
};
};
closed = 1;
nodes = (
(123,202,l),
(123,226,l),
(74,226,l),
(74,202,l)
);
},
{
attr = {
gradient = {
colors = (
(
(64,255),
0
),
(
(191,255),
1
)
);
end = (0.823,0.2226);
start = (0.0693,0.513);
};
};
closed = 1;
nodes = (
(147,476,l),
(147,477,l),
(124,500,l),
(74,500,l),
(74,476,l)
);
},
{
attr = {
gradient = {
colors = (
(
(64,255),
0
),
(
(191,255),
1
)
);
end = (0.4056,0.1204);
start = (0.4192,0.8964);
};
};
closed = 1;
nodes = (
(124,202,l),
(147,225,l),
(147,476,l),
(123,476,l),
(123,202,l)
);
}
);
width = 197;
},
{
anchors = (
{
name = bottom;
pos = (411,0);
},
{
name = top;
pos = (472,530);
}
);
attr = {
color = "1";
};
layerId = m003;
shapes = (
{
attr = {
gradient = {
colors = (
(
(191,255),
0
),
(
(64,255),
1
)
);
end = (0.8878,0.5878);
start = (0.0918,0.6131);
};
};
closed = 1;
nodes = (
(765,0,l),
(872,199,l),
(872,200,l),
(25,200,l),
(25,199,l),
(132,0,l)
);
},
{
attr = {
gradient = {
colors = (
(
(64,255),
0
),
(
(191,255),
1
)
);
end = (0.6492,0.8137);
start = (0.4624,0.0944);
};
};
closed = 1;
nodes = (
(279,200,l),
(279,530,l),
(278,530,l),
(25,423,l),
(25,200,l)
);
},
{
attr = {
gradient = {
colors = (
(
(64,255),
0
),
(
(191,255),
1
)
);
end = (0.0787,0.2398);
start = (0.9373,0.6017);
};
};
closed = 1;
nodes = (
(618,221,l),
(618,311,l),
(279,311,l),
(279,220,l)
);
},
{
attr = {
gradient = {
colors = (
(
(64,255),
0
),
(
(191,255),
1
)
);
end = (0.8662,0.506);
start = (0.0693,0.513);
};
};
closed = 1;
nodes = (
(872,330,l),
(872,331,l),
(765,530,l),
(279,530,l),
(279,330,l)
);
},
{
attr = {
gradient = {
colors = (
(
(64,255),
0
),
(
(191,255),
1
)
);
end = (0.0532,0.0946);
start = (0.1536,0.9185);
};
};
closed = 1;
nodes = (
(619,221,l),
(872,298,l),
(872,330,l),
(618,330,l),
(618,221,l)
);
}
);
width = 902;
}
);
unicode = 101;
},
{
glyphname = schwa;
kernLeft = z;
kernRight = o;
lastChange = "2022-08-12 14:35:41 +0000";
layers = (
{
attr = {
color = "1";
};
layerId = "33AE93C6-B8B3-427A-A53B-F24970E840CE";
shapes = (
{
attr = {
gradient = {
colors = (
(
(64,255),
0
),
(
(191,255),
1
)
);
end = (0.8099,0.5313);
start = (0.0693,0.513);
};
};
closed = 1;
nodes = (
(150,476,l),
(150,477,l),
(127,500,l),
(53,500,l),
(53,477,l),
(53,476,l)
);
},
{
attr = {
gradient = {
colors = (
(
(191,255),
0
),
(
(64,255),
1
)
);
end = (0.4056,0.1204);
start = (0.4192,0.8964);
};
};
closed = 1;
nodes = (
(77,24,l),
(77,298,l),
(76,298,l),
(53,275,l),
(53,24,l)
);
},
{
attr = {
gradient = {
colors = (
(
(191,255),
0
),
(
(64,255),
1
)
);
end = (0.8878,0.5878);
start = (0.1743,0.6758);
};
};
closed = 1;
nodes = (
(126,0,l),
(126,24,l),
(53,24,l),
(53,23,l),
(76,0,l)
);
},
{
attr = {
gradient = {
colors = (
(
(191,255),
0
),
(
(64,255),
1
)
);
end = (0.063,0.1922);
start = (0.9325,0.8114);
};
};
closed = 1;
nodes = (
(126,274,l),
(126,298,l),
(77,298,l),
(77,274,l)
);
},
{
attr = {
gradient = {
colors = (
(
(191,255),
0
),
(
(64,255),
1
)
);
end = (0.4877,0.9217);
start = (0.255,0.0271);
};
};
closed = 1;
nodes = (
(127,0,l),
(150,23,l),
(150,476,l),
(126,476,l),
(126,0,l)
);
}
);
width = 203;
},
{
attr = {
color = "1";
};
layerId = m003;
shapes = (
{
attr = {
gradient = {
colors = (
(
(64,255),
0
),
(
(191,255),
1
)
);
end = (0.8878,0.5878);
start = (0.0883,0.5001);
};
};
closed = 1;
nodes = (
(882,330,l),
(882,331,l),
(775,530,l),
(142,530,l),
(35,331,l),
(35,330,l)
);
},
{
attr = {
gradient = {
colors = (
(
(191,255),
0
),
(
(64,255),
1
)
);
end = (0.9008,0.0765);
start = (0.8382,0.7976);
};
};
closed = 1;
nodes = (
(289,200,l),
(289,309,l),
(288,309,l),
(35,233,l),
(35,200,l)
);
},
{
attr = {
gradient = {
colors = (
(
(191,255),
0
),
(
(64,255),
1
)
);
end = (0.8878,0.5878);
start = (0.1009,0.6923);
};
};
closed = 1;
nodes = (
(628,0,l),
(628,200,l),
(35,200,l),
(35,199,l),
(142,0,l)
);
},
{
attr = {
gradient = {
colors = (
(
(191,255),
0
),
(
(64,255),
1
)
);
end = (0.029,0.1239);
start = (0.9373,0.6017);
};
};
closed = 1;
nodes = (
(628,219,l),
(628,310,l),
(289,309,l),
(289,219,l)
);
},
{
attr = {
gradient = {
colors = (
(
(191,255),
0
),
(
(64,255),
1
)
);
end = (0.4877,0.9217);
start = (0.1157,0.0724);
};
};
closed = 1;
nodes = (
(629,0,l),
(882,107,l),
(882,330,l),
(628,330,l),
(628,0,l)
);
}
);
width = 917;
}
);
unicode = 601;
},
{
glyphname = f;
kernLeft = A;
lastChange = "2022-08-12 14:35:41 +0000";
layers = (
{
attr = {
color = "1";
};
layerId = "33AE93C6-B8B3-427A-A53B-F24970E840CE";
shapes = (
{
attr = {
gradient = {
colors = (
(
(64,255),
0
),
(
(191,255),
1
)
);
end = (0.1103,0.873);
start = (0.9732,0.7372);
};
};
closed = 1;
nodes = (
(128,353,l),
(128,377,l),
(51,377,l),
(74,353,l)
);
},
{
attr = {
gradient = {
colors = (
(
(191,255),
0
),
(
(64,255),
1
)
);
end = (0.7085,0.037);
start = (0.4071,0.9445);
};
};
closed = 1;
nodes = (
(74,0,l),
(74,353,l),
(51,377,l),
(50,377,l),
(50,0,l)
);
},
{
attr = {
gradient = {
colors = (
(
(64,255),
0
),
(
(191,255),
1
)
);
end = (0.7047,0.9664);
start = (0.4975,0.0797);
};
};
closed = 1;
nodes = (
(74,377,l),
(74,700,l),
(73,700,l),
(50,677,l),
(50,377,l)
);
},
{
attr = {
gradient = {
colors = (
(
(191,255),
0
),
(
(64,255),
1
)
);
end = (0.086,0.0815);
start = (0.8939,0.2202);
};
};
closed = 1;
nodes = (
(157,676,l),
(157,677,l),
(134,700,l),
(74,700,l),
(74,676,l)
);
}
);
width = 157;
},
{
attr = {
color = "1";
};
layerId = m003;
shapes = (
{
attr = {
gradient = {
colors = (
(
(64,255),
0
),
(
(191,255),
1
)
);
end = (0.1375,0.9202);
start = (0.9716,0.7324);
};
};
closed = 1;
nodes = (
(623,173,l),
(623,417,l),
(36,417,l),
(289,173,l)
);
},
{
attr = {
gradient = {
colors = (
(
(191,255),
0
),
(
(64,255),
1
)
);
end = (0.7067,0.0664);
start = (0.0636,0.8971);
};
};
closed = 1;
nodes = (
(289,0,l),
(289,173,l),
(36,417,l),
(35,417,l),
(35,0,l)
);
},
{
attr = {
gradient = {
colors = (
(
(64,255),
0
),
(
(191,255),
1
)
);
end = (0.8799,0.8988);
start = (0.4975,0.0797);
};
};
closed = 1;
nodes = (
(289,417,l),
(289,703,l),
(288,703,l),
(35,596,l),
(35,417,l)
);
},
{
attr = {
gradient = {
colors = (
(
(191,255),
0
),
(
(64,255),
1
)
);
end = (0.086,0.0815);
start = (0.863,0.8719);
};
};
closed = 1;
nodes = (
(616,459,l),
(616,460,l),
(593,703,l),
(289,703,l),
(289,459,l)
);
}
);
width = 658;
}
);
unicode = 102;
},
{
color = 3;
glyphname = g;
kernLeft = g;
kernRight = g;
lastChange = "2022-08-12 14:35:41 +0000";
layers = (
{
anchors = (
{
name = top;
pos = (110,500);
}
);
attr = {
color = "1";
};
layerId = "33AE93C6-B8B3-427A-A53B-F24970E840CE";
shapes = (
{
attr = {
gradient = {
colors = (
(
(64,255),
0
),
(
(191,255),
1
)
);
end = (0.8766,0.7494);
start = (0.0693,0.513);
};
};
closed = 1;
nodes = (
(164,476,l),
(187,499,l),
(187,500,l),
(74,500,l),
(74,476,l)
);
},
{
attr = {
gradient = {
colors = (
(
(191,255),
0
),
(
(64,255),
1
)
);
end = (0.7799,0.5059);
start = (0.0628,0.7658);
};
};
closed = 1;
nodes = (
(123,-200,l),
(123,-176,l),
(50,-176,l),
(50,-177,l),
(50,-200,l)
);
},
{
attr = {
gradient = {
colors = (
(
(191,255),
0
),
(
(64,255),
1
)
);
end = (0.8878,0.5878);
start = (0.1701,0.8471);
};
};
closed = 1;
nodes = (
(123,0,l),
(123,24,l),
(50,24,l),
(50,23,l),
(73,0,l)
);
},
{
attr = {
gradient = {
colors = (
(
(191,255),
0
),
(
(64,255),
1
)
);
end = (0.4818,0.0261);
start = (0.4808,0.942);
};
};
closed = 1;
nodes = (
(74,24,l),
(74,500,l),
(73,500,l),
(50,477,l),
(50,24,l)
);
},
{
attr = {
gradient = {
colors = (
(
(191,255),
0
),
(
(64,255),
1
)
);
end = (0.6244,0.9458);
start = (0.4303,0.0385);
};
};
closed = 1;
nodes = (
(124,-200,l),
(146,-177,l),
(147,476,l),
(123,476,l),
(123,-200,l)
);
}
);
width = 197;
},
{
anchors = (
{
name = top;
pos = (542,530);
}
);
attr = {
color = "1";
};
layerId = m003;
shapes = (
{
attr = {
gradient = {
colors = (
(
(64,255),
0
),
(
(191,255),
1
)
);
end = (0.8413,0.8745);
start = (0.0571,0.214);
};
};
closed = 1;
nodes = (
(824,286,l),
(910,529,l),
(910,530,l),
(289,530,l),
(289,286,l)
);
},
{
attr = {
gradient = {
colors = (
(
(191,255),
0
),
(
(64,255),
1
)
);
end = (0.9543,0.3891);
start = (0.0757,0.8195);
};
};
closed = 1;
nodes = (
(570,-206,l),
(570,-20,l),
(35,-20,l),
(35,-21,l),
(137,-206,l)
);
},
{
attr = {
gradient = {
colors = (
(
(191,255),
0
),
(
(64,255),
1
)
);
end = (0.8878,0.5878);
start = (0.0868,0.8585);
};
};
closed = 1;
nodes = (
(570,22,l),
(570,266,l),
(35,266,l),
(35,265,l),
(137,22,l)
);
},
{
attr = {
gradient = {
colors = (
(
(191,255),
0
),
(
(64,255),
1
)
);
end = (0.272,0.1083);
start = (0.9319,0.881);
};
};
closed = 1;
nodes = (
(289,266,l),
(289,530,l),
(288,530,l),
(35,423,l),
(35,266,l)
);
},
{
attr = {
gradient = {
colors = (
(
(191,255),
0
),
(
(64,255),
1
)
);
end = (0.1714,0.9328);
start = (0.1413,0.1014);
};
};
closed = 1;
nodes = (
(571,-206,l),
(824,-104,l),
(824,286,l),
(570,286,l),
(570,-206,l)
);
}
);
width = 910;
}
);
unicode = 103;
},
{
glyphname = h;
kernRight = n;
lastChange = "2022-08-12 14:35:41 +0000";
layers = (
{
anchors = (
{
name = stroke;
pos = (88,573);
},
{
name = top;
pos = (140,500);
}
);
attr = {
color = "1";
};
layerId = "33AE93C6-B8B3-427A-A53B-F24970E840CE";
shapes = (
{
attr = {
gradient = {
colors = (
(
(64,255),
0
),
(
(191,255),
0.52889
),
(
(64,255),
1
)
);
end = (0.1796,0.9809);
start = (0.7423,0.03);
};
};
closed = 1;
nodes = (
(74,0,l),
(74,730,l),
(50,730,l),
(50,0,l)
);
},
{
attr = {
gradient = {
colors = (
(
(64,255),
0
),
(
(191,255),
1
)
);
end = (0.4056,0.1204);
start = (0.4192,0.8964);
};
};
closed = 1;
nodes = (
(124,-3,l),
(147,20,l),
(147,476,l),
(123,476,l),
(123,-3,l)
);
},
{
attr = {
gradient = {
colors = (
(
(64,255),
0
),
(
(191,255),
1
)
);
end = (0.7791,0.4617);
start = (0.0693,0.513);
};
};
closed = 1;
nodes = (
(147,476,l),
(147,477,l),
(124,500,l),
(74,500,l),
(74,476,l)
);
}
);
width = 197;
},
{
anchors = (
{
name = stroke;
pos = (331,653);
},
{
name = top;
pos = (548,560);
}
);
attr = {
color = "1";
};
layerId = m003;
shapes = (
{
attr = {
gradient = {
colors = (
(
(64,255),
0
),
(
(191,255),
0.55524
),
(
(64,255),
1
)
);
end = (0.1035,0.9672);
start = (0.8323,0.036);
};
};
closed = 1;
nodes = (
(289,0,l),
(289,794,l),
(35,794,l),
(35,0,l)
);
},
{
attr = {
gradient = {
colors = (
(
(64,255),
0
),
(
(191,255),
1
)
);
end = (0.4056,0.1204);
start = (0.4192,0.8964);
};
};
closed = 1;
nodes = (
(599,-6,l),
(852,41,l),
(852,286,l),
(598,286,l),
(598,-6,l)
);
},
{
attr = {
gradient = {
colors = (
(
(64,255),
0
),
(
(191,255),
1
)
);
end = (0.845,0.5792);
start = (0.0693,0.513);
};
};
closed = 1;
nodes = (
(852,286,l),
(852,287,l),
(745,530,l),
(289,530,l),
(289,286,l)
);
}
);
width = 897;
}
);
unicode = 104;
},
{
glyphname = hbar;
kernRight = n;
lastChange = "2022-08-12 14:35:41 +0000";
layers = (
{
anchors = (
{
name = _stroke;
pos = (91,573);
}
);
attr = {
color = "1";
};
layerId = "33AE93C6-B8B3-427A-A53B-F24970E840CE";
shapes = (
{
attr = {
gradient = {
colors = (
(
(191,255),
0
),
(
(64,255),
0.3071
),
(
(64,255),
0.66009
),
(
(128,255),
1
)
);
end = (0.9558,0.4999);
start = (0.0105,0.4062);
};
identifier = ID0x600006069c00;
};
closed = 1;
nodes = (
(172,561,l),
(172,585,l),
(11,585,l),
(11,561,l)
);
},
{
ref = h;
}
);
width = 200;
},
{
anchors = (
{
name = _stroke;
pos = (291,653);
}
);
attr = {
color = "1";
};
layerId = m003;
shapes = (
{
attr = {
gradient = {
colors = (
(
(191,255),
0
),
(
(64,255),
0.40456
),
(
(64,255),
0.5102
),
(
(128,255),
1
)
);
end = (0.9593,0.4883);
start = (0.0469,0.1884);
};
identifier = ID0x6000060997a0;
};
closed = 1;
nodes = (
(588,561,l),
(588,745,l),
(-6,745,l),
(-6,561,l)
);
},
{
ref = h;
}
);
width = 897;
}
);
unicode = 295;
},
{
glyphname = i;
kernLeft = i;
kernRight = i;
lastChange = "2022-08-12 14:35:41 +0000";
layers = (
{
anchors = (
{
name = bottom;
pos = (62,0);
}
);
attr = {
color = "1";
};
layerId = "33AE93C6-B8B3-427A-A53B-F24970E840CE";
shapes = (
{
attr = {
gradient = {
colors = (
(
(64,255),
0
),
(
(191,255),
1
)
);
end = (0.4877,0.9217);
start = (0.4123,0.0184);
};
};
closed = 1;
nodes = (
(74,0,l),
(74,503,l),
(73,503,l),
(50,480,l),
(50,0,l)
);
},
{
attr = {
gradient = {
colors = (
(
(64,255),
0
),
(
(191,255),
1
)
);
end = (0.1852,0.1295);
start = (0.641,0.8525);
};
};
closed = 1;
nodes = (
(51,542,l),
(74,565,l),
(74,615,l),
(50,615,l),
(50,542,l)
);
}
);
width = 124;
},
{
anchors = (
{
name = bottom;
pos = (171,0);
}
);
attr = {
color = "1";
};
layerId = m003;
shapes = (
{
attr = {
gradient = {
colors = (
(
(64,255),
0
),
(
(191,255),
1
)
);
end = (0.7154,0.8978);
start = (0.4165,0.0459);
};
};
closed = 1;
nodes = (
(299,0,l),
(299,503,l),
(298,503,l),
(45,393,l),
(45,0,l)
);
},
{
attr = {
gradient = {
colors = (
(
(64,255),
0
),
(
(191,255),
1
)
);
end = (0.0633,0.0915);
start = (0.8953,0.8967);
};
};
closed = 1;
nodes = (
(46,469,l),
(299,576,l),
(299,682,l),
(45,682,l),
(45,469,l)
);
}
);
width = 344;
}
);
metricRight = "=|";
unicode = 105;
},
{
glyphname = idotless;
kernLeft = i;
kernRight = i;
lastChange = "2022-08-12 14:35:41 +0000";
layers = (
{
anchors = (
{
name = bottom;
pos = (65,0);
},
{
name = top;
pos = (63,500);
}
);
attr = {
color = "1";
};
layerId = "33AE93C6-B8B3-427A-A53B-F24970E840CE";
shapes = (
{
attr = {
gradient = {
colors = (
(
(64,255),
0
),
(
(191,255),
1
)
);
end = (0.7215,0.8971);
start = (0.2597,0.0255);
};
};
closed = 1;
nodes = (
(77,0,l),
(77,503,l),
(76,503,l),
(53,480,l),
(53,0,l)
);
}
);
width = 130;
},
{
anchors = (
{
name = bottom;
pos = (171,0);
},
{
name = top;
pos = (179,530);
}
);
attr = {
color = "1";
};
layerId = m003;
shapes = (
{
attr = {
gradient = {
colors = (
(
(64,255),
0
),
(
(191,255),
1
)
);
end = (0.7905,0.8874);
start = (0.4318,0.0476);
};
};
closed = 1;
nodes = (
(299,0,l),
(299,530,l),
(298,530,l),
(45,530,l),
(45,0,l)
);
}
);
width = 344;
}
);
unicode = 305;
},
{
glyphname = ibreve;
lastChange = "2022-08-12 14:35:41 +0000";
layers = (
{
attr = {
color = "1";
};
layerId = "33AE93C6-B8B3-427A-A53B-F24970E840CE";
shapes = (
{
attr = {
gradient = {
colors = (
(
(64,255),
0
),
(
(191,255),
1
)
);
end = (0.0849,0.8846);
start = (0.8308,0.1575);
};
identifier = ID0x600000c5e220;
};
closed = 1;
nodes = (
(94,590,l),
(104,612,l),
(32,612,l),
(42,590,l)
);
},
{
pos = (6,0);
ref = idotless;
},
{
attr = {
gradient = {
colors = (
(
(64,255),
0
),
(
(191,255),
1
)
);
end = (0.1067,0.9471);
start = (0.8793,0.0564);
};
identifier = ID0x600000c5e220;
};
closed = 1;
nodes = (
(55,612,l),
(36,662,l),
(10,662,l),
(10,661,l),
(32,612,l)
);
},
{
attr = {
gradient = {
colors = (
(
(64,255),
0
),
(
(191,255),
1
)
);
end = (0.499,0.9432);
start = (0.4724,0.0536);
};
identifier = ID0x600000c5e220;
};
closed = 1;
nodes = (
(104,612,l),
(126,661,l),
(126,662,l),
(100,662,l),
(81,612,l)
);
}
);
width = 136;
},
{
attr = {
color = "1";
};
layerId = m003;
shapes = (
{
attr = {
gradient = {
colors = (
(
(64,255),
0
),
(
(191,255),
1
)
);
end = (0.5318,0.8836);
start = (0.774,0.0476);
};
identifier = ID0x600000c5e3e0;
};
closed = 1;
nodes = (
(311,598,l),
(372,700,l),
(55,700,l),
(116,598,l)
);
},
{
pos = (41,0);
ref = idotless;
},
{
attr = {
gradient = {
colors = (
(
(64,255),
0
),
(
(191,255),
1
)
);
end = (0.2139,0.9136);
start = (0.8745,0.0922);
};
identifier = ID0x600000c5e3e0;
};
closed = 1;
nodes = (
(191,700,l),
(144,780,l),
(8,780,l),
(8,778,l),
(55,700,l)
);
},
{
attr = {
gradient = {
colors = (
(
(64,255),
0
),
(
(191,255),
1
)
);
end = (0.3049,0.9009);
start = (0.6331,0.083);
};
identifier = ID0x600000c5e3e0;
};
closed = 1;
nodes = (
(372,700,l),
(419,779,l),
(419,780,l),
(293,780,l),
(246,700,l)
);
}
);
width = 427;
}
);
metricRight = "=|";
unicode = 301;
},
{
glyphname = idblgrave;
lastChange = "2022-08-12 14:35:41 +0000";
layers = (
{
attr = {
color = "1";
};
layerId = "33AE93C6-B8B3-427A-A53B-F24970E840CE";
shapes = (
{
attr = {
gradient = {
colors = (
(
(191,255),
0
),
(
(64,255),
1
)
);
end = (0.1992,0.957);
start = (0.7701,0.0364);
};
identifier = ID0x600000c5e920;
};
closed = 1;
nodes = (
(128,570,l),
(103,700,l),
(72,700,l),
(72,699,l),
(104,570,l)
);
},
{
pos = (19,0);
ref = idotless;
},
{
attr = {
gradient = {
colors = (
(
(191,255),
0
),
(
(64,255),
1
)
);
end = (0.2029,0.9527);
start = (0.6503,0.0463);
};
identifier = ID0x600000c5e920;
};
closed = 1;
nodes = (
(76,570,l),
(51,700,l),
(20,700,l),
(20,699,l),
(52,570,l)
);
}
);
width = 149;
},
{
attr = {
color = "1";
};
layerId = m003;
shapes = (
{
attr = {
gradient = {
colors = (
(
(191,255),
0
),
(
(64,255),
1
)
);
end = (0.7176,0.8948);
start = (0.6334,0.0316);
};
identifier = ID0x600000c5eae0;
};
closed = 1;
nodes = (
(346,590,l),
(301,820,l),
(140,820,l),
(140,819,l),
(245,590,l)
);
},
{
pos = (9,0);
ref = idotless;
},
{
attr = {
gradient = {
colors = (
(
(191,255),
0
),
(
(64,255),
1
)
);
end = (0.7325,0.9178);
start = (0.669,0.0429);
};
identifier = ID0x600000c5eae0;
};
closed = 1;
nodes = (
(176,590,l),
(131,820,l),
(-30,820,l),
(-30,819,l),
(75,590,l)
);
}
);
width = 366;
}
);
unicode = 521;
},
{
glyphname = idieresis;
lastChange = "2022-08-12 14:35:41 +0000";
layers = (
{
attr = {
color = "1";
};
layerId = "33AE93C6-B8B3-427A-A53B-F24970E840CE";
shapes = (
{
attr = {
gradient = {
colors = (
(
(191,255),
0
),
(
(64,255),
1
)
);
end = (0.3019,0.1131);
start = (0.7557,0.8678);
};
identifier = ID0x600000c5eca0;
};
closed = 1;
nodes = (
(106,601,l),
(106,635,l),
(75,635,l),
(75,601,l)
);
},
{
ref = idotless;
},
{
attr = {
gradient = {
colors = (
(
(191,255),
0
),
(
(64,255),
1
)
);
end = (0.4252,0.1139);
start = (0.7056,0.8813);
};
identifier = ID0x600000c5eca0;
};
closed = 1;
nodes = (
(51,601,l),
(51,635,l),
(20,635,l),
(20,601,l)
);
}
);
width = 130;
},
{
attr = {
color = "1";
};
layerId = m003;
shapes = (
{
attr = {
gradient = {
colors = (
(
(191,255),
0
),
(
(64,255),
1
)
);
end = (0.695,0.9224);
start = (0.431,0.1576);
};
identifier = ID0x600000c5ee60;
};
closed = 1;
nodes = (
(344,640,l),
(344,772,l),
(188,772,l),
(188,640,l)
);
},
{
pos = (3,0);
ref = idotless;
},
{
attr = {
gradient = {
colors = (
(
(191,255),
0
),
(
(64,255),
1
)
);
end = (0.6524,0.8265);
start = (0.4605,0.1213);
};
identifier = ID0x600000c5ee60;
};
closed = 1;
nodes = (
(156,640,l),
(156,772,l),
(0,772,l),
(0,640,l)
);
}
);
width = 344;
}
);
unicode = 239;
},
{
glyphname = ihookabove;
lastChange = "2022-08-12 14:35:41 +0000";
layers = (
{
attr = {
color = "1";
};
layerId = "33AE93C6-B8B3-427A-A53B-F24970E840CE";
shapes = (
{
attr = {
gradient = {
colors = (
(
(64,255),
0
),
(
(191,255),
1
)
);
end = (0.2189,0.0442);
start = (0.8383,0.6947);
};
identifier = ID0x600000c5faa0;
};
closed = 1;
nodes = (
(72,583,l),
(105,654,l),
(105,655,l),
(87,678,l),
(49,584,l),
(49,583,l)
);
},
{
ref = idotless;
},
{
attr = {
gradient = {
colors = (
(
(64,255),
0
),
(
(191,255),
1
)
);
end = (0.8451,0.2117);
start = (0.0394,0.843);
};
identifier = ID0x600000c5faa0;
};
closed = 1;
nodes = (
(105,654,l),
(105,655,l),
(87,678,l),
(28,678,l),
(28,654,l)
);
}
);
width = 130;
},
{
attr = {
color = "1";
};
layerId = m003;
shapes = (
{
attr = {
gradient = {
colors = (
(
(64,255),
0
),
(
(191,255),
1
)
);
end = (0.1878,0.0324);
start = (0.8623,0.542);
};
identifier = ID0x600000c5fc60;
};
closed = 1;
nodes = (
(109,586,l),
(206,586,l),
(287,716,l),
(287,717,l),
(190,860,l),
(108,586,l)
);
},
{
ref = idotless;
},
{
attr = {
gradient = {
colors = (
(
(64,255),
0
),
(
(191,255),
1
)
);
end = (0.8425,0.1805);
start = (0.0715,0.8674);
};
identifier = ID0x600000c5fc60;
};
closed = 1;
nodes = (
(287,716,l),
(287,717,l),
(190,860,l),
(29,860,l),
(29,716,l)
);
}
);
width = 284;
}
);
unicode = 7881;
},
{
glyphname = iinvertedbreve;
lastChange = "2022-08-12 14:35:41 +0000";
layers = (
{
attr = {
color = "1";
};
layerId = "33AE93C6-B8B3-427A-A53B-F24970E840CE";
shapes = (
{
attr = {
gradient = {
colors = (
(
(64,255),
0
),
(
(191,255),
1
)
);
end = (0.4377,0.6613);
start = (0.923,0.2208);
};
identifier = ID0x600000c5e220;
};
closed = 1;
nodes = (
(98,640,l),
(88,662,l),
(36,662,l),
(26,640,l)
);
},
{
ref = idotless;
},
{
attr = {
gradient = {
colors = (
(
(64,255),
0
),
(
(191,255),
1
)
);
end = (0.5281,0.0786);
start = (0.7274,0.9395);
};
identifier = ID0x600000c5e220;
};
closed = 1;
nodes = (
(30,590,l),
(49,640,l),
(26,640,l),
(4,591,l),
(4,590,l)
);
},
{
attr = {
gradient = {
colors = (
(
(64,255),
0
),
(
(191,255),
1
)
);
end = (0.8794,0.0856);
start = (0.156,0.9277);
};
identifier = ID0x600000c5e220;
};
closed = 1;
nodes = (
(120,590,l),
(120,591,l),
(98,640,l),
(75,640,l),
(94,590,l)
);
}
);
width = 130;
},
{
attr = {
color = "1";
};
layerId = m003;
shapes = (
{
attr = {
gradient = {
colors = (
(
(64,255),
0
),
(
(191,255),
1
)
);
end = (0.494,0.8745);
start = (0.8712,0.125);
};
identifier = ID0x600000c5e3e0;
};
closed = 1;
nodes = (
(372,678,l),
(311,780,l),
(116,780,l),
(55,678,l)
);
},
{
pos = (41,0);
ref = idotless;
},
{
attr = {
gradient = {
colors = (
(
(64,255),
0
),
(
(191,255),
1
)
);
end = (0.5075,0.094);
start = (0.4213,0.928);
};
identifier = ID0x600000c5e3e0;
};
closed = 1;
nodes = (
(144,598,l),
(191,678,l),
(55,678,l),
(8,600,l),
(8,598,l)
);
},
{
attr = {
gradient = {
colors = (
(
(64,255),
0
),
(
(191,255),
1
)
);
end = (0.359,0.1146);
start = (0.2745,0.9195);
};
identifier = ID0x600000c5e3e0;
};
closed = 1;
nodes = (
(419,598,l),
(419,599,l),
(372,678,l),
(246,678,l),
(293,598,l)
);
}
);
width = 367;
}
);
unicode = 523;
},
{
glyphname = ij;
lastChange = "2022-08-17 11:15:05 +0000";
layers = (
{
anchors = (
{
name = bottom;
pos = (62,0);
}
);
attr = {
color = 1;
};
layerId = "33AE93C6-B8B3-427A-A53B-F24970E840CE";
shapes = (
{
attr = {
gradient = {
colors = (
(
(64,255),
0
),
(
(191,255),
1
)
);
end = (0.4877,0.9217);
start = (0.4123,0.0184);
};
identifier = ID0x7f9d1dde84c0;
};
closed = 1;
nodes = (
(74,0,l),
(74,503,l),
(73,503,l),
(50,480,l),
(50,0,l)
);
},
{
attr = {
gradient = {
colors = (
(
(64,255),
0
),
(
(191,255),
1
)
);
end = (0.1852,0.1295);
start = (0.641,0.8525);
};
identifier = ID0x7f9d1dde84c0;
};
closed = 1;
nodes = (
(51,542,l),
(74,565,l),
(74,615,l),
(50,615,l),
(50,542,l)
);
},
{
attr = {
gradient = {
colors = (
(
(191,255),
0
),
(
(64,255),
0.53055
),
(
(191,255),
1
)
);
end = (0.3107,0.0266);
start = (0.5254,0.9172);
};
identifier = ID0x7f9d1e2cdd30;
};
closed = 1;
nodes = (
(155,-200,l),
(178,-177,l),
(178,503,l),
(177,503,l),
(154,480,l),
(154,-200,l)
);
},
{
attr = {
gradient = {
colors = (
(
(64,255),
0
),
(
(191,255),
1
)
);
end = (0.0955,0.313);
start = (0.9233,0.7617);
};
identifier = ID0x7f9d1e2cdd30;
};
closed = 1;
nodes = (
(154,-200,l),
(154,-176,l),
(50,-176,l),
(50,-200,l)
);
},
{
attr = {
gradient = {
colors = (
(
(64,255),
0
),
(
(191,255),
1
)
);
end = (0.2266,0.1743);
start = (0.6767,0.9012);
};
identifier = ID0x7f9d1e2cdd30;
};
closed = 1;
nodes = (
(155,542,l),
(178,565,l),
(178,615,l),
(154,615,l),
(154,542,l)
);
}
);
width = 228;
},
{
anchors = (
{
name = bottom;
pos = (141,0);
}
);
attr = {
color = 1;
};
layerId = m003;
shapes = (
{
attr = {
gradient = {
colors = (
(
(64,255),
0
),
(
(191,255),
1
)
);
end = (0.7154,0.8978);
start = (0.4165,0.0459);
};
identifier = ID0x7f9d1d4ed1b0;
};
closed = 1;
nodes = (
(299,60,l),
(299,503,l),
(298,503,l),
(45,393,l),
(45,60,l)
);
},
{
attr = {
gradient = {
colors = (
(
(64,255),
0
),
(
(191,255),
1
)
);
end = (0.0633,0.0915);
start = (0.8953,0.8967);
};
identifier = ID0x7f9d1d4ed1b0;
};
closed = 1;
nodes = (
(46,469,l),
(299,576,l),
(299,682,l),
(45,682,l),
(45,469,l)
);
},
{
attr = {
gradient = {
colors = (
(
(191,255),
0
),
(
(64,255),
0.52921
),
(
(191,255),
1
)
);
end = (0.0788,0.0337);
start = (0.936,0.9676);
};
identifier = ID0x7f9d1d4a4a70;
};
closed = 1;
nodes = (
(377,-206,l),
(610,-99,l),
(610,503,l),
(609,503,l),
(376,393,l),
(376,-206,l)
);
},
{
attr = {
gradient = {
colors = (
(
(64,255),
0
),
(
(191,255),
1
)
);
end = (0.1321,0.1703);
start = (0.9215,0.7533);
};
identifier = ID0x7f9d1d4a4a70;
};
closed = 1;
nodes = (
(376,-206,l),
(376,-6,l),
(45,-6,l),
(45,-206,l)
);
},
{
attr = {
gradient = {
colors = (
(
(64,255),
0
),
(
(191,255),
1
)
);
end = (0.0649,0.1567);
start = (0.9344,0.9382);
};
identifier = ID0x7f9d1d4a4a70;
};
closed = 1;
nodes = (
(377,469,l),
(610,576,l),
(610,682,l),
(376,682,l),
(376,469,l)
);
}
);
width = 655;
}
);
metricLeft = i;
metricRight = j;
unicode = 307;
},
{
glyphname = imacron;
lastChange = "2022-08-12 14:35:41 +0000";
layers = (
{
attr = {
color = "1";
};
layerId = "33AE93C6-B8B3-427A-A53B-F24970E840CE";
shapes = (
{
attr = {
gradient = {
colors = (
(
(191,255),
0
),
(
(64,255),
1
)
);
end = (0.9244,0.171);
start = (0.0676,0.7243);
};
identifier = ID0x60000331f480;
};
closed = 1;
nodes = (
(118,611,l),
(118,635,l),
(8,635,l),
(8,611,l)
);
},
{
ref = idotless;
}
);
width = 130;
},
{
attr = {
color = "1";
};
layerId = m003;
shapes = (
{
attr = {
gradient = {
colors = (
(
(191,255),
0
),
(
(64,255),
1
)
);
end = (0.8467,0.8358);
start = (0.2521,0.0684);
};
identifier = ID0x60000062a140;
};
closed = 1;
nodes = (
(350,638,l),
(350,750,l),
(-6,750,l),
(-6,638,l)
);
},
{
ref = idotless;
}
);
width = 344;
}
);
unicode = 299;
},
{
glyphname = itilde;
lastChange = "2022-08-12 14:35:41 +0000";
layers = (
{
attr = {
color = "1";
};
layerId = "33AE93C6-B8B3-427A-A53B-F24970E840CE";
shapes = (
{
ref = idotless;
},
{
attr = {
gradient = {
colors = (
(
(64,255),
0
),
(
(191,255),
1
)
);
end = (0.2147,0.1146);
start = (0.5207,0.6679);
};
identifier = ID0x600000c589a0;
};
closed = 1;
nodes = (
(43,581,l),
(43,630,l),
(23,629,l),
(23,581,l)
);
},
{
attr = {
gradient = {
colors = (
(
(64,255),
0
),
(
(191,255),
1
)
);
end = (0.7387,0.8834);
start = (0.2835,0.2471);
};
identifier = ID0x600000c589a0;
};
closed = 1;
nodes = (
(104,593,l),
(104,642,l),
(84,642,l),
(84,593,l)
);
},
{
attr = {
gradient = {
colors = (
(
(64,255),
0
),
(
(191,255),
1
)
);
end = (0.2693,0.873);
start = (0.7547,0.1053);
};
identifier = ID0x600000c589a0;
};
closed = 1;
nodes = (
(83,583,l),
(103,592,l),
(103,593,l),
(44,639,l),
(43,639,l),
(23,630,l),
(23,629,l),
(82,583,l)
);
}
);
width = 130;
},
{
attr = {
color = "1";
};
layerId = m003;
shapes = (
{
ref = idotless;
},
{
attr = {
gradient = {
colors = (
(
(64,255),
0
),
(
(191,255),
1
)
);
end = (0.2257,0.0971);
start = (0.2109,0.8039);
};
identifier = ID0x600000c58b60;
};
closed = 1;
nodes = (
(132,603,l),
(132,713,l),
(12,732,l),
(12,603,l)
);
},
{
attr = {
gradient = {
colors = (
(
(64,255),
0
),
(
(191,255),
1
)
);
end = (0.8068,0.953);
start = (0.224,0.3411);
};
identifier = ID0x600000c58b60;
};
closed = 1;
nodes = (
(330,630,l),
(330,759,l),
(210,759,l),
(210,630,l)
);
},
{
attr = {
gradient = {
colors = (
(
(64,255),
0
),
(
(191,255),
1
)
);
end = (0.2966,0.9027);
start = (0.6925,0.0637);
};
identifier = ID0x600000c58b60;
};
closed = 1;
nodes = (
(232,590,l),
(330,629,l),
(330,630,l),
(111,772,l),
(110,772,l),
(12,733,l),
(12,732,l),
(231,590,l)
);
}
);
width = 344;
}
);
unicode = 297;
},
{
glyphname = j;
kernLeft = j;
kernRight = j;
lastChange = "2022-08-18 12:54:40 +0000";
layers = (
{
attr = {
color = "1";
};
layerId = "33AE93C6-B8B3-427A-A53B-F24970E840CE";
shapes = (
{
attr = {
gradient = {
colors = (
(
(191,255),
0
),
(
(64,255),
0.53055
),
(
(191,255),
1
)
);
end = (0.3107,0.0266);
start = (0.5254,0.9172);
};
};
closed = 1;
nodes = (
(51,-200,l),
(74,-177,l),
(74,503,l),
(73,503,l),
(50,480,l),
(50,-200,l)
);
},
{
attr = {
gradient = {
colors = (
(
(64,255),
0
),
(
(191,255),
1
)
);
end = (0.0955,0.313);
start = (0.9233,0.7617);
};
};
closed = 1;
nodes = (
(50,-200,l),
(50,-176,l),
(-12,-176,l),
(-12,-200,l)
);
},
{
attr = {
gradient = {
colors = (
(
(64,255),
0
),
(
(191,255),
1
)
);
end = (0.2266,0.1743);
start = (0.6767,0.9012);
};
};
closed = 1;
nodes = (
(51,542,l),
(74,565,l),
(74,615,l),
(50,615,l),
(50,542,l)
);
}
);
width = 124;
},
{
attr = {
color = "1";
};
layerId = m003;
shapes = (
{
attr = {
gradient = {
colors = (
(
(191,255),
0
),
(
(64,255),
0.52921
),
(
(191,255),
1
)
);
end = (0.0788,0.0337);
start = (0.936,0.9676);
};
};
closed = 1;
nodes = (
(43,-206,l),
(296,-99,l),
(296,503,l),
(295,503,l),
(42,393,l),
(42,-206,l)
);
},
{
attr = {
gradient = {
colors = (
(
(64,255),
0
),
(
(191,255),
1
)
);
end = (0.1321,0.1703);
start = (0.9376,0.8614);
};
};
closed = 1;
nodes = (
(42,-206,l),
(42,-26,l),
(-150,-26,l),
(-150,-206,l)
);
},
{
attr = {
gradient = {
colors = (
(
(64,255),
0
),
(
(191,255),
1
)
);
end = (0.0649,0.1567);
start = (0.9344,0.9382);
};
};
closed = 1;
nodes = (
(43,469,l),
(296,576,l),
(296,682,l),
(42,682,l),
(42,469,l)
);
}
);
width = 341;
}
);
unicode = 106;
},
{
glyphname = jdotless;
kernLeft = j;
kernRight = j;
lastChange = "2022-08-18 12:54:33 +0000";
layers = (
{
anchors = (
{
name = top;
pos = (60,500);
}
);
attr = {
color = "1";
};
layerId = "33AE93C6-B8B3-427A-A53B-F24970E840CE";
shapes = (
{
attr = {
gradient = {
colors = (
(
(191,255),
0
),
(
(64,255),
0.53055
),
(
(191,255),
1
)
);
end = (0.3107,0.0266);
start = (0.5254,0.9172);
};
};
closed = 1;
nodes = (
(51,-200,l),
(74,-177,l),
(74,503,l),
(73,503,l),
(50,480,l),
(50,-200,l)
);
},
{
attr = {
gradient = {
colors = (
(
(64,255),
0
),
(
(191,255),
1
)
);
end = (0.0955,0.313);
start = (0.9233,0.7617);
};
};
closed = 1;
nodes = (
(50,-200,l),
(50,-176,l),
(-12,-176,l),
(-12,-200,l)
);
}
);
width = 127;
},
{
anchors = (
{
name = top;
pos = (179,530);
}
);
attr = {
color = "1";
};
layerId = m003;
shapes = (
{
attr = {
gradient = {
colors = (
(
(191,255),
0
),
(
(64,255),
0.52921
),
(
(191,255),
1
)
);
end = (0.0788,0.0337);
start = (0.936,0.9676);
};
};
closed = 1;
nodes = (
(43,-206,l),
(296,-99,l),
(296,530,l),
(295,530,l),
(42,530,l),
(42,-206,l)
);
},
{
attr = {
gradient = {
colors = (
(
(64,255),
0
),
(
(191,255),
1
)
);
end = (0.1321,0.1703);
start = (0.9376,0.8614);
};
};
closed = 1;
nodes = (
(42,-206,l),
(42,-26,l),
(-150,-26,l),
(-150,-206,l)
);
}
);
width = 301;
}
);
metricLeft = j;
unicode = 567;
},
{
glyphname = k;
kernLeft = H;
kernRight = k;
lastChange = "2022-08-12 14:35:41 +0000";
layers = (
{
anchors = (
{
name = bottom;
pos = (112,0);
}
);
attr = {
color = "1";
};
layerId = "33AE93C6-B8B3-427A-A53B-F24970E840CE";
shapes = (
{
attr = {
gradient = {
colors = (
(
(64,255),
0
),
(
(191,255),
0.52889
),
(
(64,255),
1
)
);
end = (0.4637,0.9507);
start = (0.548,0.0221);
};
};
closed = 1;
nodes = (
(74,0,l),
(74,730,l),
(50,730,l),
(50,0,l)
);
},
{
attr = {
gradient = {
colors = (
(
(64,255),
0
),
(
(191,255),
1
)
);
end = (0.4056,0.1204);
start = (0.4192,0.8964);
};
};
closed = 1;
nodes = (
(171,0,l),
(171,353,l),
(147,353,l),
(147,0,l)
);
},
{
attr = {
gradient = {
colors = (
(
(64,255),
0
),
(
(191,255),
1
)
);
end = (0.857,0.2997);
start = (0.0693,0.513);
};
};
closed = 1;
nodes = (
(171,353,l),
(171,354,l),
(148,377,l),
(74,377,l),
(74,353,l)
);
},
{
attr = {
gradient = {
colors = (
(
(64,255),
0
),
(
(191,255),
1
)
);
end = (0.7156,0.9048);
start = (0.2636,0.0451);
};
};
closed = 1;
nodes = (
(148,377,l),
(148,598,l),
(147,598,l),
(124,575,l),
(124,377,l)
);
}
);
width = 216;
},
{
anchors = (
{
name = bottom;
pos = (395,0);
}
);
attr = {
color = "1";
};
layerId = m003;
shapes = (
{
attr = {
gradient = {
colors = (
(
(64,255),
0
),
(
(191,255),
0.55524
),
(
(64,255),
1
)
);
end = (0.0502,0.9734);
start = (0.7771,0.0126);
};
};
closed = 1;
nodes = (
(289,0,l),
(288,794,l),
(35,794,l),
(35,0,l)
);
},
{
attr = {
gradient = {
colors = (
(
(64,255),
0
),
(
(191,255),
1
)
);
end = (0.6168,0.0388);
start = (0.2264,0.8989);
};
};
closed = 1;
nodes = (
(842,0,l),
(842,193,l),
(588,193,l),
(588,0,l)
);
},
{
attr = {
gradient = {
colors = (
(
(64,255),
0
),
(
(191,255),
1
)
);
end = (0.8808,0.3961);
start = (0.0693,0.513);
};
};
closed = 1;
nodes = (
(842,193,l),
(842,194,l),
(735,437,l),
(289,437,l),
(289,193,l)
);
},
{
attr = {
gradient = {
colors = (
(
(64,255),
0
),
(
(191,255),
1
)
);
end = (0.8379,0.8806);
start = (0.3757,0.0659);
};
};
closed = 1;
nodes = (
(735,437,l),
(735,703,l),
(734,703,l),
(481,596,l),
(481,437,l)
);
}
);
width = 865;
}
);
unicode = 107;
},
{
glyphname = kgreenlandic;
kernLeft = H;
kernRight = k;
lastChange = "2022-08-12 14:35:41 +0000";
layers = (
{
attr = {
color = "1";
};
layerId = "33AE93C6-B8B3-427A-A53B-F24970E840CE";
shapes = (
{
attr = {
gradient = {
colors = (
(
(64,255),
0
),
(
(191,255),
1
)
);
end = (0.8755,0.0307);
start = (0.3079,0.6998);
};
};
closed = 1;
nodes = (
(234,0,l),
(234,1,l),
(144,373,l),
(124,353,l),
(208,0,l)
);
},
{
attr = {
gradient = {
colors = (
(
(64,255),
0
),
(
(191,255),
0.52889
),
(
(64,255),
1
)
);
end = (0.44,0.9168);
start = (0.5736,0.0326);
};
};
closed = 1;
nodes = (
(77,0,l),
(77,598,l),
(53,598,l),
(53,0,l)
);
},
{
attr = {
gradient = {
colors = (
(
(64,255),
0
),
(
(191,255),
0.5
),
(
(64,255),
1
)
);
end = (0.0587,0.1922);
start = (0.9555,0.7551);
};
};
closed = 1;
nodes = (
(157,353,l),
(157,377,l),
(77,377,l),
(77,353,l)
);
},
{
attr = {
gradient = {
colors = (
(
(64,255),
0
),
(
(191,255),
1
)
);
end = (0.6321,0.1372);
start = (0.3905,0.9227);
};
};
closed = 1;
nodes = (
(158,353,l),
(181,376,l),
(181,598,l),
(157,598,l),
(157,353,l)
);
}
);
width = 287;
},
{
attr = {
color = "1";
};
layerId = m003;
shapes = (
{
attr = {
gradient = {
colors = (
(
(64,255),
0
),
(
(191,255),
1
)
);
end = (0.861,0.0581);
start = (0.4046,0.6078);
};
};
closed = 1;
nodes = (
(841,0,l),
(841,1,l),
(568,363,l),
(354,240,l),
(530,0,l)
);
},
{
attr = {
gradient = {
colors = (
(
(64,255),
0
),
(
(191,255),
0.55524
),
(
(64,255),
1
)
);
end = (0.2109,0.9704);
start = (0.7868,0.0238);
};
};
closed = 1;
nodes = (
(249,0,l),
(248,794,l),
(35,794,l),
(35,0,l)
);
},
{
attr = {
gradient = {
colors = (
(
(64,255),
0
),
(
(191,255),
0.5
),
(
(64,255),
1
)
);
end = (0.0587,0.1922);
start = (0.934,0.8965);
};
};
closed = 1;
nodes = (
(478,193,l),
(478,437,l),
(249,437,l),
(249,193,l)
);
},
{
attr = {
gradient = {
colors = (
(
(64,255),
0
),
(
(191,255),
1
)
);
end = (0.2746,0.29);
start = (0.4852,0.9879);
};
};
closed = 1;
nodes = (
(479,193,l),
(732,390,l),
(732,663,l),
(478,663,l),
(478,193,l)
);
}
);
width = 876;
}
);
unicode = 312;
},
{
glyphname = l;
kernLeft = l;
kernRight = l;
lastChange = "2022-08-12 14:35:41 +0000";
layers = (
{
anchors = (
{
name = bottom;
pos = (92,0);
},
{
name = top;
pos = (74,730);
}
);
attr = {
color = "1";
};
layerId = "33AE93C6-B8B3-427A-A53B-F24970E840CE";
shapes = (
{
attr = {
gradient = {
colors = (
(
(191,255),
0
),
(
(64,255),
0.52889
),
(
(191,255),
1
)
);
end = (0.3632,0.9354);
start = (0.5716,0.0322);
};
};
closed = 1;
nodes = (
(74,0,l),
(74,730,l),
(50,730,l),
(50,23,l),
(73,0,l)
);
},
{
attr = {
gradient = {
colors = (
(
(191,255),
0
),
(
(64,255),
1
)
);
end = (0.065,0.1549);
start = (0.9023,0.6607);
};
};
closed = 1;
nodes = (
(136,0,l),
(136,24,l),
(74,24,l),
(74,0,l)
);
}
);
width = 166;
},
{
anchors = (
{
name = bottom;
pos = (279,0);
},
{
name = top;
pos = (169,794);
}
);
attr = {
color = "1";
};
layerId = m003;
shapes = (
{
attr = {
gradient = {
colors = (
(
(191,255),
0
),
(
(64,255),
0.55524
),
(
(191,255),
1
)
);
end = (0.1659,0.9519);
start = (0.8128,0.0883);
};
};
closed = 1;
nodes = (
(289,0,l),
(289,794,l),
(35,794,l),
(35,107,l),
(288,0,l)
);
},
{
attr = {
gradient = {
colors = (
(
(191,255),
0
),
(
(64,255),
1
)
);
end = (0.0839,0.0747);
start = (0.9,0.8552);
};
};
closed = 1;
nodes = (
(501,0,l),
(501,244,l),
(289,244,l),
(289,0,l)
);
}
);
width = 536;
}
);
unicode = 108;
},
{
glyphname = lslash;
lastChange = "2022-08-12 14:35:41 +0000";
layers = (
{
anchors = (
{
name = bottom;
pos = (136,0);
},
{
name = top;
pos = (118,730);
}
);
attr = {
color = "1";
};
layerId = "33AE93C6-B8B3-427A-A53B-F24970E840CE";
shapes = (
{
attr = {
gradient = {
colors = (
(
(128,255),
0.03599
),
(
(64,255),
0.5044
),
(
(128,255),
1
)
);
end = (0.9345,0.8842);
start = (0.0646,0.1181);
};
identifier = ID0x60000049aa00;
};
closed = 1;
nodes = (
(176,423,l),
(176,424,l),
(160,441,l),
(53,312,l),
(53,311,l),
(69,294,l)
);
},
{
attr = {
gradient = {
colors = (
(
(191,255),
0
),
(
(64,255),
1
)
);
end = (0.3632,0.9354);
start = (0.5716,0.0322);
};
identifier = ID0x7fd77c8529f0;
};
closed = 1;
nodes = (
(118,0,l),
(118,730,l),
(94,730,l),
(94,23,l),
(117,0,l)
);
},
{
attr = {
gradient = {
colors = (
(
(191,255),
0
),
(
(64,255),
1
)
);
end = (0.065,0.1549);
start = (0.9023,0.6607);
};
identifier = ID0x7fd77c8529f0;
};
closed = 1;
nodes = (
(180,0,l),
(180,24,l),
(118,24,l),
(118,0,l)
);
}
);
width = 236;
},
{
anchors = (
{
name = bottom;
pos = (386,0);
},
{
name = top;
pos = (276,794);
}
);
attr = {
color = "1";
};
layerId = m003;
shapes = (
{
attr = {
gradient = {
colors = (
(
(128,255),
0
),
(
(64,255),
0.51565
),
(
(128,255),
1
)
);
end = (0.9454,0.7322);
start = (0.0426,0.2764);
};
identifier = ID0x600000498620;
};
closed = 1;
nodes = (
(537,559,l),
(537,560,l),
(441,699,l),
(-5,363,l),
(-5,362,l),
(91,223,l)
);
},
{
attr = {
gradient = {
colors = (
(
(191,255),
0
),
(
(64,255),
1
)
);
end = (0.1659,0.9519);
start = (0.8128,0.0883);
};
identifier = ID0x7fd77c854f40;
};
closed = 1;
nodes = (
(396,0,l),
(396,794,l),
(142,794,l),
(142,107,l),
(395,0,l)
);
},
{
attr = {
gradient = {
colors = (
(
(191,255),
0
),
(
(64,255),
1
)
);
end = (0.0839,0.0747);
start = (0.9,0.8552);
};
identifier = ID0x7fd77c854f40;
};
closed = 1;
nodes = (
(608,0,l),
(608,244,l),
(396,244,l),
(396,0,l)
);
}
);
width = 593;
}
);
unicode = 322;
},
{
glyphname = m;
kernLeft = n;
kernRight = n;
lastChange = "2022-08-12 14:35:41 +0000";
layers = (
{
attr = {
color = "1";
};
layerId = "33AE93C6-B8B3-427A-A53B-F24970E840CE";
shapes = (
{
attr = {
gradient = {
colors = (
(
(64,255),
0
),
(
(191,255),
1
)
);
end = (0.4877,0.9217);
start = (0.4188,0.0464);
};
};
closed = 1;
nodes = (
(74,0,l),
(74,500,l),
(73,500,l),
(50,477,l),
(50,0,l)
);
},
{
attr = {
gradient = {
colors = (
(
(64,255),
0
),
(
(191,255),
1
)
);
end = (0.4056,0.1204);
start = (0.4192,0.8964);
};
};
closed = 1;
nodes = (
(147,0,l),
(147,476,l),
(123,476,l),
(123,0,l)
);
},
{
attr = {
gradient = {
colors = (
(
(64,255),
0
),
(
(191,255),
1
)
);
end = (0.8015,0.3789);
start = (0.0693,0.513);
};
};
closed = 1;
nodes = (
(147,476,l),
(147,477,l),
(124,500,l),
(74,500,l),
(74,476,l)
);
},
{
attr = {
gradient = {
colors = (
(
(64,255),
0
),
(
(191,255),
1
)
);
end = (0.4056,0.1204);
start = (0.4192,0.8964);
};
};
closed = 1;
nodes = (
(197,-3,l),
(220,20,l),
(220,476,l),
(196,476,l),
(196,-3,l)
);
},
{
attr = {
gradient = {
colors = (
(
(64,255),
0
),
(
(191,255),
1
)
);
end = (0.8002,0.3828);
start = (0.0693,0.513);
};
};
closed = 1;
nodes = (
(220,476,l),
(220,477,l),
(197,500,l),
(147,500,l),
(147,476,l)
);
}
);
width = 270;
},
{
attr = {
color = "1";
};
layerId = m003;
shapes = (
{
attr = {
gradient = {
colors = (
(
(64,255),
0
),
(
(191,255),
1
)
);
end = (0.5913,0.8782);
start = (0.385,0.0406);
};
};
closed = 1;
nodes = (
(289,0,l),
(289,530,l),
(288,530,l),
(35,423,l),
(35,0,l)
);
},
{
attr = {
gradient = {
colors = (
(
(64,255),
0
),
(
(191,255),
1
)
);
end = (0.4056,0.1204);
start = (0.4192,0.8964);
};
};
closed = 1;
nodes = (
(772,0,l),
(772,286,l),
(538,286,l),
(538,0,l)
);
},
{
attr = {
gradient = {
colors = (
(
(64,255),
0
),
(
(191,255),
1
)
);
end = (0.8878,0.5878);
start = (0.0693,0.513);
};
};
closed = 1;
nodes = (
(772,286,l),
(772,287,l),
(705,530,l),
(289,530,l),
(289,286,l)
);
},
{
attr = {
gradient = {
colors = (
(
(64,255),
0
),
(
(191,255),
1
)
);
end = (0.4056,0.1204);
start = (0.4192,0.8964);
};
};
closed = 1;
nodes = (
(1022,-6,l),
(1275,41,l),
(1275,286,l),
(1021,286,l),
(1021,-6,l)
);
},
{
attr = {
gradient = {
colors = (
(
(64,255),
0
),
(
(191,255),
1
)
);
end = (0.8682,0.4832);
start = (0.0693,0.513);
};
};
closed = 1;
nodes = (
(1275,286,l),
(1275,287,l),
(1168,530,l),
(772,530,l),
(772,286,l)
);
}
);
width = 1310;
}
);
unicode = 109;
},
{
glyphname = n;
kernLeft = n;
kernRight = n;
lastChange = "2022-08-12 14:35:41 +0000";
layers = (
{
anchors = (
{
name = bottom;
pos = (102,0);
},
{
name = top;
pos = (100,500);
}
);
attr = {
color = "1";
};
layerId = "33AE93C6-B8B3-427A-A53B-F24970E840CE";
shapes = (
{
attr = {
gradient = {
colors = (
(
(64,255),
0
),
(
(191,255),
1
)
);
end = (0.4877,0.9217);
start = (0.4588,0.0214);
};
};
closed = 1;
nodes = (
(74,0,l),
(74,500,l),
(73,500,l),
(50,477,l),
(50,0,l)
);
},
{
attr = {
gradient = {
colors = (
(
(64,255),
0
),
(
(191,255),
1
)
);
end = (0.4056,0.1204);
start = (0.4192,0.8964);
};
};
closed = 1;
nodes = (
(125,-3,l),
(148,20,l),
(148,476,l),
(124,476,l),
(124,-3,l)
);
},
{
attr = {
gradient = {
colors = (
(
(64,255),
0
),
(
(191,255),
1
)
);
end = (0.7592,0.4373);
start = (0.0693,0.513);
};
};
closed = 1;
nodes = (
(148,476,l),
(148,477,l),
(125,500,l),
(74,500,l),
(74,476,l)
);
}
);
width = 198;
},
{
anchors = (
{
name = bottom;
pos = (445,0);
},
{
name = top;
pos = (466,530);
}
);
attr = {
color = "1";
};
layerId = m003;
shapes = (
{
attr = {
gradient = {
colors = (
(
(64,255),
0
),
(
(191,255),
1
)
);
end = (0.7551,0.9071);
start = (0.4663,0.0303);
};
};
closed = 1;
nodes = (
(289,0,l),
(289,530,l),
(288,530,l),
(35,423,l),
(35,0,l)
);
},
{
attr = {
gradient = {
colors = (
(
(64,255),
0
),
(
(191,255),
1
)
);
end = (0.4056,0.1204);
start = (0.4192,0.8964);
};
};
closed = 1;
nodes = (
(599,-6,l),
(852,41,l),
(852,286,l),
(598,286,l),
(598,-6,l)
);
},
{
attr = {
gradient = {
colors = (
(
(64,255),
0
),
(
(191,255),
1
)
);
end = (0.8796,0.4695);
start = (0.0693,0.513);
};
};
closed = 1;
nodes = (
(852,286,l),
(852,287,l),
(745,530,l),
(289,530,l),
(289,286,l)
);
}
);
width = 897;
}
);
unicode = 110;
},
{
glyphname = eng;
kernLeft = n;
kernRight = j;
lastChange = "2022-08-12 14:35:41 +0000";
layers = (
{
attr = {
color = "1";
};
layerId = "33AE93C6-B8B3-427A-A53B-F24970E840CE";
shapes = (
{
attr = {
gradient = {
colors = (
(
(64,255),
0
),
(
(191,255),
1
)
);
end = (0.4056,0.1204);
start = (0.4192,0.8964);
};
};
closed = 1;
nodes = (
(127,-200,l),
(150,-177,l),
(150,476,l),
(126,476,l),
(126,-200,l)
);
},
{
attr = {
gradient = {
colors = (
(
(64,255),
0
),
(
(191,255),
1
)
);
end = (0.1522,0.8498);
start = (0.9039,0.1625);
};
};
closed = 1;
nodes = (
(126,-200,l),
(126,-176,l),
(95,-176,l),
(95,-200,l)
);
},
{
attr = {
gradient = {
colors = (
(
(64,255),
0
),
(
(191,255),
1
)
);
end = (0.4877,0.9217);
start = (0.5274,0.0287);
};
};
closed = 1;
nodes = (
(77,0,l),
(77,500,l),
(76,500,l),
(53,477,l),
(53,0,l)
);
},
{
attr = {
gradient = {
colors = (
(
(64,255),
0
),
(
(191,255),
1
)
);
end = (0.7467,0.3657);
start = (0.0693,0.513);
};
};
closed = 1;
nodes = (
(150,476,l),
(150,477,l),
(127,500,l),
(77,500,l),
(77,476,l)
);
}
);
width = 203;
},
{
attr = {
color = "1";
};
layerId = m003;
shapes = (
{
attr = {
gradient = {
colors = (
(
(64,255),
0
),
(
(191,255),
1
)
);
end = (0.4056,0.1204);
start = (0.4192,0.8964);
};
};
closed = 1;
nodes = (
(559,-206,l),
(772,-99,l),
(772,326,l),
(558,326,l),
(558,-206,l)
);
},
{
attr = {
gradient = {
colors = (
(
(64,255),
0
),
(
(191,255),
1
)
);
end = (0.1265,0.8927);
start = (0.8108,0.094);
};
};
closed = 1;
nodes = (
(558,-206,l),
(558,-2,l),
(386,-2,l),
(386,-206,l)
);
},
{
attr = {
gradient = {
colors = (
(
(64,255),
0
),
(
(191,255),
1
)
);
end = (0.7459,0.9002);
start = (0.4063,0.0465);
};
};
closed = 1;
nodes = (
(249,0,l),
(249,530,l),
(248,530,l),
(35,423,l),
(35,0,l)
);
},
{
attr = {
gradient = {
colors = (
(
(64,255),
0
),
(
(191,255),
1
)
);
end = (0.8631,0.4964);
start = (0.0693,0.513);
};
};
closed = 1;
nodes = (
(772,326,l),
(772,327,l),
(665,530,l),
(249,530,l),
(249,326,l)
);
}
);
width = 807;
}
);
unicode = 331;
},
{
glyphname = o;
kernLeft = o;
kernRight = o;
lastChange = "2022-08-12 14:35:41 +0000";
layers = (
{
anchors = (
{
name = bottom;
pos = (99,0);
},
{
name = horn;
pos = (124,500);
},
{
name = top;
pos = (99,500);
}
);
attr = {
color = "1";
};
layerId = "33AE93C6-B8B3-427A-A53B-F24970E840CE";
shapes = (
{
attr = {
gradient = {
colors = (
(
(64,255),
0
),
(
(191,255),
1
)
);
end = (0.7881,0.4307);
start = (0.0693,0.513);
};
};
closed = 1;
nodes = (
(148,476,l),
(148,477,l),
(125,500,l),
(74,500,l),
(74,476,l)
);
},
{
attr = {
gradient = {
colors = (
(
(191,255),
0
),
(
(64,255),
1
)
);
end = (0.8878,0.5878);
start = (0.1688,0.7191);
};
};
closed = 1;
nodes = (
(124,0,l),
(124,24,l),
(50,24,l),
(50,23,l),
(73,0,l)
);
},
{
attr = {
gradient = {
colors = (
(
(64,255),
0
),
(
(191,255),
1
)
);
end = (0.4877,0.9217);
start = (0.6733,0.0105);
};
};
closed = 1;
nodes = (
(74,24,l),
(74,500,l),
(73,500,l),
(50,477,l),
(50,24,l)
);
},
{
attr = {
gradient = {
colors = (
(
(64,255),
0
),
(
(191,255),
1
)
);
end = (0.4056,0.1204);
start = (0.4192,0.8964);
};
};
closed = 1;
nodes = (
(125,0,l),
(148,23,l),
(148,476,l),
(124,476,l),
(124,0,l)
);
}
);
width = 198;
},
{
anchors = (
{
name = bottom;
pos = (462,0);
},
{
name = horn;
pos = (745,530);
},
{
name = top;
pos = (492,530);
}
);
attr = {
color = "1";
};
layerId = m003;
shapes = (
{
attr = {
gradient = {
colors = (
(
(64,255),
0
),
(
(191,255),
1
)
);
end = (0.8747,0.4803);
start = (0.0693,0.513);
};
};
closed = 1;
nodes = (
(892,286,l),
(892,287,l),
(785,530,l),
(279,530,l),
(279,286,l)
);
},
{
attr = {
gradient = {
colors = (
(
(191,255),
0
),
(
(64,255),
1
)
);
end = (0.8878,0.5878);
start = (0.1007,0.8402);
};
};
closed = 1;
nodes = (
(638,0,l),
(638,244,l),
(25,244,l),
(25,243,l),
(132,0,l)
);
},
{
attr = {
gradient = {
colors = (
(
(64,255),
0
),
(
(191,255),
1
)
);
end = (0.8445,0.8537);
start = (0.4825,0.069);
};
};
closed = 1;
nodes = (
(279,244,l),
(279,530,l),
(278,530,l),
(25,423,l),
(25,244,l)
);
},
{
attr = {
gradient = {
colors = (
(
(64,255),
0
),
(
(191,255),
1
)
);
end = (0.1623,0.1547);
start = (0.4192,0.8964);
};
};
closed = 1;
nodes = (
(639,0,l),
(892,107,l),
(892,286,l),
(638,286,l),
(638,0,l)
);
}
);
width = 917;
}
);
unicode = 111;
},
{
glyphname = oslash;
kernLeft = o;
kernRight = o;
lastChange = "2022-08-22 21:39:46 +0000";
layers = (
{
attr = {
color = "1";
};
layerId = "33AE93C6-B8B3-427A-A53B-F24970E840CE";
shapes = (
{
attr = {
gradient = {
colors = (
(
(128,255),
0
),
(
(191,255),
0.23101
),
(
(128,255),
1
)
);
end = (0.9194,0.9539);
start = (0.0755,0.0296);
};
};
closed = 1;
nodes = (
(54,0,l),
(170,499,l),
(170,500,l),
(149,500,l),
(33,1,l),
(33,0,l)
);
},
{
ref = o;
}
);
width = 203;
},
{
attr = {
color = "1";
};
layerId = m003;
shapes = (
{
attr = {
gradient = {
colors = (
(
(128,255),
0
),
(
(191,255),
0.3076
),
(
(128,255),
1
)
);
end = (0.7348,0.7576);
start = (0.0579,0.027);
};
};
closed = 1;
nodes = (
(148,0,l),
(914,529,l),
(914,530,l),
(801,530,l),
(35,2,l),
(35,0,l)
);
},
{
pos = (46,0);
ref = o;
}
);
width = 949;
}
);
unicode = 248;
},
{
glyphname = otildemacron;
kernLeft = o;
kernRight = o;
lastChange = "2022-08-12 14:35:41 +0000";
layers = (
{
attr = {
color = "1";
};
layerId = "33AE93C6-B8B3-427A-A53B-F24970E840CE";
shapes = (
{
ref = o;
},
{
attr = {
gradient = {
colors = (
(
(64,255),
0
),
(
(191,255),
1
)
);
end = (0.2526,0.0806);
start = (0.8625,0.6735);
};
identifier = ID0x600000653d40;
};
closed = 1;
nodes = (
(72,581,l),
(72,633,l),
(52,632,l),
(52,581,l)
);
},
{
attr = {
gradient = {
colors = (
(
(64,255),
0
),
(
(191,255),
1
)
);
end = (0.8746,0.8923);
start = (0.7505,0.149);
};
identifier = ID0x600000653d40;
};
closed = 1;
nodes = (
(152,590,l),
(152,642,l),
(132,642,l),
(132,590,l)
);
},
{
attr = {
gradient = {
colors = (
(
(64,255),
0
),
(
(191,255),
1
)
);
end = (0.2372,0.9196);
start = (0.9644,0.164);
};
identifier = ID0x600000653d40;
};
closed = 1;
nodes = (
(132,580,l),
(152,589,l),
(152,590,l),
(73,642,l),
(72,642,l),
(52,633,l),
(52,632,l),
(131,580,l)
);
},
{
attr = {
gradient = {
colors = (
(
(191,255),
0
),
(
(64,255),
1
)
);
end = (0.9404,0.5407);
start = (0.0515,0.2872);
};
identifier = ID0x600000653e20;
};
closed = 1;
nodes = (
(157,676,l),
(157,700,l),
(47,700,l),
(47,676,l)
);
}
);
width = 204;
},
{
attr = {
color = "1";
};
layerId = m003;
shapes = (
{
ref = o;
},
{
attr = {
gradient = {
colors = (
(
(64,255),
0
),
(
(191,255),
1
)
);
end = (0.2975,0.0811);
start = (0.8597,0.5631);
};
identifier = ID0x60000065c000;
};
closed = 1;
nodes = (
(380,589,l),
(380,710,l),
(260,710,l),
(260,589,l)
);
},
{
attr = {
gradient = {
colors = (
(
(64,255),
0
),
(
(191,255),
1
)
);
end = (0.8068,0.953);
start = (0.1553,0.418);
};
identifier = ID0x60000065c000;
};
closed = 1;
nodes = (
(658,628,l),
(658,737,l),
(539,737,l),
(539,628,l)
);
},
{
attr = {
gradient = {
colors = (
(
(64,255),
0
),
(
(191,255),
1
)
);
end = (0.2636,0.9165);
start = (0.911,0.252);
};
identifier = ID0x60000065c000;
};
closed = 1;
nodes = (
(548,578,l),
(658,627,l),
(658,628,l),
(371,750,l),
(370,750,l),
(260,711,l),
(260,710,l),
(547,578,l)
);
},
{
attr = {
gradient = {
colors = (
(
(191,255),
0
),
(
(64,255),
1
)
);
end = (0.9568,0.7817);
start = (0.0619,0.2861);
};
identifier = ID0x60000065c0e0;
};
closed = 1;
nodes = (
(663,798,l),
(663,890,l),
(257,890,l),
(257,798,l)
);
}
);
width = 877;
}
);
unicode = 557;
},
{
glyphname = oe;
kernLeft = o;
kernRight = e;
lastChange = "2022-08-12 14:35:41 +0000";
layers = (
{
attr = {
color = "1";
};
layerId = "33AE93C6-B8B3-427A-A53B-F24970E840CE";
shapes = (
{
attr = {
gradient = {
colors = (
(
(64,255),
0
),
(
(191,255),
1
)
);
end = (0.8853,0.7119);
start = (0.1842,0.5043);
};
};
closed = 1;
nodes = (
(197,0,l),
(220,23,l),
(220,24,l),
(123,24,l),
(123,23,l),
(146,0,l)
);
},
{
attr = {
gradient = {
colors = (
(
(191,255),
0
),
(
(64,255),
1
)
);
end = (0.9264,0.4856);
start = (0.1371,0.7081);
};
};
closed = 1;
nodes = (
(123,0,l),
(123,24,l),
(50,24,l),
(50,23,l),
(73,0,l)
);
},
{
attr = {
gradient = {
colors = (
(
(64,255),
0
),
(
(191,255),
1
)
);
end = (0.4877,0.9217);
start = (0.4373,0.0115);
};
};
closed = 1;
nodes = (
(74,24,l),
(74,500,l),
(73,500,l),
(50,477,l),
(50,24,l)
);
},
{
attr = {
gradient = {
colors = (
(
(64,255),
0
),
(
(191,255),
1
)
);
end = (0.8888,0.2843);
start = (0.2047,0.4679);
};
};
closed = 1;
nodes = (
(220,476,l),
(220,477,l),
(197,500,l),
(147,500,l),
(123,476,l)
);
},
{
attr = {
gradient = {
colors = (
(
(64,255),
0
),
(
(191,255),
1
)
);
end = (0.894,0.6209);
start = (0.0693,0.513);
};
};
closed = 1;
nodes = (
(196,202,l),
(196,226,l),
(147,226,l),
(147,202,l)
);
},
{
attr = {
gradient = {
colors = (
(
(64,255),
0
),
(
(191,255),
1
)
);
end = (0.4056,0.1204);
start = (0.4192,0.8964);
};
};
closed = 1;
nodes = (
(124,0,l),
(147,24,l),
(147,476,l),
(123,476,l),
(123,0,l)
);
},
{
attr = {
gradient = {
colors = (
(
(64,255),
0
),
(
(191,255),
1
)
);
end = (0.7716,0.482);
start = (0.0693,0.513);
};
};
closed = 1;
nodes = (
(147,476,l),
(147,477,l),
(124,500,l),
(74,500,l),
(74,476,l)
);
},
{
attr = {
gradient = {
colors = (
(
(64,255),
0
),
(
(191,255),
1
)
);
end = (0.3557,0.0578);
start = (0.4192,0.8964);
};
};
closed = 1;
nodes = (
(197,202,l),
(220,225,l),
(220,476,l),
(196,476,l),
(196,202,l)
);
}
);
width = 270;
},
{
attr = {
color = "1";
};
layerId = m003;
shapes = (
{
attr = {
gradient = {
colors = (
(
(64,255),
0
),
(
(191,255),
1
)
);
end = (0.8642,0.6969);
start = (0.2126,0.6647);
};
};
closed = 1;
nodes = (
(1348,0,l),
(1455,199,l),
(1455,200,l),
(608,200,l),
(608,199,l),
(862,0,l)
);
},
{
attr = {
gradient = {
colors = (
(
(191,255),
0
),
(
(64,255),
1
)
);
end = (0.8878,0.5878);
start = (0.0782,0.843);
};
};
closed = 1;
nodes = (
(608,0,l),
(608,244,l),
(25,244,l),
(25,243,l),
(132,0,l)
);
},
{
attr = {
gradient = {
colors = (
(
(64,255),
0
),
(
(191,255),
1
)
);
end = (0.8199,0.8059);
start = (0.1994,0.083);
};
};
closed = 1;
nodes = (
(279,244,l),
(279,530,l),
(278,530,l),
(25,423,l),
(25,244,l)
);
},
{
attr = {
gradient = {
colors = (
(
(64,255),
0
),
(
(191,255),
1
)
);
end = (0.8878,0.5878);
start = (0.2515,0.5485);
};
};
closed = 1;
nodes = (
(1455,330,l),
(1455,331,l),
(1348,530,l),
(862,530,l),
(608,330,l)
);
},
{
attr = {
gradient = {
colors = (
(
(64,255),
0
),
(
(191,255),
1
)
);
end = (0.1267,0.268);
start = (0.9519,0.8584);
};
};
closed = 1;
nodes = (
(1201,221,l),
(1201,311,l),
(842,311,l),
(842,220,l)
);
},
{
attr = {
gradient = {
colors = (
(
(64,255),
0
),
(
(191,255),
1
)
);
end = (0.081,0.1642);
start = (0.066,0.9748);
};
};
closed = 1;
nodes = (
(609,0,l),
(862,239,l),
(862,286,l),
(608,286,l),
(608,0,l)
);
},
{
attr = {
gradient = {
colors = (
(
(64,255),
0
),
(
(191,255),
1
)
);
end = (0.9072,0.0876);
start = (0.0693,0.513);
};
};
closed = 1;
nodes = (
(862,286,l),
(862,287,l),
(755,530,l),
(279,530,l),
(279,286,l)
);
},
{
attr = {
gradient = {
colors = (
(
(64,255),
0
),
(
(191,255),
1
)
);
end = (0.0529,0.1085);
start = (0.049,0.912);
};
};
closed = 1;
nodes = (
(1202,221,l),
(1455,298,l),
(1455,330,l),
(1201,330,l),
(1201,221,l)
);
}
);
width = 1485;
}
);
metricLeft = o;
metricRight = e;
unicode = 339;
},
{
glyphname = p;
kernLeft = n;
kernRight = o;
lastChange = "2022-08-12 14:35:41 +0000";
layers = (
{
attr = {
color = "1";
};
layerId = "33AE93C6-B8B3-427A-A53B-F24970E840CE";
shapes = (
{
attr = {
gradient = {
colors = (
(
(64,255),
0
),
(
(191,255),
1
)
);
end = (0.7174,0.423);
start = (0.0693,0.513);
};
};
closed = 1;
nodes = (
(147,476,l),
(147,477,l),
(124,500,l),
(74,500,l),
(74,476,l)
);
},
{
attr = {
gradient = {
colors = (
(
(64,255),
0
),
(
(191,255),
1
)
);
end = (0.4483,0.0774);
start = (0.4192,0.8964);
};
};
closed = 1;
nodes = (
(74,-200,l),
(74,0,l),
(51,23,l),
(50,23,l),
(50,-200,l)
);
},
{
attr = {
gradient = {
colors = (
(
(64,255),
0
),
(
(191,255),
1
)
);
end = (0.1654,0.7611);
start = (0.9152,0.2388);
};
};
closed = 1;
nodes = (
(123,0,l),
(123,24,l),
(50,24,l),
(50,23,l),
(73,0,l)
);
},
{
attr = {
gradient = {
colors = (
(
(64,255),
0
),
(
(191,255),
1
)
);
end = (0.2597,0.8196);
start = (0.4394,0.0486);
};
};
closed = 1;
nodes = (
(74,24,l),
(74,500,l),
(73,500,l),
(50,477,l),
(50,24,l)
);
},
{
attr = {
gradient = {
colors = (
(
(64,255),
0
),
(
(191,255),
1
)
);
end = (0.4632,0.0775);
start = (0.5608,0.935);
};
};
closed = 1;
nodes = (
(124,0,l),
(147,23,l),
(147,476,l),
(123,476,l),
(123,0,l)
);
}
);
width = 197;
},
{
attr = {
color = "1";
};
layerId = m003;
shapes = (
{
attr = {
gradient = {
colors = (
(
(64,255),
0
),
(
(191,255),
1
)
);
end = (0.8557,0.5104);
start = (0.0693,0.513);
};
};
closed = 1;
nodes = (
(853,286,l),
(853,287,l),
(751,530,l),
(289,530,l),
(289,286,l)
);
},
{
attr = {
gradient = {
colors = (
(
(64,255),
0
),
(
(191,255),
1
)
);
end = (0.4443,0.0524);
start = (0.1111,0.8302);
};
};
closed = 1;
nodes = (
(289,-200,l),
(289,0,l),
(36,241,l),
(35,241,l),
(35,-200,l)
);
},
{
attr = {
gradient = {
colors = (
(
(64,255),
0
),
(
(191,255),
1
)
);
end = (0.0914,0.9313);
start = (0.9611,0.1414);
};
};
closed = 1;
nodes = (
(599,0,l),
(599,244,l),
(35,244,l),
(35,243,l),
(237,0,l)
);
},
{
attr = {
gradient = {
colors = (
(
(64,255),
0
),
(
(191,255),
1
)
);
end = (0.9089,0.8313);
start = (0.0987,0.0899);
};
};
closed = 1;
nodes = (
(289,244,l),
(289,530,l),
(288,530,l),
(35,423,l),
(35,244,l)
);
},
{
attr = {
gradient = {
colors = (
(
(64,255),
0
),
(
(191,255),
1
)
);
end = (0.0905,0.1242);
start = (0.1886,0.9297);
};
};
closed = 1;
nodes = (
(600,0,l),
(853,107,l),
(853,286,l),
(599,286,l),
(599,0,l)
);
}
);
width = 888;
}
);
unicode = 112;
},
{
glyphname = thorn;
kernLeft = H;
kernRight = o;
lastChange = "2022-08-12 14:35:41 +0000";
layers = (
{
attr = {
color = "1";
};
layerId = "33AE93C6-B8B3-427A-A53B-F24970E840CE";
shapes = (
{
attr = {
gradient = {
colors = (
(
(64,255),
0
),
(
(191,255),
1
)
);
end = (0.6381,0.9731);
start = (0.2942,0.1102);
};
};
closed = 1;
nodes = (
(74,24,l),
(74,800,l),
(73,800,l),
(50,777,l),
(50,24,l)
);
},
{
attr = {
gradient = {
colors = (
(
(64,255),
0
),
(
(191,255),
1
)
);
end = (0.4371,0.0568);
start = (0.2605,0.9374);
};
};
closed = 1;
nodes = (
(74,-200,l),
(74,0,l),
(51,23,l),
(50,23,l),
(50,-200,l)
);
},
{
attr = {
gradient = {
colors = (
(
(64,255),
0
),
(
(191,255),
1
)
);
end = (0.3858,0.7859);
start = (0.9563,0.2226);
};
};
closed = 1;
nodes = (
(123,0,l),
(123,24,l),
(50,24,l),
(50,23,l),
(74,0,l)
);
},
{
attr = {
gradient = {
colors = (
(
(64,255),
0
),
(
(191,255),
1
)
);
end = (0.2932,0.0335);
start = (0.2675,0.9101);
};
};
closed = 1;
nodes = (
(124,0,l),
(147,23,l),
(147,476,l),
(123,476,l),
(123,0,l)
);
},
{
attr = {
gradient = {
colors = (
(
(64,255),
0
),
(
(191,255),
1
)
);
end = (0.7189,0.396);
start = (0.0693,0.513);
};
};
closed = 1;
nodes = (
(147,476,l),
(147,477,l),
(124,500,l),
(73,500,l),
(73,476,l)
);
}
);
width = 197;
},
{
attr = {
color = "1";
};
layerId = m003;
shapes = (
{
attr = {
gradient = {
colors = (
(
(64,255),
0
),
(
(191,255),
1
)
);
end = (0.8375,0.81);
start = (0.2197,0.0692);
};
};
closed = 1;
nodes = (
(289,244,l),
(289,800,l),
(288,800,l),
(35,693,l),
(35,244,l)
);
},
{
attr = {
gradient = {
colors = (
(
(64,255),
0
),
(
(191,255),
1
)
);
end = (0.8477,0.0507);
start = (0.1009,0.8799);
};
};
closed = 1;
nodes = (
(289,-200,l),
(289,0,l),
(36,241,l),
(35,241,l),
(35,-200,l)
);
},
{
attr = {
gradient = {
colors = (
(
(64,255),
0
),
(
(191,255),
1
)
);
end = (0.0932,0.9304);
start = (0.9455,0.1614);
};
};
closed = 1;
nodes = (
(599,0,l),
(599,244,l),
(35,244,l),
(35,243,l),
(289,0,l)
);
},
{
attr = {
gradient = {
colors = (
(
(64,255),
0
),
(
(191,255),
1
)
);
end = (0.1056,0.1565);
start = (0.3113,0.9141);
};
};
closed = 1;
nodes = (
(600,0,l),
(853,107,l),
(853,286,l),
(599,286,l),
(599,0,l)
);
},
{
attr = {
gradient = {
colors = (
(
(64,255),
0
),
(
(191,255),
1
)
);
end = (0.8591,0.5111);
start = (0.0693,0.513);
};
};
closed = 1;
nodes = (
(853,286,l),
(853,287,l),
(751,530,l),
(289,530,l),
(289,286,l)
);
}
);
width = 888;
}
);
unicode = 254;
},
{
glyphname = q;
kernLeft = o;
kernRight = a;
lastChange = "2022-08-12 14:35:41 +0000";
layers = (
{
attr = {
color = "1";
};
layerId = "33AE93C6-B8B3-427A-A53B-F24970E840CE";
shapes = (
{
attr = {
gradient = {
colors = (
(
(64,255),
0
),
(
(191,255),
0.52889
),
(
(64,255),
1
)
);
end = (0.5318,0.8643);
start = (0.5903,0.0523);
};
};
closed = 1;
nodes = (
(147,-200,l),
(147,476,l),
(123,476,l),
(123,475,l),
(123,-200,l)
);
},
{
attr = {
gradient = {
colors = (
(
(191,255),
0
),
(
(64,255),
1
)
);
end = (0.8878,0.5878);
start = (0.1349,0.7778);
};
};
closed = 1;
nodes = (
(123,0,l),
(123,24,l),
(50,24,l),
(50,23,l),
(73,0,l)
);
},
{
attr = {
gradient = {
colors = (
(
(64,255),
0
),
(
(191,255),
1
)
);
end = (0.4253,0.924);
start = (0.5266,0.0718);
};
};
closed = 1;
nodes = (
(74,24,l),
(74,500,l),
(73,500,l),
(50,477,l),
(50,24,l)
);
},
{
attr = {
gradient = {
colors = (
(
(64,255),
0
),
(
(191,255),
1
)
);
end = (0.8073,0.2933);
start = (0.0693,0.513);
};
};
closed = 1;
nodes = (
(147,476,l),
(147,477,l),
(124,500,l),
(74,500,l),
(74,476,l)
);
}
);
width = 197;
},
{
attr = {
color = "1";
};
layerId = m003;
shapes = (
{
attr = {
gradient = {
colors = (
(
(64,255),
0
),
(
(191,255),
0.55524
),
(
(64,255),
1
)
);
end = (0.1303,0.9403);
start = (0.8578,0.0537);
};
};
closed = 1;
nodes = (
(853,-200,l),
(853,286,l),
(599,286,l),
(599,0,l),
(600,-200,l)
);
},
{
attr = {
gradient = {
colors = (
(
(191,255),
0
),
(
(64,255),
1
)
);
end = (0.8878,0.5878);
start = (0.1125,0.7245);
};
};
closed = 1;
nodes = (
(599,0,l),
(599,244,l),
(35,244,l),
(35,243,l),
(137,0,l)
);
},
{
attr = {
gradient = {
colors = (
(
(64,255),
0
),
(
(191,255),
1
)
);
end = (0.8733,0.8634);
start = (0.1267,0.0564);
};
};
closed = 1;
nodes = (
(289,244,l),
(289,530,l),
(288,530,l),
(35,423,l),
(35,244,l)
);
},
{
attr = {
gradient = {
colors = (
(
(64,255),
0
),
(
(191,255),
1
)
);
end = (0.8443,0.5499);
start = (0.0693,0.513);
};
};
closed = 1;
nodes = (
(853,286,l),
(853,287,l),
(751,530,l),
(289,530,l),
(289,286,l)
);
}
);
width = 888;
}
);
unicode = 113;
},
{
glyphname = r;
kernLeft = n;
lastChange = "2022-08-12 14:35:41 +0000";
layers = (
{
anchors = (
{
name = bottom;
pos = (62,0);
},
{
name = top;
pos = (100,500);
}
);
attr = {
color = "1";
};
layerId = "33AE93C6-B8B3-427A-A53B-F24970E840CE";
shapes = (
{
attr = {
gradient = {
colors = (
(
(64,255),
0
),
(
(191,255),
1
)
);
end = (0.4877,0.9217);
start = (0.4728,0.0251);
};
};
closed = 1;
nodes = (
(74,0,l),
(74,500,l),
(73,500,l),
(50,477,l),
(50,0,l)
);
},
{
attr = {
gradient = {
colors = (
(
(64,255),
0
),
(
(191,255),
1
)
);
end = (0.741,0.3761);
start = (0.0693,0.513);
};
};
closed = 1;
nodes = (
(147,476,l),
(147,477,l),
(124,500,l),
(74,500,l),
(74,476,l)
);
}
);
width = 157;
},
{
anchors = (
{
name = bottom;
pos = (155,0);
},
{
name = top;
pos = (362,530);
}
);
attr = {
color = "1";
};
layerId = m003;
shapes = (
{
attr = {
gradient = {
colors = (
(
(64,255),
0
),
(
(191,255),
1
)
);
end = (0.8685,0.925);
start = (0.2454,0.0272);
};
};
closed = 1;
nodes = (
(289,0,l),
(289,530,l),
(288,530,l),
(35,423,l),
(35,0,l)
);
},
{
attr = {
gradient = {
colors = (
(
(64,255),
0
),
(
(191,255),
1
)
);
end = (0.7462,0.6384);
start = (0.0774,0.2149);
};
};
closed = 1;
nodes = (
(642,286,l),
(642,287,l),
(535,530,l),
(289,530,l),
(289,286,l)
);
}
);
width = 642;
}
);
unicode = 114;
},
{
glyphname = s;
kernLeft = s;
kernRight = s;
lastChange = "2022-08-22 21:30:43 +0000";
layers = (
{
anchors = (
{
name = bottom;
pos = (87,0);
},
{
name = top;
pos = (95,500);
}
);
attr = {
color = "1";
};
layerId = "33AE93C6-B8B3-427A-A53B-F24970E840CE";
shapes = (
{
attr = {
gradient = {
colors = (
(
(64,255),
0
),
(
(191,255),
1
)
);
end = (0.7774,0.3714);
start = (0.0693,0.513);
};
};
closed = 1;
nodes = (
(131,476,l),
(131,477,l),
(108,500,l),
(58,500,l),
(61,476,l)
);
},
{
attr = {
gradient = {
colors = (
(
(64,255),
0
),
(
(191,255),
1
)
);
end = (0.1006,0.9261);
start = (0.8563,0.0865);
};
};
closed = 1;
nodes = (
(131,24,l),
(131,25,l),
(58,500,l),
(38,477,l),
(108,24,l)
);
},
{
attr = {
gradient = {
colors = (
(
(64,255),
0
),
(
(191,255),
1
)
);
end = (0.8561,0.718);
start = (0.1541,0.7321);
};
};
closed = 1;
nodes = (
(108,0,l),
(131,24,l),
(35,24,l),
(35,23,l),
(58,0,l)
);
}
);
width = 166;
},
{
anchors = (
{
name = bottom;
pos = (342,0);
},
{
name = top;
pos = (344,530);
}
);
attr = {
color = "1";
};
layerId = m003;
shapes = (
{
attr = {
gradient = {
colors = (
(
(64,255),
0
),
(
(191,255),
1
)
);
end = (0.9261,0.092);
start = (0.1079,0.9086);
};
};
closed = 1;
nodes = (
(642,311,l),
(642,312,l),
(535,530,l),
(122,530,l),
(148,311,l)
);
},
{
attr = {
gradient = {
colors = (
(
(64,255),
0
),
(
(191,255),
1
)
);
end = (0.0619,0.5135);
start = (0.852,0.2413);
};
};
closed = 1;
nodes = (
(652,219,l),
(652,220,l),
(122,530,l),
(32,325,l),
(384,149,l)
);
},
{
attr = {
gradient = {
colors = (
(
(64,255),
0
),
(
(191,255),
1
)
);
end = (0.9033,0.6416);
start = (0.0704,0.8171);
};
};
closed = 1;
nodes = (
(545,0,l),
(652,219,l),
(22,219,l),
(22,218,l),
(129,0,l)
);
}
);
width = 674;
}
);
unicode = 115;
},
{
glyphname = germandbls;
kernLeft = H;
kernRight = B;
lastChange = "2022-08-12 14:35:41 +0000";
layers = (
{
attr = {
color = "1";
};
layerId = "33AE93C6-B8B3-427A-A53B-F24970E840CE";
shapes = (
{
attr = {
gradient = {
colors = (
(
(64,255),
0
),
(
(191,255),
1
)
);
end = (0.4877,0.9217);
start = (0.4727,0.0189);
};
};
closed = 1;
nodes = (
(77,-200,l),
(77,800,l),
(76,800,l),
(53,777,l),
(53,-200,l)
);
},
{
attr = {
gradient = {
colors = (
(
(64,255),
0
),
(
(191,255),
1
)
);
end = (0.2655,0.2135);
start = (0.9225,0.2287);
};
};
closed = 1;
nodes = (
(186,0,l),
(186,24,l),
(147,24,l),
(124,0,l)
);
},
{
attr = {
gradient = {
colors = (
(
(64,255),
0
),
(
(128,255),
1
)
);
end = (0.5231,0.8297);
start = (0.4305,0.1459);
};
};
closed = 1;
nodes = (
(122,776,l),
(122,800,l),
(77,800,l),
(77,776,l)
);
},
{
attr = {
gradient = {
colors = (
(
(64,255),
0
),
(
(191,255),
1
)
);
end = (0.5048,0.78);
start = (0.4504,0.0306);
};
};
closed = 1;
nodes = (
(146,777,l),
(123,800,l),
(122,800,l),
(122,397,l),
(146,397,l)
);
},
{
attr = {
gradient = {
colors = (
(
(64,255),
0
),
(
(191,255),
1
)
);
end = (0.2671,0.5486);
start = (0.888,0.5684);
};
};
closed = 1;
nodes = (
(186,373,l),
(186,397,l),
(122,397,l),
(122,396,l),
(145,373,l)
);
},
{
attr = {
gradient = {
colors = (
(
(64,255),
0
),
(
(191,255),
1
)
);
end = (0.4842,0.9139);
start = (0.4893,0.0647);
};
};
closed = 1;
nodes = (
(187,0,l),
(210,23,l),
(210,374,l),
(187,397,l),
(186,397,l),
(186,0,l)
);
}
);
width = 263;
},
{
attr = {
color = "1";
};
layerId = m003;
shapes = (
{
attr = {
gradient = {
colors = (
(
(64,255),
0
),
(
(191,255),
1
)
);
end = (0.4877,0.9217);
start = (0.4504,0.0366);
};
};
closed = 1;
nodes = (
(279,-200,l),
(279,800,l),
(278,800,l),
(25,693,l),
(25,-200,l)
);
},
{
attr = {
gradient = {
colors = (
(
(64,255),
0
),
(
(191,255),
1
)
);
end = (0.3271,0.8905);
start = (0.8961,0.1567);
};
};
closed = 1;
nodes = (
(688,0,l),
(688,244,l),
(415,244,l),
(333,0,l)
);
},
{
attr = {
gradient = {
colors = (
(
(64,255),
0
),
(
(128,255),
1
)
);
end = (0.4916,0.8958);
start = (0.4393,0.0388);
};
};
closed = 1;
nodes = (
(414,556,l),
(414,800,l),
(279,800,l),
(279,556,l)
);
},
{
attr = {
gradient = {
colors = (
(
(64,255),
0
),
(
(191,255),
1
)
);
end = (0.607,0.6343);
start = (0.1249,0.314);
};
};
closed = 1;
nodes = (
(668,603,l),
(415,800,l),
(414,800,l),
(414,507,l),
(668,416,l)
);
},
{
attr = {
gradient = {
colors = (
(
(64,255),
0
),
(
(191,255),
1
)
);
end = (0.2653,0.7762);
start = (0.9464,0.1507);
};
};
closed = 1;
nodes = (
(688,263,l),
(688,507,l),
(414,507,l),
(414,506,l),
(527,263,l)
);
},
{
attr = {
gradient = {
colors = (
(
(64,255),
0
),
(
(191,255),
1
)
);
end = (0.1614,0.3758);
start = (0.8813,0.5972);
};
};
closed = 1;
nodes = (
(689,0,l),
(942,193,l),
(942,314,l),
(689,507,l),
(688,507,l),
(688,0,l)
);
}
);
width = 967;
}
);
unicode = 223;
},
{
glyphname = t;
kernLeft = t;
kernRight = t;
lastChange = "2022-08-12 14:35:41 +0000";
layers = (
{
anchors = (
{
name = bottom;
pos = (100,0);
},
{
name = top;
pos = (94,670);
}
);
attr = {
color = "1";
};
layerId = "33AE93C6-B8B3-427A-A53B-F24970E840CE";
shapes = (
{
attr = {
gradient = {
colors = (
(
(64,255),
0
),
(
(191,255),
1
)
);
end = (0.6505,0.7392);
start = (0.1903,0.0597);
};
};
closed = 1;
nodes = (
(51,476,l),
(74,500,l),
(74,670,l),
(50,670,l),
(50,476,l)
);
},
{
attr = {
gradient = {
colors = (
(
(64,255),
0
),
(
(191,255),
1
)
);
end = (0.2987,0.5719);
start = (0.9984,0.812);
};
};
closed = 1;
nodes = (
(141,476,l),
(141,500,l),
(74,500,l),
(51,476,l)
);
},
{
attr = {
gradient = {
colors = (
(
(64,255),
0
),
(
(191,255),
1
)
);
end = (0.4942,0.0646);
start = (0.4951,0.9659);
};
};
closed = 1;
nodes = (
(74,0,l),
(74,476,l),
(50,476,l),
(50,23,l),
(73,0,l)
);
},
{
attr = {
gradient = {
colors = (
(
(64,255),
0
),
(
(191,255),
1
)
);
end = (0.8586,0.797);
start = (0.0647,0.2653);
};
};
closed = 1;
nodes = (
(144,0,l),
(167,23,l),
(167,24,l),
(74,24,l),
(74,0,l)
);
}
);
width = 167;
},
{
anchors = (
{
name = bottom;
pos = (356,0);
},
{
name = top;
pos = (169,794);
}
);
attr = {
color = "1";
};
layerId = m003;
shapes = (
{
attr = {
gradient = {
colors = (
(
(64,255),
0
),
(
(191,255),
1
)
);
end = (0.8108,0.955);
start = (0.0556,0.135);
};
};
closed = 1;
nodes = (
(36,286,l),
(289,530,l),
(289,703,l),
(35,703,l),
(35,286,l)
);
},
{
attr = {
gradient = {
colors = (
(
(64,255),
0
),
(
(191,255),
1
)
);
end = (0.116,0.1082);
start = (0.9623,0.8186);
};
};
closed = 1;
nodes = (
(583,286,l),
(583,530,l),
(289,530,l),
(36,286,l)
);
},
{
attr = {
gradient = {
colors = (
(
(64,255),
0
),
(
(191,255),
1
)
);
end = (0.8784,0.1045);
start = (0.0611,0.9096);
};
};
closed = 1;
nodes = (
(289,0,l),
(289,286,l),
(35,286,l),
(35,107,l),
(288,0,l)
);
},
{
attr = {
gradient = {
colors = (
(
(64,255),
0
),
(
(191,255),
1
)
);
end = (0.9419,0.9005);
start = (0.0794,0.1113);
};
};
closed = 1;
nodes = (
(639,0,l),
(662,243,l),
(662,244,l),
(289,244,l),
(289,0,l)
);
}
);
width = 662;
}
);
unicode = 116;
},
{
glyphname = tbar;
kernLeft = t;
kernRight = t;
lastChange = "2022-08-12 14:35:41 +0000";
layers = (
{
attr = {
color = "1";
};
layerId = "33AE93C6-B8B3-427A-A53B-F24970E840CE";
shapes = (
{
attr = {
gradient = {
colors = (
(
(191,255),
0
),
(
(64,255),
0.3071
),
(
(64,255),
0.66009
),
(
(191,255),
1
)
);
end = (0.9558,0.4999);
start = (0.0105,0.4062);
};
identifier = ID0x600000ca3c60;
};
closed = 1;
nodes = (
(173,353,l),
(173,377,l),
(12,377,l),
(12,353,l)
);
},
{
pos = (5,0);
ref = t;
}
);
width = 184;
},
{
attr = {
color = "1";
};
layerId = m003;
shapes = (
{
attr = {
gradient = {
colors = (
(
(191,255),
0
),
(
(64,255),
0.3071
),
(
(64,255),
0.66009
),
(
(191,255),
1
)
);
end = (0.9558,0.4999);
start = (0.0105,0.4062);
};
identifier = ID0x600000ca3c60;
};
closed = 1;
nodes = (
(521,253,l),
(521,277,l),
(0,277,l),
(0,253,l)
);
},
{
pos = (3,0);
ref = t;
}
);
width = 665;
}
);
unicode = 359;
},
{
glyphname = u;
kernLeft = u;
kernRight = a;
lastChange = "2022-08-12 14:35:41 +0000";
layers = (
{
anchors = (
{
name = bottom;
pos = (102,0);
},
{
name = horn;
pos = (123,500);
},
{
name = top;
pos = (100,500);
}
);
attr = {
color = "1";
};
layerId = "33AE93C6-B8B3-427A-A53B-F24970E840CE";
shapes = (
{
attr = {
gradient = {
colors = (
(
(191,255),
0
),
(
(64,255),
1
)
);
end = (0.4877,0.9217);
start = (0.568,0.3146);
};
};
closed = 1;
nodes = (
(124,0,l),
(147,0,l),
(147,500,l),
(123,500,l),
(123,0,l)
);
},
{
attr = {
gradient = {
colors = (
(
(191,255),
0
),
(
(64,255),
1
)
);
end = (0.8878,0.5878);
start = (0.2589,0.689);
};
};
closed = 1;
nodes = (
(123,0,l),
(123,24,l),
(50,24,l),
(50,23,l),
(73,0,l)
);
},
{
attr = {
gradient = {
colors = (
(
(191,255),
0
),
(
(64,255),
1
)
);
end = (0.4056,0.1204);
start = (0.4192,0.8964);
};
};
closed = 1;
nodes = (
(74,24,l),
(74,506,l),
(73,506,l),
(50,483,l),
(50,24,l)
);
}
);
width = 197;
},
{
anchors = (
{
name = bottom;
pos = (442,0);
},
{
name = horn;
pos = (812,530);
},
{
name = top;
pos = (462,530);
}
);
attr = {
color = "1";
};
layerId = m003;
shapes = (
{
attr = {
gradient = {
colors = (
(
(191,255),
0
),
(
(64,255),
1
)
);
end = (0.4877,0.9217);
start = (0.4155,-0.0037);
};
};
closed = 1;
nodes = (
(599,0,l),
(852,0,l),
(852,530,l),
(598,530,l),
(598,0,l)
);
},
{
attr = {
gradient = {
colors = (
(
(191,255),
0
),
(
(64,255),
1
)
);
end = (0.8878,0.5878);
start = (0.0614,0.8825);
};
};
closed = 1;
nodes = (
(598,0,l),
(598,244,l),
(35,244,l),
(35,243,l),
(142,0,l)
);
},
{
attr = {
gradient = {
colors = (
(
(191,255),
0
),
(
(64,255),
1
)
);
end = (0.2089,0.0995);
start = (0.9378,0.9654);
};
};
closed = 1;
nodes = (
(289,244,l),
(289,536,l),
(288,536,l),
(35,489,l),
(35,244,l)
);
}
);
width = 887;
}
);
unicode = 117;
},
{
color = 3;
glyphname = v;
kernLeft = v;
kernRight = v;
lastChange = "2022-08-12 14:35:41 +0000";
layers = (
{
attr = {
color = "1";
};
layerId = "33AE93C6-B8B3-427A-A53B-F24970E840CE";
shapes = (
{
attr = {
gradient = {
colors = (
(
(191,255),
0
),
(
(64,255),
1
)
);
end = (0.4877,0.9217);
start = (0.3915,0.0686);
};
};
closed = 1;
nodes = (
(124,0,l),
(147,23,l),
(147,500,l),
(123,500,l),
(123,0,l)
);
},
{
attr = {
gradient = {
colors = (
(
(191,255),
0
),
(
(64,255),
1
)
);
end = (0.8878,0.5878);
start = (0.3743,0.5863);
};
};
closed = 1;
nodes = (
(123,0,l),
(123,24,l),
(50,24,l),
(50,23,l),
(73,0,l)
);
},
{
attr = {
gradient = {
colors = (
(
(191,255),
0
),
(
(64,255),
1
)
);
end = (0.4056,0.1204);
start = (0.4192,0.8964);
};
};
closed = 1;
nodes = (
(74,24,l),
(74,503,l),
(73,503,l),
(50,480,l),
(50,24,l)
);
}
);
width = 197;
},
{
attr = {
color = "1";
};
layerId = m003;
shapes = (
{
attr = {
gradient = {
colors = (
(
(191,255),
0
),
(
(64,255),
1
)
);
end = (0.4877,0.9217);
start = (0.1267,0.1312);
};
};
closed = 1;
nodes = (
(589,0,l),
(842,204,l),
(842,530,l),
(588,530,l),
(588,0,l)
);
},
{
attr = {
gradient = {
colors = (
(
(191,255),
0
),
(
(64,255),
1
)
);
end = (0.8878,0.5878);
start = (0.1301,0.513);
};
};
closed = 1;
nodes = (
(588,0,l),
(588,244,l),
(35,244,l),
(35,243,l),
(102,0,l)
);
},
{
attr = {
gradient = {
colors = (
(
(191,255),
0
),
(
(64,255),
1
)
);
end = (0.4056,0.1204);
start = (0.4192,0.8964);
};
};
closed = 1;
nodes = (
(289,244,l),
(289,530,l),
(288,530,l),
(35,530,l),
(35,244,l)
);
}
);
width = 877;
}
);
unicode = 118;
},
{
color = 3;
glyphname = w;
kernLeft = v;
kernRight = v;
lastChange = "2022-08-12 14:35:41 +0000";
layers = (
{
anchors = (
{
name = top;
pos = (140,500);
}
);
attr = {
color = "1";
};
layerId = "33AE93C6-B8B3-427A-A53B-F24970E840CE";
shapes = (
{
attr = {
gradient = {
colors = (
(
(191,255),
0
),
(
(64,255),
1
)
);
end = (0.4877,0.9217);
start = (0.3376,0.0309);
};
};
closed = 1;
nodes = (
(197,0,l),
(220,23,l),
(220,500,l),
(196,500,l),
(196,0,l)
);
},
{
attr = {
gradient = {
colors = (
(
(191,255),
0
),
(
(64,255),
1
)
);
end = (0.8878,0.5878);
start = (0.1876,0.6956);
};
};
closed = 1;
nodes = (
(123,0,l),
(123,24,l),
(50,24,l),
(50,23,l),
(73,0,l)
);
},
{
attr = {
gradient = {
colors = (
(
(191,255),
0
),
(
(64,255),
1
)
);
end = (0.4056,0.1204);
start = (0.4192,0.8964);
};
};
closed = 1;
nodes = (
(74,24,l),
(74,503,l),
(73,503,l),
(50,480,l),
(50,24,l)
);
},
{
attr = {
gradient = {
colors = (
(
(191,255),
0
),
(
(64,255),
1
)
);
end = (0.8878,0.5878);
start = (0.179,0.7444);
};
};
closed = 1;
nodes = (
(196,0,l),
(196,24,l),
(123,24,l),
(123,23,l),
(146,0,l)
);
},
{
attr = {
gradient = {
colors = (
(
(191,255),
0
),
(
(64,255),
1
)
);
end = (0.4056,0.1204);
start = (0.4192,0.8964);
};
};
closed = 1;
nodes = (
(147,24,l),
(147,503,l),
(146,503,l),
(123,480,l),
(123,24,l)
);
}
);
width = 270;
},
{
anchors = (
{
name = top;
pos = (641,530);
}
);
attr = {
color = "1";
};
layerId = m003;
shapes = (
{
attr = {
gradient = {
colors = (
(
(191,255),
0
),
(
(64,255),
1
)
);
end = (0.4877,0.9217);
start = (0.1043,0.0818);
};
};
closed = 1;
nodes = (
(1022,1,l),
(1275,205,l),
(1275,531,l),
(1021,531,l),
(1021,1,l)
);
},
{
attr = {
gradient = {
colors = (
(
(191,255),
0
),
(
(64,255),
1
)
);
end = (0.8878,0.5878);
start = (0.1214,0.6615);
};
};
closed = 1;
nodes = (
(538,1,l),
(538,245,l),
(35,245,l),
(35,244,l),
(142,1,l)
);
},
{
attr = {
gradient = {
colors = (
(
(191,255),
0
),
(
(64,255),
1
)
);
end = (0.4056,0.1204);
start = (0.8946,0.9397);
};
};
closed = 1;
nodes = (
(289,245,l),
(289,537,l),
(288,537,l),
(35,490,l),
(35,245,l)
);
},
{
attr = {
gradient = {
colors = (
(
(191,255),
0
),
(
(64,255),
1
)
);
end = (0.8878,0.5878);
start = (0.1301,0.513);
};
};
closed = 1;
nodes = (
(1021,1,l),
(1021,245,l),
(538,245,l),
(538,244,l),
(605,1,l)
);
},
{
attr = {
gradient = {
colors = (
(
(191,255),
0
),
(
(64,255),
1
)
);
end = (0.4056,0.1204);
start = (0.8731,0.9369);
};
};
closed = 1;
nodes = (
(772,245,l),
(772,531,l),
(771,531,l),
(538,531,l),
(538,245,l)
);
}
);
width = 1310;
}
);
unicode = 119;
},
{
glyphname = x;
lastChange = "2022-08-12 14:35:41 +0000";
layers = (
{
attr = {
color = "1";
};
layerId = "33AE93C6-B8B3-427A-A53B-F24970E840CE";
shapes = (
{
attr = {
gradient = {
colors = (
(
(64,255),
0
),
(
(191,255),
1
)
);
end = (0.2276,0.9469);
start = (0.7296,0.1934);
};
};
closed = 1;
nodes = (
(82,250,l),
(104,254,l),
(46,500,l),
(22,500,l),
(22,499,l),
(81,250,l)
);
},
{
attr = {
gradient = {
colors = (
(
(191,255),
0
),
(
(64,255),
1
)
);
end = (0.3267,0.8035);
start = (0.8008,0.0797);
};
};
closed = 1;
nodes = (
(163,0,l),
(163,1,l),
(105,250,l),
(104,250,l),
(82,246,l),
(139,0,l)
);
},
{
attr = {
gradient = {
colors = (
(
(64,255),
0
),
(
(191,255),
1
)
);
end = (0.708,0.7694);
start = (0.1663,0.0369);
};
};
closed = 1;
nodes = (
(53,0,l),
(104,250,l),
(81,250,l),
(29,1,l),
(29,0,l)
);
},
{
attr = {
gradient = {
colors = (
(
(191,255),
0
),
(
(64,255),
1
)
);
end = (0.8623,0.9513);
start = (0.1765,0.0695);
};
};
closed = 1;
nodes = (
(105,250,l),
(156,499,l),
(156,500,l),
(132,500,l),
(82,250,l)
);
}
);
width = 185;
},
{
attr = {
color = "1";
};
layerId = m003;
shapes = (
{
attr = {
gradient = {
colors = (
(
(64,255),
0
),
(
(191,255),
1
)
);
end = (0.1544,0.8884);
start = (0.8884,0.5631);
};
};
closed = 1;
nodes = (
(289,265,l),
(471,400,l),
(334,530,l),
(20,530,l),
(20,529,l),
(278,265,l)
);
},
{
attr = {
gradient = {
colors = (
(
(191,255),
0
),
(
(64,255),
1
)
);
end = (0.1195,0.4665);
start = (0.8241,0.2591);
};
};
closed = 1;
nodes = (
(879,0,l),
(879,1,l),
(611,265,l),
(600,265,l),
(428,130,l),
(565,0,l)
);
},
{
attr = {
gradient = {
colors = (
(
(64,255),
0
),
(
(191,255),
1
)
);
end = (0.8238,0.9528);
start = (0.0768,0.0349);
};
};
closed = 1;
nodes = (
(322,0,l),
(610,265,l),
(278,265,l),
(0,1,l),
(0,0,l)
);
},
{
attr = {
gradient = {
colors = (
(
(191,255),
0
),
(
(64,255),
1
)
);
end = (0.8623,0.9513);
start = (0.1535,0.0507);
};
};
closed = 1;
nodes = (
(611,265,l),
(889,529,l),
(889,530,l),
(567,530,l),
(279,265,l)
);
}
);
width = 889;
}
);
metricRight = "=|";
unicode = 120;
},
{
glyphname = y;
kernLeft = y;
kernRight = y;
lastChange = "2022-08-12 14:35:41 +0000";
layers = (
{
anchors = (
{
name = bottom;
pos = (99,-200);
},
{
name = top;
pos = (100,500);
}
);
attr = {
color = "1";
};
layerId = "33AE93C6-B8B3-427A-A53B-F24970E840CE";
shapes = (
{
attr = {
gradient = {
colors = (
(
(64,255),
0
),
(
(191,255),
1
)
);
end = (0.4056,0.1204);
start = (0.4192,0.8964);
};
};
closed = 1;
nodes = (
(124,-200,l),
(146,-177,l),
(147,500,l),
(123,500,l),
(123,-200,l)
);
},
{
attr = {
gradient = {
colors = (
(
(191,255),
0
),
(
(64,255),
1
)
);
end = (0.8744,0.307);
start = (0.0707,0.6961);
};
};
closed = 1;
nodes = (
(123,-200,l),
(123,-176,l),
(50,-176,l),
(50,-177,l),
(50,-200,l)
);
},
{
attr = {
gradient = {
colors = (
(
(191,255),
0
),
(
(64,255),
1
)
);
end = (0.9155,0.2449);
start = (0.1525,0.7927);
};
};
closed = 1;
nodes = (
(123,0,l),
(123,24,l),
(50,24,l),
(50,23,l),
(73,0,l)
);
},
{
attr = {
gradient = {
colors = (
(
(191,255),
0
),
(
(64,255),
1
)
);
end = (0.4056,0.1204);
start = (0.4192,0.8964);
};
};
closed = 1;
nodes = (
(74,24,l),
(74,503,l),
(73,503,l),
(50,477,l),
(50,24,l)
);
}
);
width = 197;
},
{
anchors = (
{
name = bottom;
pos = (422,-200);
},
{
name = top;
pos = (442,530);
}
);
attr = {
color = "1";
};
layerId = m003;
shapes = (
{
attr = {
gradient = {
colors = (
(
(64,255),
0
),
(
(191,255),
1
)
);
end = (0.2044,0.1192);
start = (0.6926,0.8992);
};
};
closed = 1;
nodes = (
(571,-206,l),
(824,-104,l),
(824,530,l),
(570,530,l),
(570,-206,l)
);
},
{
attr = {
gradient = {
colors = (
(
(191,255),
0
),
(
(64,255),
1
)
);
end = (0.9491,0.2745);
start = (0.0761,0.857);
};
};
closed = 1;
nodes = (
(570,-206,l),
(570,-20,l),
(35,-20,l),
(35,-21,l),
(137,-206,l)
);
},
{
attr = {
gradient = {
colors = (
(
(191,255),
0
),
(
(64,255),
1
)
);
end = (0.8878,0.5878);
start = (0.0643,0.8568);
};
};
closed = 1;
nodes = (
(570,22,l),
(570,266,l),
(35,266,l),
(35,265,l),
(142,22,l)
);
},
{
attr = {
gradient = {
colors = (
(
(191,255),
0
),
(
(64,255),
1
)
);
end = (0.4056,0.1204);
start = (0.9055,0.9195);
};
};
closed = 1;
nodes = (
(289,266,l),
(289,536,l),
(288,536,l),
(35,489,l),
(35,266,l)
);
}
);
width = 859;
}
);
metricLeft = y;
unicode = 121;
},
{
glyphname = z;
kernLeft = z;
kernRight = z;
lastChange = "2022-08-22 21:30:50 +0000";
layers = (
{
anchors = (
{
name = top;
pos = (83,500);
}
);
attr = {
color = "1";
};
layerId = "33AE93C6-B8B3-427A-A53B-F24970E840CE";
shapes = (
{
attr = {
gradient = {
colors = (
(
(191,255),
0
),
(
(64,255),
1
)
);
end = (0.91,0.7035);
start = (0.0693,0.513);
};
};
closed = 1;
nodes = (
(123,476,l),
(126,500,l),
(23,500,l),
(23,477,l),
(23,476,l)
);
},
{
attr = {
gradient = {
colors = (
(
(64,255),
0
),
(
(191,255),
1
)
);
end = (0.8504,0.9599);
start = (0.1093,0.0211);
};
};
closed = 1;
nodes = (
(145,477,l),
(126,500,l),
(23,25,l),
(23,24,l),
(46,24,l)
);
},
{
attr = {
gradient = {
colors = (
(
(191,255),
0
),
(
(64,255),
1
)
);
end = (0.9531,0.7317);
start = (0.0951,0.8565);
};
};
closed = 1;
nodes = (
(149,0,l),
(149,24,l),
(23,24,l),
(46,0,l)
);
}
);
width = 172;
},
{
anchors = (
{
name = top;
pos = (407,530);
}
);
attr = {
color = "1";
};
layerId = m003;
shapes = (
{
attr = {
gradient = {
colors = (
(
(191,255),
0
),
(
(64,255),
1
)
);
end = (0.678,0.7095);
start = (0.1021,0.1409);
};
};
closed = 1;
nodes = (
(637,311,l),
(663,530,l),
(133,530,l),
(26,312,l),
(26,311,l)
);
},
{
attr = {
gradient = {
colors = (
(
(64,255),
0
),
(
(191,255),
1
)
);
end = (0.9423,0.5292);
start = (0.248,0.2407);
};
};
closed = 1;
nodes = (
(753,325,l),
(663,530,l),
(20,220,l),
(20,219,l),
(383,149,l)
);
},
{
attr = {
gradient = {
colors = (
(
(191,255),
0
),
(
(64,255),
1
)
);
end = (0.913,0.2676);
start = (0.0531,0.8562);
};
};
closed = 1;
nodes = (
(747,0,l),
(747,219,l),
(20,219,l),
(127,0,l)
);
}
);
width = 783;
}
);
unicode = 122;
},
{
glyphname = iacute_j.loclNLD;
lastChange = "2022-08-18 13:23:44 +0000";
layers = (
{
anchors = (
{
name = bottom;
pos = (171,0);
},
{
name = top;
pos = (179,530);
}
);
attr = {
color = 1;
};
layerId = m003;
shapes = (
{
attr = {
gradient = {
colors = (
(
(64,255),
0
),
(
(191,255),
1
)
);
end = (0.7905,0.8874);
start = (0.4249,0.1502);
};
identifier = ID0x7f9d2cad2a70;
};
closed = 1;
nodes = (
(299,60,l),
(299,530,l),
(298,530,l),
(45,530,l),
(45,60,l)
);
},
{
pos = (-80,0);
ref = acutecomb;
},
{
attr = {
gradient = {
colors = (
(
(191,255),
0
),
(
(64,255),
0.41837
),
(
(191,255),
1
)
);
end = (0.0788,0.0337);
start = (0.936,0.9676);
};
identifier = ID0x7f9d1f3b6510;
};
closed = 1;
nodes = (
(377,-206,l),
(630,-99,l),
(630,530,l),
(629,530,l),
(376,530,l),
(376,-206,l)
);
},
{
attr = {
gradient = {
colors = (
(
(64,255),
0
),
(
(191,255),
1
)
);
end = (0.0498,0.9151);
start = (0.8911,0.1161);
};
identifier = ID0x7f9d1f3b6510;
};
closed = 1;
nodes = (
(376,-206,l),
(376,-6,l),
(45,-6,l),
(45,-206,l)
);
},
{
alignment = -1;
pos = (259,0);
ref = acutecomb;
}
);
width = 721;
},
{
anchors = (
{
name = bottom;
pos = (68,0);
},
{
name = top;
pos = (66,500);
}
);
attr = {
color = 1;
};
layerId = "33AE93C6-B8B3-427A-A53B-F24970E840CE";
shapes = (
{
attr = {
gradient = {
colors = (
(
(64,255),
0
),
(
(191,255),
1
)
);
end = (0.7215,0.8971);
start = (0.2597,0.0255);
};
identifier = ID0x7f9d1f3d1a00;
};
closed = 1;
nodes = (
(80,0,l),
(80,503,l),
(79,503,l),
(56,480,l),
(56,0,l)
);
},
{
pos = (-243,0);
ref = acutecomb;
},
{
attr = {
gradient = {
colors = (
(
(191,255),
0
),
(
(64,255),
0.53055
),
(
(191,255),
1
)
);
end = (0.3107,0.0266);
start = (0.5254,0.9172);
};
identifier = ID0x7f9d1de8fbb0;
};
closed = 1;
nodes = (
(161,-200,l),
(184,-177,l),
(184,503,l),
(183,503,l),
(160,480,l),
(160,-200,l)
);
},
{
attr = {
gradient = {
colors = (
(
(64,255),
0
),
(
(191,255),
1
)
);
end = (0.0955,0.313);
start = (0.9233,0.7617);
};
identifier = ID0x7f9d1de8fbb0;
};
closed = 1;
nodes = (
(160,-200,l),
(160,-176,l),
(56,-176,l),
(56,-200,l)
);
},
{
pos = (-139,0);
ref = acutecomb;
}
);
width = 260;
}
);
metricLeft = i;
metricRight = j;
},
{
glyphname = ordfeminine;
lastChange = "2022-08-12 14:35:41 +0000";
layers = (
{
attr = {
color = "1";
};
layerId = "33AE93C6-B8B3-427A-A53B-F24970E840CE";
shapes = (
{
attr = {
gradient = {
colors = (
(
(64,255),
0
),
(
(191,255),
1
)
);
end = (0.8396,0.2308);
start = (0.0693,0.513);
};
};
closed = 1;
nodes = (
(137,707,l),
(137,708,l),
(116,730,l),
(75,730,l),
(75,707,l)
);
},
{
attr = {
gradient = {
colors = (
(
(191,255),
0
),
(
(64,255),
1
)
);
end = (0.8878,0.5878);
start = (0.1327,0.8135);
};
};
closed = 1;
nodes = (
(115,502,l),
(115,525,l),
(53,525,l),
(53,524,l),
(74,502,l)
);
},
{
attr = {
gradient = {
colors = (
(
(64,255),
0
),
(
(191,255),
1
)
);
end = (0.4877,0.9217);
start = (0.4084,0.0299);
};
};
closed = 1;
nodes = (
(75,525,l),
(75,730,l),
(74,730,l),
(53,708,l),
(53,525,l)
);
},
{
attr = {
gradient = {
colors = (
(
(64,255),
0
),
(
(191,255),
1
)
);
end = (0.4056,0.1204);
start = (0.4192,0.8964);
};
};
closed = 1;
nodes = (
(137,502,l),
(137,707,l),
(115,707,l),
(115,502,l)
);
}
);
width = 190;
},
{
attr = {
color = "1";
};
layerId = m003;
shapes = (
{
attr = {
gradient = {
colors = (
(
(64,255),
0
),
(
(191,255),
1
)
);
end = (0.847,0.2404);
start = (0.0693,0.513);
};
};
closed = 1;
nodes = (
(512,686,l),
(512,687,l),
(405,800,l),
(169,800,l),
(169,686,l)
);
},
{
attr = {
gradient = {
colors = (
(
(191,255),
0
),
(
(64,255),
1
)
);
end = (0.8878,0.5878);
start = (0.1063,0.7948);
};
};
closed = 1;
nodes = (
(388,490,l),
(388,604,l),
(45,604,l),
(45,603,l),
(152,490,l)
);
},
{
attr = {
gradient = {
colors = (
(
(64,255),
0
),
(
(191,255),
1
)
);
end = (0.8955,0.8407);
start = (0.3766,0.0781);
};
};
closed = 1;
nodes = (
(169,604,l),
(169,800,l),
(168,800,l),
(45,693,l),
(45,604,l)
);
},
{
attr = {
gradient = {
colors = (
(
(64,255),
0
),
(
(191,255),
1
)
);
end = (0.4056,0.1204);
start = (0.4192,0.8964);
};
};
closed = 1;
nodes = (
(512,490,l),
(512,686,l),
(388,686,l),
(388,490,l)
);
}
);
width = 557;
}
);
unicode = 170;
},
{
glyphname = ordmasculine;
lastChange = "2022-08-12 14:35:41 +0000";
layers = (
{
attr = {
color = "1";
};
layerId = "33AE93C6-B8B3-427A-A53B-F24970E840CE";
shapes = (
{
attr = {
gradient = {
colors = (
(
(64,255),
0
),
(
(191,255),
1
)
);
end = (0.7621,0.3309);
start = (0.0693,0.513);
};
};
closed = 1;
nodes = (
(137,707,l),
(137,708,l),
(116,730,l),
(75,730,l),
(75,707,l)
);
},
{
attr = {
gradient = {
colors = (
(
(191,255),
0
),
(
(64,255),
1
)
);
end = (0.8878,0.5878);
start = (0.2055,0.7846);
};
};
closed = 1;
nodes = (
(115,502,l),
(115,525,l),
(53,525,l),
(53,524,l),
(74,502,l)
);
},
{
attr = {
gradient = {
colors = (
(
(64,255),
0
),
(
(191,255),
1
)
);
end = (0.4877,0.9217);
start = (0.4169,0.0302);
};
};
closed = 1;
nodes = (
(75,525,l),
(75,730,l),
(74,730,l),
(53,708,l),
(53,525,l)
);
},
{
attr = {
gradient = {
colors = (
(
(64,255),
0
),
(
(191,255),
1
)
);
end = (0.4056,0.1204);
start = (0.4192,0.8964);
};
};
closed = 1;
nodes = (
(116,502,l),
(137,524,l),
(137,707,l),
(115,707,l),
(115,502,l)
);
}
);
width = 190;
},
{
attr = {
color = "1";
};
layerId = m003;
shapes = (
{
attr = {
gradient = {
colors = (
(
(64,255),
0
),
(
(191,255),
1
)
);
end = (0.9118,0.1106);
start = (0.0693,0.513);
};
};
closed = 1;
nodes = (
(512,686,l),
(512,687,l),
(405,800,l),
(169,800,l),
(169,686,l)
);
},
{
attr = {
gradient = {
colors = (
(
(191,255),
0
),
(
(64,255),
1
)
);
end = (0.8878,0.5878);
start = (0.1046,0.8554);
};
};
closed = 1;
nodes = (
(388,490,l),
(388,604,l),
(45,604,l),
(45,603,l),
(152,490,l)
);
},
{
attr = {
gradient = {
colors = (
(
(64,255),
0
),
(
(191,255),
1
)
);
end = (0.8876,0.8522);
start = (0.3998,0.0549);
};
};
closed = 1;
nodes = (
(169,604,l),
(169,800,l),
(168,800,l),
(45,693,l),
(45,604,l)
);
},
{
attr = {
gradient = {
colors = (
(
(64,255),
0
),
(
(191,255),
1
)
);
end = (0.1129,0.1255);
start = (0.4192,0.8964);
};
};
closed = 1;
nodes = (
(389,490,l),
(512,597,l),
(512,686,l),
(388,686,l),
(388,490,l)
);
}
);
width = 557;
}
);
unicode = 186;
},
{
glyphname = zero;
lastChange = "2022-08-12 14:35:41 +0000";
layers = (
{
attr = {
color = "1";
};
layerId = "33AE93C6-B8B3-427A-A53B-F24970E840CE";
shapes = (
{
attr = {
gradient = {
colors = (
(
(128,255),
0
),
(
(191,255),
0.51152
),
(
(64,255),
1
)
);
end = (0.1006,0.9261);
start = (0.8563,0.0865);
};
};
closed = 1;
nodes = (
(223,24,l),
(223,25,l),
(93,652,l),
(70,652,l),
(200,24,l)
);
},
{
attr = {
gradient = {
colors = (
(
(191,255),
0
),
(
(64,255),
1
)
);
end = (0.8878,0.5878);
start = (0.0857,0.6154);
};
};
closed = 1;
nodes = (
(213,0,l),
(213,24,l),
(53,24,l),
(53,23,l),
(76,0,l)
);
},
{
attr = {
gradient = {
colors = (
(
(64,255),
0
),
(
(191,255),
1
)
);
end = (0.4877,0.9217);
start = (0.4671,0.0198);
};
};
closed = 1;
nodes = (
(77,24,l),
(77,670,l),
(76,670,l),
(53,647,l),
(53,24,l)
);
},
{
attr = {
gradient = {
colors = (
(
(64,255),
0
),
(
(191,255),
1
)
);
end = (0.4056,0.1204);
start = (0.4192,0.8964);
};
};
closed = 1;
nodes = (
(214,0,l),
(237,23,l),
(237,646,l),
(213,646,l),
(213,0,l)
);
},
{
attr = {
gradient = {
colors = (
(
(64,255),
0
),
(
(191,255),
1
)
);
end = (0.8878,0.5878);
start = (0.0693,0.513);
};
};
closed = 1;
nodes = (
(237,646,l),
(237,647,l),
(214,670,l),
(77,670,l),
(77,646,l)
);
}
);
width = 290;
},
{
attr = {
color = "1";
};
layerId = m003;
shapes = (
{
attr = {
gradient = {
colors = (
(
(128,255),
0
),
(
(191,255),
0.51152
),
(
(64,255),
1
)
);
end = (0.2106,0.9488);
start = (0.7015,0.065);
};
};
closed = 1;
nodes = (
(642,244,l),
(642,245,l),
(400,486,l),
(197,486,l),
(439,244,l)
);
},
{
attr = {
gradient = {
colors = (
(
(191,255),
0
),
(
(64,255),
1
)
);
end = (0.8878,0.5878);
start = (0.0829,0.9283);
};
};
closed = 1;
nodes = (
(521,0,l),
(521,244,l),
(25,244,l),
(25,243,l),
(227,0,l)
);
},
{
attr = {
gradient = {
colors = (
(
(64,255),
0
),
(
(191,255),
1
)
);
end = (0.8952,0.9108);
start = (0.4195,0.0256);
};
};
closed = 1;
nodes = (
(279,244,l),
(279,730,l),
(278,730,l),
(25,523,l),
(25,244,l)
);
},
{
attr = {
gradient = {
colors = (
(
(64,255),
0
),
(
(191,255),
1
)
);
end = (0.1901,0.1204);
start = (0.4192,0.8964);
};
};
closed = 1;
nodes = (
(522,0,l),
(775,197,l),
(775,486,l),
(521,486,l),
(521,0,l)
);
},
{
attr = {
gradient = {
colors = (
(
(64,255),
0
),
(
(191,255),
1
)
);
end = (0.9157,0.0655);
start = (0.0693,0.513);
};
};
closed = 1;
nodes = (
(775,486,l),
(775,487,l),
(573,730,l),
(279,730,l),
(279,486,l)
);
}
);
width = 800;
}
);
metricRight = "=|";
unicode = 48;
},
{
glyphname = one;
lastChange = "2022-08-12 14:35:41 +0000";
layers = (
{
attr = {
color = "1";
};
layerId = "33AE93C6-B8B3-427A-A53B-F24970E840CE";
shapes = (
{
attr = {
gradient = {
colors = (
(
(64,255),
0.01
),
(
(191,255),
1
)
);
end = (0.1311,0.0169);
start = (0.5946,0.9449);
};
};
closed = 1;
nodes = (
(145,0,l),
(168,24,l),
(168,670,l),
(167,670,l),
(144,646,l),
(144,0,l)
);
},
{
attr = {
gradient = {
colors = (
(
(64,255),
0
),
(
(191,255),
1
)
);
end = (0.0963,0.6872);
start = (0.9407,0.3525);
};
};
closed = 1;
nodes = (
(144,0,l),
(144,24,l),
(54,24,l),
(54,0,l)
);
},
{
attr = {
gradient = {
colors = (
(
(64,255),
0
),
(
(191,255),
1
)
);
end = (0.1112,0.2143);
start = (0.9244,0.3674);
};
};
closed = 1;
nodes = (
(237,0,l),
(237,24,l),
(168,24,l),
(145,0,l)
);
},
{
attr = {
gradient = {
colors = (
(
(64,255),
0
),
(
(191,255),
1
)
);
end = (0.8086,0.5986);
start = (0.089,0.1962);
};
};
closed = 1;
nodes = (
(144,646,l),
(167,670,l),
(63,670,l),
(63,646,l)
);
}
);
width = 290;
},
{
attr = {
color = "1";
};
layerId = m003;
shapes = (
{
attr = {
gradient = {
colors = (
(
(64,255),
0
),
(
(191,255),
1
)
);
end = (0.1041,0.0721);
start = (0.9261,0.9507);
};
};
closed = 1;
nodes = (
(351,0,l),
(553,244,l),
(553,730,l),
(501,730,l),
(299,486,l),
(298,0,l)
);
},
{
attr = {
gradient = {
colors = (
(
(64,255),
0
),
(
(191,255),
1
)
);
end = (0.0791,0.844);
start = (0.9082,0.133);
};
};
closed = 1;
nodes = (
(298,0,l),
(298,244,l),
(25,244,l),
(25,1,l)
);
},
{
attr = {
gradient = {
colors = (
(
(64,255),
0
),
(
(191,255),
1
)
);
end = (0.1046,0.0778);
start = (0.9227,0.1425);
};
};
closed = 1;
nodes = (
(775,0,l),
(775,244,l),
(553,244,l),
(351,0,l)
);
},
{
attr = {
gradient = {
colors = (
(
(64,255),
0
),
(
(191,255),
1
)
);
end = (0.8737,0.9118);
start = (0.0638,0.3546);
};
};
closed = 1;
nodes = (
(299,486,l),
(501,730,l),
(105,730,l),
(105,486,l)
);
}
);
width = 800;
}
);
unicode = 49;
},
{
glyphname = two;
lastChange = "2022-08-22 21:31:06 +0000";
layers = (
{
attr = {
color = "1";
};
layerId = "33AE93C6-B8B3-427A-A53B-F24970E840CE";
shapes = (
{
attr = {
gradient = {
colors = (
(
(191,255),
0
),
(
(64,255),
1
)
);
end = (0.8878,0.5878);
start = (0.1621,0.2983);
};
};
closed = 1;
nodes = (
(193,646,l),
(196,670,l),
(86,670,l),
(63,647,l),
(63,646,l)
);
},
{
attr = {
gradient = {
colors = (
(
(64,255),
0
),
(
(191,255),
1
)
);
end = (0.8933,0.9441);
start = (0.1621,0.0925);
};
};
closed = 1;
nodes = (
(214,637,l),
(196,670,l),
(63,25,l),
(63,24,l),
(86,24,l)
);
},
{
attr = {
gradient = {
colors = (
(
(191,255),
0
),
(
(64,255),
1
)
);
end = (0.9403,0.817);
start = (0.0693,0.513);
};
};
closed = 1;
nodes = (
(219,0,l),
(219,24,l),
(63,24,l),
(63,0,l)
);
}
);
width = 290;
},
{
attr = {
color = "1";
};
layerId = m003;
shapes = (
{
attr = {
gradient = {
colors = (
(
(191,255),
0
),
(
(64,255),
1
)
);
end = (0.8567,0.8408);
start = (0.1487,0.1655);
};
};
closed = 1;
nodes = (
(603,486,l),
(629,730,l),
(227,730,l),
(25,487,l),
(25,486,l)
);
},
{
attr = {
gradient = {
colors = (
(
(64,255),
0
),
(
(191,255),
1
)
);
end = (0.8479,0.8647);
start = (0.1173,0.2252);
};
};
closed = 1;
nodes = (
(769,535,l),
(629,730,l),
(31,245,l),
(31,244,l),
(324,119,l)
);
},
{
attr = {
gradient = {
colors = (
(
(191,255),
0
),
(
(64,255),
1
)
);
end = (0.9726,0.891);
start = (0.0491,0.5324);
};
};
closed = 1;
nodes = (
(775,0,l),
(775,244,l),
(31,244,l),
(31,0,l)
);
}
);
width = 800;
}
);
unicode = 50;
},
{
glyphname = three;
lastChange = "2022-08-12 14:35:41 +0000";
layers = (
{
attr = {
color = "1";
};
layerId = "33AE93C6-B8B3-427A-A53B-F24970E840CE";
shapes = (
{
attr = {
gradient = {
colors = (
(
(191,255),
0
),
(
(64,255),
1
)
);
end = (0.8878,0.5878);
start = (0.1223,0.2754);
};
};
closed = 1;
nodes = (
(193,646,l),
(193,670,l),
(68,670,l),
(45,647,l),
(45,646,l)
);
},
{
attr = {
gradient = {
colors = (
(
(191,255),
0
),
(
(64,255),
1
)
);
end = (0.8946,0.2729);
start = (0.1165,0.7288);
};
};
closed = 1;
nodes = (
(193,0,l),
(193,24,l),
(35,24,l),
(35,23,l),
(58,0,l)
);
},
{
attr = {
gradient = {
colors = (
(
(191,255),
0
),
(
(64,255),
1
)
);
end = (0.8618,0.4739);
start = (0.1216,0.8595);
};
};
closed = 1;
nodes = (
(193,403,l),
(193,427,l),
(65,427,l),
(65,403,l)
);
},
{
attr = {
gradient = {
colors = (
(
(191,255),
0
),
(
(64,255),
1
)
);
end = (0.5182,0.0616);
start = (0.5102,0.8728);
};
};
closed = 1;
nodes = (
(216,427,l),
(216,637,l),
(194,670,l),
(193,670,l),
(193,427,l)
);
},
{
attr = {
gradient = {
colors = (
(
(191,255),
0.01851
),
(
(64,255),
1
)
);
end = (0.5919,0.9267);
start = (0.4269,0.1417);
};
};
closed = 1;
nodes = (
(194,0,l),
(217,24,l),
(217,403,l),
(194,427,l),
(193,427,l),
(193,0,l)
);
}
);
width = 290;
},
{
attr = {
color = "1";
};
layerId = m003;
shapes = (
{
attr = {
gradient = {
colors = (
(
(191,255),
0
),
(
(64,255),
1
)
);
end = (0.9445,0.1326);
start = (0.4177,0.7328);
};
};
closed = 1;
nodes = (
(511,486,l),
(511,730,l),
(217,730,l),
(15,487,l),
(15,486,l)
);
},
{
attr = {
gradient = {
colors = (
(
(191,255),
0
),
(
(64,255),
1
)
);
end = (0.962,0.1237);
start = (0.1173,0.8621);
};
};
closed = 1;
nodes = (
(511,0,l),
(511,244,l),
(15,244,l),
(15,243,l),
(217,0,l)
);
},
{
attr = {
gradient = {
colors = (
(
(191,255),
0
),
(
(64,255),
1
)
);
end = (0.9428,0.1737);
start = (0.3905,0.807);
};
};
closed = 1;
nodes = (
(511,262,l),
(511,466,l),
(116,466,l),
(116,262,l)
);
},
{
attr = {
gradient = {
colors = (
(
(191,255),
0
),
(
(64,255),
1
)
);
end = (0.1525,0.2736);
start = (0.3973,0.721);
};
};
closed = 1;
nodes = (
(765,366,l),
(765,523,l),
(512,730,l),
(511,730,l),
(511,366,l)
);
},
{
attr = {
gradient = {
colors = (
(
(191,255),
0
),
(
(64,255),
1
)
);
end = (0.8008,0.6044);
start = (0.1539,0.4423);
};
};
closed = 1;
nodes = (
(512,0,l),
(765,193,l),
(765,269,l),
(512,466,l),
(511,466,l),
(511,0,l)
);
}
);
width = 800;
}
);
unicode = 51;
},
{
glyphname = four;
lastChange = "2022-08-22 21:31:25 +0000";
layers = (
{
attr = {
color = "1";
};
layerId = "33AE93C6-B8B3-427A-A53B-F24970E840CE";
shapes = (
{
attr = {
gradient = {
colors = (
(
(191,255),
0
),
(
(64,255),
1
)
);
end = (0.8788,0.3955);
start = (0.0693,0.513);
};
};
closed = 1;
nodes = (
(203,274,l),
(203,298,l),
(69,298,l),
(66,274,l)
);
},
{
attr = {
gradient = {
colors = (
(
(64,255),
0
),
(
(191,255),
1
)
);
end = (0.8336,0.9456);
start = (0.1318,0.0875);
};
};
closed = 1;
nodes = (
(152,669,l),
(152,670,l),
(129,670,l),
(46,297,l),
(66,274,l)
);
},
{
attr = {
gradient = {
colors = (
(
(64,255),
0.01851
),
(
(191,255),
0.98315
)
);
end = (0.2926,0.7611);
start = (0.5524,0.0936);
};
};
closed = 1;
nodes = (
(227,0,l),
(227,274,l),
(204,298,l),
(203,298,l),
(203,0,l)
);
}
);
width = 290;
},
{
attr = {
color = "1";
};
layerId = m003;
shapes = (
{
attr = {
gradient = {
colors = (
(
(191,255),
0
),
(
(64,255),
1
)
);
end = (0.7097,0.2022);
start = (0.5785,0.935);
};
};
closed = 1;
nodes = (
(521,173,l),
(521,417,l),
(201,417,l),
(125,173,l)
);
},
{
attr = {
gradient = {
colors = (
(
(64,255),
0
),
(
(191,255),
1
)
);
end = (0.9007,0.9348);
start = (0.1966,0.1118);
};
};
closed = 1;
nodes = (
(637,729,l),
(637,730,l),
(377,730,l),
(5,368,l),
(125,173,l)
);
},
{
attr = {
gradient = {
colors = (
(
(64,255),
0
),
(
(191,255),
1
)
);
end = (0.096,0.8614);
start = (0.6031,0.059);
};
};
closed = 1;
nodes = (
(775,0,l),
(775,210,l),
(522,417,l),
(521,417,l),
(521,0,l)
);
}
);
width = 800;
}
);
unicode = 52;
},
